<svg version="1.1" xmlns="http://www.w3.org/2000/svg" viewBox="0 0 1020 400.0000000000109" width="1020" height="400.0000000000109">
  <!-- svg-source:excalidraw -->
  
  <defs>
    <style class="style-fonts">
      @font-face {
        font-family: "Virgil";
        src: url("https://excalidraw.com/Virgil.woff2");
      }
      @font-face {
        font-family: "Cascadia";
        src: url("https://excalidraw.com/Cascadia.woff2");
      }
    </style>
  </defs>
  <rect x="0" y="0" width="1020" height="400.0000000000109" fill="#ffffff"></rect><g stroke-linecap="round" transform="translate(230 230.00000000001182) rotate(629.9999999999999 20 20)"><path d="M0 0 C10.96 0, 21.91 0, 40 0 M0 0 C8.7 0, 17.39 0, 40 0 M40 0 C40 13.39, 40 26.78, 40 40 M40 0 C40 10.03, 40 20.07, 40 40 M40 40 C29.05 40, 18.1 40, 0 40 M40 40 C27.49 40, 14.97 40, 0 40 M0 40 C0 30.08, 0 20.15, 0 0 M0 40 C0 25.64, 0 11.28, 0 0" stroke="#000000" stroke-width="1" fill="none"></path></g><g stroke-linecap="round" transform="translate(270.00000000000364 230.00000000001182) rotate(629.9999999999999 20 20)"><path d="M0 0 C13.37 0, 26.73 0, 40 0 M0 0 C15.23 0, 30.46 0, 40 0 M40 0 C40 11.22, 40 22.44, 40 40 M40 0 C40 10.94, 40 21.87, 40 40 M40 40 C24.12 40, 8.24 40, 0 40 M40 40 C30.74 40, 21.48 40, 0 40 M0 40 C0 29.36, 0 18.72, 0 0 M0 40 C0 29.03, 0 18.06, 0 0" stroke="#000000" stroke-width="1" fill="none"></path></g><g stroke-linecap="round" transform="translate(310 230.00000000000819) rotate(629.9999999999999 20 20)"><path d="M0 0 C8.84 0, 17.67 0, 40 0 M0 0 C9.67 0, 19.33 0, 40 0 M40 0 C40 9.83, 40 19.66, 40 40 M40 0 C40 11.12, 40 22.24, 40 40 M40 40 C29.67 40, 19.34 40, 0 40 M40 40 C31.65 40, 23.29 40, 0 40 M0 40 C0 27.85, 0 15.7, 0 0 M0 40 C0 28.07, 0 16.14, 0 0" stroke="#000000" stroke-width="1" fill="none"></path></g><g stroke-linecap="round" transform="translate(349.9999999999982 230.00000000001182) rotate(629.9999999999999 20 20)"><path d="M0 0 C8.68 0, 17.36 0, 40 0 M0 0 C13.95 0, 27.9 0, 40 0 M40 0 C40 9.11, 40 18.22, 40 40 M40 0 C40 13.24, 40 26.49, 40 40 M40 40 C30.8 40, 21.6 40, 0 40 M40 40 C27.02 40, 14.05 40, 0 40 M0 40 C0 29.67, 0 19.34, 0 0 M0 40 C0 30.04, 0 20.09, 0 0" stroke="#000000" stroke-width="1" fill="none"></path></g><g stroke-linecap="round" transform="translate(390 230.00000000000637) rotate(629.9999999999999 20 20)"><path d="M0 0 C10.79 0, 21.58 0, 40 0 M0 0 C10.18 0, 20.35 0, 40 0 M40 0 C40 8.05, 40 16.11, 40 40 M40 0 C40 15.57, 40 31.15, 40 40 M40 40 C29.19 40, 18.38 40, 0 40 M40 40 C30.6 40, 21.2 40, 0 40 M0 40 C0 24.83, 0 9.66, 0 0 M0 40 C0 28.2, 0 16.4, 0 0" stroke="#000000" stroke-width="1" fill="none"></path></g><g stroke-linecap="round" transform="translate(430.00000000000364 230.00000000000819) rotate(629.9999999999999 20 20)"><path d="M0 0 C11.33 0, 22.67 0, 40 0 M0 0 C11.49 0, 22.99 0, 40 0 M40 0 C40 13.81, 40 27.61, 40 40 M40 0 C40 14.44, 40 28.87, 40 40 M40 40 C31.95 40, 23.91 40, 0 40 M40 40 C29.24 40, 18.48 40, 0 40 M0 40 C0 29.23, 0 18.46, 0 0 M0 40 C0 31.94, 0 23.87, 0 0" stroke="#000000" stroke-width="1" fill="none"></path></g><g stroke-linecap="round" transform="translate(470 230.0000000000009) rotate(629.9999999999999 20 20)"><path d="M0 0 C15.72 0, 31.44 0, 40 0 M0 0 C13.43 0, 26.86 0, 40 0 M40 0 C40 8.81, 40 17.63, 40 40 M40 0 C40 15.62, 40 31.24, 40 40 M40 40 C28.74 40, 17.49 40, 0 40 M40 40 C27.35 40, 14.71 40, 0 40 M0 40 C0 27.81, 0 15.61, 0 0 M0 40 C0 24.51, 0 9.02, 0 0" stroke="#000000" stroke-width="1" fill="none"></path></g><g stroke-linecap="round" transform="translate(510 230) rotate(629.9999999999999 20 20)"><path d="M0 0 C14.43 0, 28.86 0, 40 0 M0 0 C15.84 0, 31.68 0, 40 0 M40 0 C40 11.18, 40 22.35, 40 40 M40 0 C40 12.85, 40 25.7, 40 40 M40 40 C25.19 40, 10.39 40, 0 40 M40 40 C28.45 40, 16.89 40, 0 40 M0 40 C0 25.38, 0 10.76, 0 0 M0 40 C0 26.92, 0 13.84, 0 0" stroke="#000000" stroke-width="1" fill="none"></path></g><g stroke-linecap="round" transform="translate(390 230) rotate(360 20 20)"><path d="M0 0 L40 0 L40 40 L0 40" stroke="none" stroke-width="0" fill="#fab005"></path><path d="M0 0 C11.08 0, 22.16 0, 40 0 M0 0 C14.7 0, 29.4 0, 40 0 M40 0 C40 14.17, 40 28.34, 40 40 M40 0 C40 10.81, 40 21.62, 40 40 M40 40 C31.42 40, 22.85 40, 0 40 M40 40 C26.33 40, 12.67 40, 0 40 M0 40 C0 24.76, 0 9.52, 0 0 M0 40 C0 25.66, 0 11.32, 0 0" stroke="#000000" stroke-width="1" fill="none"></path></g><g stroke-linecap="round" transform="translate(230 270.00000000001273) rotate(629.9999999999999 20 20)"><path d="M0 0 C14.39 0, 28.77 0, 40 0 M0 0 C13.02 0, 26.04 0, 40 0 M40 0 C40 13.66, 40 27.33, 40 40 M40 0 C40 13.62, 40 27.25, 40 40 M40 40 C30.3 40, 20.6 40, 0 40 M40 40 C28.16 40, 16.31 40, 0 40 M0 40 C0 30.37, 0 20.74, 0 0 M0 40 C0 30.9, 0 21.8, 0 0" stroke="#000000" stroke-width="1" fill="none"></path></g><g stroke-linecap="round" transform="translate(270 270.0000000000118) rotate(629.9999999999999 20 20)"><path d="M0 0 C11.15 0, 22.29 0, 40 0 M0 0 C15.08 0, 30.15 0, 40 0 M40 0 C40 9.74, 40 19.47, 40 40 M40 0 C40 13.75, 40 27.5, 40 40 M40 40 C28.01 40, 16.02 40, 0 40 M40 40 C27.66 40, 15.31 40, 0 40 M0 40 C0 26.63, 0 13.25, 0 0 M0 40 C0 28.74, 0 17.48, 0 0" stroke="#000000" stroke-width="1" fill="none"></path></g><g stroke-linecap="round" transform="translate(310 270.00000000001) rotate(629.9999999999999 20 20)"><path d="M0 0 C8.7 0, 17.39 0, 40 0 M0 0 C13.39 0, 26.78 0, 40 0 M40 0 C40 10.03, 40 20.07, 40 40 M40 0 C40 10.95, 40 21.9, 40 40 M40 40 C27.49 40, 14.97 40, 0 40 M40 40 C30.08 40, 20.15 40, 0 40 M0 40 C0 25.64, 0 11.28, 0 0 M0 40 C0 29.23, 0 18.46, 0 0" stroke="#000000" stroke-width="1" fill="none"></path></g><g stroke-linecap="round" transform="translate(350.0000000000018 270.0000000000082) rotate(629.9999999999999 20 20)"><path d="M0 0 C15.23 0, 30.46 0, 40 0 M0 0 C11.22 0, 22.44 0, 40 0 M40 0 C40 10.94, 40 21.87, 40 40 M40 0 C40 15.88, 40 31.76, 40 40 M40 40 C30.74 40, 21.48 40, 0 40 M40 40 C29.36 40, 18.72 40, 0 40 M0 40 C0 29.03, 0 18.06, 0 0 M0 40 C0 29.51, 0 19.02, 0 0" stroke="#000000" stroke-width="1" fill="none"></path></g><g stroke-linecap="round" transform="translate(390.0000000000018 270.00000000000273) rotate(629.9999999999999 20 20)"><path d="M0 0 C9.67 0, 19.33 0, 40 0 M0 0 C9.83 0, 19.66 0, 40 0 M40 0 C40 11.12, 40 22.24, 40 40 M40 0 C40 10.33, 40 20.66, 40 40 M40 40 C31.65 40, 23.29 40, 0 40 M40 40 C27.85 40, 15.7 40, 0 40 M0 40 C0 28.07, 0 16.14, 0 0 M0 40 C0 26.46, 0 12.93, 0 0" stroke="#000000" stroke-width="1" fill="none"></path></g><g stroke-linecap="round" transform="translate(429.9999999999982 270.00000000000364) rotate(629.9999999999999 20 20)"><path d="M0 0 C13.95 0, 27.9 0, 40 0 M0 0 C9.11 0, 18.22 0, 40 0 M40 0 C40 13.24, 40 26.49, 40 40 M40 0 C40 9.2, 40 18.4, 40 40 M40 40 C27.02 40, 14.05 40, 0 40 M40 40 C29.67 40, 19.34 40, 0 40 M0 40 C0 30.04, 0 20.09, 0 0 M0 40 C0 24.68, 0 9.36, 0 0" stroke="#000000" stroke-width="1" fill="none"></path></g><g stroke-linecap="round" transform="translate(470 270.00000000000364) rotate(629.9999999999999 20 20)"><path d="M0 0 C10.18 0, 20.35 0, 40 0 M0 0 C8.05 0, 16.11 0, 40 0 M40 0 C40 15.57, 40 31.15, 40 40 M40 0 C40 10.81, 40 21.62, 40 40 M40 40 C30.6 40, 21.2 40, 0 40 M40 40 C24.83 40, 9.66 40, 0 40 M0 40 C0 28.2, 0 16.4, 0 0 M0 40 C0 24.09, 0 8.18, 0 0" stroke="#000000" stroke-width="1" fill="none"></path></g><g stroke-linecap="round" transform="translate(510.0000000000018 270) rotate(629.9999999999999 20 20)"><path d="M0 0 C11.49 0, 22.99 0, 40 0 M0 0 C13.81 0, 27.61 0, 40 0 M40 0 C40 14.44, 40 28.87, 40 40 M40 0 C40 8.05, 40 16.09, 40 40 M40 40 C29.24 40, 18.48 40, 0 40 M40 40 C29.23 40, 18.46 40, 0 40 M0 40 C0 31.94, 0 23.87, 0 0 M0 40 C0 30.11, 0 20.23, 0 0" stroke="#000000" stroke-width="1" fill="none"></path></g><g stroke-linecap="round" transform="translate(430 270) rotate(360 20 20)"><path d="M0 0 L40 0 L40 40 L0 40" stroke="none" stroke-width="0" fill="#15aabf"></path><path d="M0 0 C13.43 0, 26.86 0, 40 0 M0 0 C8.81 0, 17.63 0, 40 0 M40 0 C40 15.62, 40 31.24, 40 40 M40 0 C40 11.26, 40 22.51, 40 40 M40 40 C27.35 40, 14.71 40, 0 40 M40 40 C27.81 40, 15.61 40, 0 40 M0 40 C0 24.51, 0 9.02, 0 0 M0 40 C0 30.3, 0 20.6, 0 0" stroke="#000000" stroke-width="1" fill="none"></path></g><g stroke-linecap="round" transform="translate(230 310.0000000000109) rotate(629.9999999999999 20 20)"><path d="M0 0 C15.84 0, 31.68 0, 40 0 M0 0 C11.18 0, 22.35 0, 40 0 M40 0 C40 12.85, 40 25.7, 40 40 M40 0 C40 14.81, 40 29.61, 40 40 M40 40 C28.45 40, 16.89 40, 0 40 M40 40 C25.38 40, 10.76 40, 0 40 M0 40 C0 26.92, 0 13.84, 0 0 M0 40 C0 27.13, 0 14.26, 0 0" stroke="#000000" stroke-width="1" fill="none"></path></g><g stroke-linecap="round" transform="translate(269.9999999999982 310.0000000000091) rotate(629.9999999999999 20 20)"><path d="M0 0 C14.7 0, 29.4 0, 40 0 M0 0 C14.17 0, 28.34 0, 40 0 M40 0 C40 10.81, 40 21.62, 40 40 M40 0 C40 8.58, 40 17.15, 40 40 M40 40 C26.33 40, 12.67 40, 0 40 M40 40 C24.76 40, 9.52 40, 0 40 M0 40 C0 25.66, 0 11.32, 0 0 M0 40 C0 29.72, 0 19.45, 0 0" stroke="#000000" stroke-width="1" fill="none"></path></g><g stroke-linecap="round" transform="translate(310 310.00000000000637) rotate(629.9999999999999 20 20)"><path d="M0 0 C13.02 0, 26.04 0, 40 0 M0 0 C13.66 0, 27.33 0, 40 0 M40 0 C40 13.62, 40 27.25, 40 40 M40 0 C40 9.7, 40 19.4, 40 40 M40 40 C28.16 40, 16.31 40, 0 40 M40 40 C30.37 40, 20.74 40, 0 40 M0 40 C0 30.9, 0 21.8, 0 0 M0 40 C0 28.71, 0 17.41, 0 0" stroke="#000000" stroke-width="1" fill="none"></path></g><g stroke-linecap="round" transform="translate(350.0000000000018 310.00000000000546) rotate(629.9999999999999 20 20)"><path d="M0 0 C15.08 0, 30.15 0, 40 0 M0 0 C9.74 0, 19.47 0, 40 0 M40 0 C40 13.75, 40 27.5, 40 40 M40 0 C40 11.99, 40 23.98, 40 40 M40 40 C27.66 40, 15.31 40, 0 40 M40 40 C26.63 40, 13.25 40, 0 40 M0 40 C0 28.74, 0 17.48, 0 0 M0 40 C0 25.2, 0 10.4, 0 0" stroke="#000000" stroke-width="1" fill="none"></path></g><g stroke-linecap="round" transform="translate(390.0000000000018 310.00000000000273) rotate(629.9999999999999 20 20)"><path d="M0 0 C13.39 0, 26.78 0, 40 0 M0 0 C10.03 0, 20.07 0, 40 0 M40 0 C40 10.95, 40 21.9, 40 40 M40 0 C40 12.51, 40 25.03, 40 40 M40 40 C30.08 40, 20.15 40, 0 40 M40 40 C25.64 40, 11.28 40, 0 40 M0 40 C0 29.23, 0 18.46, 0 0 M0 40 C0 25.76, 0 11.53, 0 0" stroke="#000000" stroke-width="1" fill="none"></path></g><g stroke-linecap="round" transform="translate(430 310.0000000000018) rotate(629.9999999999999 20 20)"><path d="M0 0 C11.22 0, 22.44 0, 40 0 M0 0 C10.94 0, 21.87 0, 40 0 M40 0 C40 15.88, 40 31.76, 40 40 M40 0 C40 9.26, 40 18.52, 40 40 M40 40 C29.36 40, 18.72 40, 0 40 M40 40 C29.03 40, 18.06 40, 0 40 M0 40 C0 29.51, 0 19.02, 0 0 M0 40 C0 31.5, 0 22.99, 0 0" stroke="#000000" stroke-width="1" fill="none"></path></g><g stroke-linecap="round" transform="translate(470.0000000000018 310.0000000000018) rotate(629.9999999999999 20 20)"><path d="M0 0 C9.83 0, 19.66 0, 40 0 M0 0 C11.12 0, 22.24 0, 40 0 M40 0 C40 10.33, 40 20.66, 40 40 M40 0 C40 8.35, 40 16.71, 40 40 M40 40 C27.85 40, 15.7 40, 0 40 M40 40 C28.07 40, 16.14 40, 0 40 M0 40 C0 26.46, 0 12.93, 0 0 M0 40 C0 29.4, 0 18.79, 0 0" stroke="#000000" stroke-width="1" fill="none"></path></g><g stroke-linecap="round" transform="translate(510.0000000000018 310) rotate(629.9999999999999 20 20)"><path d="M0 0 C9.11 0, 18.22 0, 40 0 M0 0 C13.24 0, 26.49 0, 40 0 M40 0 C40 9.2, 40 18.4, 40 40 M40 0 C40 12.98, 40 25.95, 40 40 M40 40 C29.67 40, 19.34 40, 0 40 M40 40 C30.04 40, 20.09 40, 0 40 M0 40 C0 24.68, 0 9.36, 0 0 M0 40 C0 29.09, 0 18.17, 0 0" stroke="#000000" stroke-width="1" fill="none"></path></g><g stroke-linecap="round" transform="translate(470 310) rotate(360 20 20)"><path d="M0 0 L40 0 L40 40 L0 40" stroke="none" stroke-width="0" fill="#82c91e"></path><path d="M0 0 C8.05 0, 16.11 0, 40 0 M0 0 C15.57 0, 31.15 0, 40 0 M40 0 C40 10.81, 40 21.62, 40 40 M40 0 C40 9.4, 40 18.8, 40 40 M40 40 C24.83 40, 9.66 40, 0 40 M40 40 C28.2 40, 16.4 40, 0 40 M0 40 C0 24.09, 0 8.18, 0 0 M0 40 C0 25.13, 0 10.26, 0 0" stroke="#000000" stroke-width="1" fill="none"></path></g><g stroke-linecap="round" transform="translate(230 350.0000000000109) rotate(629.9999999999999 20 20)"><path d="M0 0 C13.81 0, 27.61 0, 40 0 M0 0 C14.44 0, 28.87 0, 40 0 M40 0 C40 8.05, 40 16.09, 40 40 M40 0 C40 10.76, 40 21.52, 40 40 M40 40 C29.23 40, 18.46 40, 0 40 M40 40 C31.94 40, 23.87 40, 0 40 M0 40 C0 30.11, 0 20.23, 0 0 M0 40 C0 29.89, 0 19.77, 0 0" stroke="#000000" stroke-width="1" fill="none"></path></g><g stroke-linecap="round" transform="translate(269.9999999999982 350.00000000000546) rotate(629.9999999999999 20 20)"><path d="M0 0 C8.81 0, 17.63 0, 40 0 M0 0 C15.62 0, 31.24 0, 40 0 M40 0 C40 11.26, 40 22.51, 40 40 M40 0 C40 12.65, 40 25.29, 40 40 M40 40 C27.81 40, 15.61 40, 0 40 M40 40 C24.51 40, 9.02 40, 0 40 M0 40 C0 30.3, 0 20.6, 0 0 M0 40 C0 31.17, 0 22.34, 0 0" stroke="#000000" stroke-width="1" fill="none"></path></g><g stroke-linecap="round" transform="translate(309.9999999999982 350.0000000000109) rotate(629.9999999999999 20 20)"><path d="M0 0 C11.18 0, 22.35 0, 40 0 M0 0 C12.85 0, 25.7 0, 40 0 M40 0 C40 14.81, 40 29.61, 40 40 M40 0 C40 11.55, 40 23.11, 40 40 M40 40 C25.38 40, 10.76 40, 0 40 M40 40 C26.92 40, 13.84 40, 0 40 M0 40 C0 27.13, 0 14.26, 0 0 M0 40 C0 31.01, 0 22.01, 0 0" stroke="#000000" stroke-width="1" fill="none"></path></g><g stroke-linecap="round" transform="translate(350 350.0000000000073) rotate(629.9999999999999 20 20)"><path d="M0 0 C14.17 0, 28.34 0, 40 0 M0 0 C10.81 0, 21.62 0, 40 0 M40 0 C40 8.58, 40 17.15, 40 40 M40 0 C40 13.67, 40 27.33, 40 40 M40 40 C24.76 40, 9.52 40, 0 40 M40 40 C25.66 40, 11.32 40, 0 40 M0 40 C0 29.72, 0 19.45, 0 0 M0 40 C0 28.66, 0 17.31, 0 0" stroke="#000000" stroke-width="1" fill="none"></path></g><g stroke-linecap="round" transform="translate(390.0000000000018 350.0000000000073) rotate(629.9999999999999 20 20)"><path d="M0 0 C13.66 0, 27.33 0, 40 0 M0 0 C13.62 0, 27.25 0, 40 0 M40 0 C40 9.7, 40 19.4, 40 40 M40 0 C40 11.84, 40 23.69, 40 40 M40 40 C30.37 40, 20.74 40, 0 40 M40 40 C30.9 40, 21.8 40, 0 40 M0 40 C0 28.71, 0 17.41, 0 0 M0 40 C0 24.5, 0 9, 0 0" stroke="#000000" stroke-width="1" fill="none"></path></g><g stroke-linecap="round" transform="translate(429.9999999999982 350.00000000000364) rotate(629.9999999999999 20 20)"><path d="M0 0 C9.74 0, 19.47 0, 40 0 M0 0 C13.75 0, 27.5 0, 40 0 M40 0 C40 11.99, 40 23.98, 40 40 M40 0 C40 12.34, 40 24.69, 40 40 M40 40 C26.63 40, 13.25 40, 0 40 M40 40 C28.74 40, 17.48 40, 0 40 M0 40 C0 25.2, 0 10.4, 0 0 M0 40 C0 27.9, 0 15.79, 0 0" stroke="#000000" stroke-width="1" fill="none"></path></g><g stroke-linecap="round" transform="translate(470.0000000000018 350.0000000000018) rotate(629.9999999999999 20 20)"><path d="M0 0 C10.03 0, 20.07 0, 40 0 M0 0 C10.95 0, 21.9 0, 40 0 M40 0 C40 12.51, 40 25.03, 40 40 M40 0 C40 9.92, 40 19.85, 40 40 M40 40 C25.64 40, 11.28 40, 0 40 M40 40 C29.23 40, 18.46 40, 0 40 M0 40 C0 25.76, 0 11.53, 0 0 M0 40 C0 31.13, 0 22.25, 0 0" stroke="#000000" stroke-width="1" fill="none"></path></g><g stroke-linecap="round" transform="translate(510 350) rotate(629.9999999999999 20 20)"><path d="M0 0 C10.94 0, 21.87 0, 40 0 M0 0 C15.88 0, 31.76 0, 40 0 M40 0 C40 9.26, 40 18.52, 40 40 M40 0 C40 10.64, 40 21.28, 40 40 M40 40 C29.03 40, 18.06 40, 0 40 M40 40 C29.51 40, 19.02 40, 0 40 M0 40 C0 31.5, 0 22.99, 0 0 M0 40 C0 30.64, 0 21.27, 0 0" stroke="#000000" stroke-width="1" fill="none"></path></g><g stroke-linecap="round" transform="translate(510 350) rotate(719.9999999999995 20 20)"><path d="M0 0 L40 0 L40 40 L0 40" stroke="none" stroke-width="0" fill="#7950f2"></path><path d="M0 0 C11.12 0, 22.24 0, 40 0 M0 0 C10.33 0, 20.66 0, 40 0 M40 0 C40 8.35, 40 16.71, 40 40 M40 0 C40 12.15, 40 24.3, 40 40 M40 40 C28.07 40, 16.14 40, 0 40 M40 40 C26.46 40, 12.93 40, 0 40 M0 40 C0 29.4, 0 18.79, 0 0 M0 40 C0 30.07, 0 20.15, 0 0" stroke="#000000" stroke-width="1" fill="none"></path></g><g stroke-linecap="round" transform="translate(110 230) rotate(360 20 20)"><path d="M0 0 L40 0 L40 40 L0 40" stroke="none" stroke-width="0" fill="#fab005"></path><path d="M0 0 C13.24 0, 26.49 0, 40 0 M0 0 C9.2 0, 18.4 0, 40 0 M40 0 C40 12.98, 40 25.95, 40 40 M40 0 C40 10.33, 40 20.66, 40 40 M40 40 C30.04 40, 20.09 40, 0 40 M40 40 C24.68 40, 9.36 40, 0 40 M0 40 C0 29.09, 0 18.17, 0 0 M0 40 C0 24.3, 0 8.6, 0 0" stroke="#000000" stroke-width="1" fill="none"></path></g><g transform="translate(123.5 238.5) rotate(0 6.5 11.5)"><text x="6.5" y="19" font-family="Helvetica, Segoe UI Emoji" font-size="20px" fill="#000000" text-anchor="middle" style="white-space: pre;" direction="ltr">0</text></g><g stroke-linecap="round" transform="translate(110 270) rotate(360 20 20)"><path d="M0 0 L40 0 L40 40 L0 40" stroke="none" stroke-width="0" fill="#15aabf"></path><path d="M0 0 C14.44 0, 28.87 0, 40 0 M0 0 C8.05 0, 16.09 0, 40 0 M40 0 C40 10.76, 40 21.52, 40 40 M40 0 C40 10.77, 40 21.54, 40 40 M40 40 C31.94 40, 23.87 40, 0 40 M40 40 C30.11 40, 20.23 40, 0 40 M0 40 C0 29.89, 0 19.77, 0 0 M0 40 C0 24.25, 0 8.49, 0 0" stroke="#000000" stroke-width="1" fill="none"></path></g><g transform="translate(123.5 278.5) rotate(0 6.5 11.5)"><text x="6.5" y="19" font-family="Helvetica, Segoe UI Emoji" font-size="20px" fill="#000000" text-anchor="middle" style="white-space: pre;" direction="ltr">1</text></g><g stroke-linecap="round" transform="translate(110 310) rotate(360 20 20)"><path d="M0 0 L40 0 L40 40 L0 40" stroke="none" stroke-width="0" fill="#82c91e"></path><path d="M0 0 C12.85 0, 25.7 0, 40 0 M0 0 C14.81 0, 29.61 0, 40 0 M40 0 C40 11.55, 40 23.11, 40 40 M40 0 C40 14.62, 40 29.24, 40 40 M40 40 C26.92 40, 13.84 40, 0 40 M40 40 C27.13 40, 14.26 40, 0 40 M0 40 C0 31.01, 0 22.01, 0 0 M0 40 C0 28, 0 16, 0 0" stroke="#000000" stroke-width="1" fill="none"></path></g><g transform="translate(123.5 318.5) rotate(0 6.5 11.5)"><text x="6.5" y="19" font-family="Helvetica, Segoe UI Emoji" font-size="20px" fill="#000000" text-anchor="middle" style="white-space: pre;" direction="ltr">2</text></g><g stroke-linecap="round" transform="translate(110.00000000000017 350) rotate(719.9999999999995 20 20)"><path d="M0 0 L40 0 L40 40 L0 40" stroke="none" stroke-width="0" fill="#7950f2"></path><path d="M0 0 C13.62 0, 27.25 0, 40 0 M0 0 C9.7 0, 19.4 0, 40 0 M40 0 C40 11.84, 40 23.69, 40 40 M40 0 C40 9.63, 40 19.26, 40 40 M40 40 C30.9 40, 21.8 40, 0 40 M40 40 C28.71 40, 17.41 40, 0 40 M0 40 C0 24.5, 0 9, 0 0 M0 40 C0 25.53, 0 11.07, 0 0" stroke="#000000" stroke-width="1" fill="none"></path></g><g transform="translate(123.50000000000017 358.5) rotate(0 6.5 11.5)"><text x="6.5" y="19" font-family="Helvetica, Segoe UI Emoji" font-size="20px" fill="#000000" text-anchor="middle" style="white-space: pre;" direction="ltr">3</text></g><g stroke-linecap="round" transform="translate(230 70.00000000001091) rotate(629.9999999999999 20 20)"><path d="M0 0 C10.95 0, 21.9 0, 40 0 M0 0 C12.51 0, 25.03 0, 40 0 M40 0 C40 9.92, 40 19.85, 40 40 M40 0 C40 14.36, 40 28.72, 40 40 M40 40 C29.23 40, 18.46 40, 0 40 M40 40 C25.76 40, 11.53 40, 0 40 M0 40 C0 31.13, 0 22.25, 0 0 M0 40 C0 25.48, 0 10.97, 0 0" stroke="#000000" stroke-width="1" fill="none"></path></g><g stroke-linecap="round" transform="translate(269.9999999999982 70.00000000001273) rotate(629.9999999999999 20 20)"><path d="M0 0 C15.88 0, 31.76 0, 40 0 M0 0 C9.26 0, 18.52 0, 40 0 M40 0 C40 10.64, 40 21.28, 40 40 M40 0 C40 10.97, 40 21.94, 40 40 M40 40 C29.51 40, 19.02 40, 0 40 M40 40 C31.5 40, 22.99 40, 0 40 M0 40 C0 30.64, 0 21.27, 0 0 M0 40 C0 29.26, 0 18.53, 0 0" stroke="#000000" stroke-width="1" fill="none"></path></g><g stroke-linecap="round" transform="translate(309.9999999999982 70.00000000000728) rotate(629.9999999999999 20 20)"><path d="M0 0 C10.33 0, 20.66 0, 40 0 M0 0 C8.35 0, 16.71 0, 40 0 M40 0 C40 12.15, 40 24.3, 40 40 M40 0 C40 11.93, 40 23.86, 40 40 M40 40 C26.46 40, 12.93 40, 0 40 M40 40 C29.4 40, 18.79 40, 0 40 M0 40 C0 30.07, 0 20.15, 0 0 M0 40 C0 25.43, 0 10.85, 0 0" stroke="#000000" stroke-width="1" fill="none"></path></g><g stroke-linecap="round" transform="translate(349.9999999999982 70.00000000000546) rotate(629.9999999999999 20 20)"><path d="M0 0 C9.2 0, 18.4 0, 40 0 M0 0 C12.98 0, 25.95 0, 40 0 M40 0 C40 10.33, 40 20.66, 40 40 M40 0 C40 9.96, 40 19.91, 40 40 M40 40 C24.68 40, 9.36 40, 0 40 M40 40 C29.09 40, 18.17 40, 0 40 M0 40 C0 24.3, 0 8.6, 0 0 M0 40 C0 30.74, 0 21.48, 0 0" stroke="#000000" stroke-width="1" fill="none"></path></g><g stroke-linecap="round" transform="translate(389.9999999999982 70.00000000000455) rotate(629.9999999999999 20 20)"><path d="M0 0 C10.81 0, 21.62 0, 40 0 M0 0 C9.4 0, 18.8 0, 40 0 M40 0 C40 15.17, 40 30.34, 40 40 M40 0 C40 11.8, 40 23.6, 40 40 M40 40 C24.09 40, 8.18 40, 0 40 M40 40 C25.13 40, 10.26 40, 0 40 M0 40 C0 24.74, 0 9.48, 0 0 M0 40 C0 30.11, 0 20.22, 0 0" stroke="#000000" stroke-width="1" fill="none"></path></g><g stroke-linecap="round" transform="translate(430 70.00000000000182) rotate(629.9999999999999 20 20)"><path d="M0 0 C8.05 0, 16.09 0, 40 0 M0 0 C10.76 0, 21.52 0, 40 0 M40 0 C40 10.77, 40 21.54, 40 40 M40 0 C40 8.06, 40 16.13, 40 40 M40 40 C30.11 40, 20.23 40, 0 40 M40 40 C29.89 40, 19.77 40, 0 40 M0 40 C0 24.25, 0 8.49, 0 0 M0 40 C0 30.39, 0 20.77, 0 0" stroke="#000000" stroke-width="1" fill="none"></path></g><g stroke-linecap="round" transform="translate(469.99999999999636 70.00000000000182) rotate(629.9999999999999 20 20)"><path d="M0 0 C11.26 0, 22.51 0, 40 0 M0 0 C12.65 0, 25.29 0, 40 0 M40 0 C40 12.19, 40 24.39, 40 40 M40 0 C40 15.49, 40 30.98, 40 40 M40 40 C30.3 40, 20.6 40, 0 40 M40 40 C31.17 40, 22.34 40, 0 40 M0 40 C0 28.46, 0 16.92, 0 0 M0 40 C0 29.72, 0 19.43, 0 0" stroke="#000000" stroke-width="1" fill="none"></path></g><g stroke-linecap="round" transform="translate(509.9999999999982 70) rotate(629.9999999999999 20 20)"><path d="M0 0 C14.81 0, 29.61 0, 40 0 M0 0 C11.55 0, 23.11 0, 40 0 M40 0 C40 14.62, 40 29.24, 40 40 M40 0 C40 13.08, 40 26.16, 40 40 M40 40 C27.13 40, 14.26 40, 0 40 M40 40 C31.01 40, 22.01 40, 0 40 M0 40 C0 28, 0 16, 0 0 M0 40 C0 25.97, 0 11.93, 0 0" stroke="#000000" stroke-width="1" fill="none"></path></g><g stroke-linecap="round" transform="translate(230 70) rotate(360 20 20)"><path d="M0 0 L40 0 L40 40 L0 40" stroke="none" stroke-width="0" fill="#fab005"></path><path d="M0 0 C8.58 0, 17.15 0, 40 0 M0 0 C13.67 0, 27.33 0, 40 0 M40 0 C40 15.24, 40 30.48, 40 40 M40 0 C40 14.34, 40 28.68, 40 40 M40 40 C29.72 40, 19.45 40, 0 40 M40 40 C28.66 40, 17.31 40, 0 40 M0 40 C0 26.27, 0 12.54, 0 0 M0 40 C0 26.11, 0 12.22, 0 0" stroke="#000000" stroke-width="1" fill="none"></path></g><g stroke-linecap="round" transform="translate(230 150.00000000001364) rotate(629.9999999999999 20 20)"><path d="M0 0 C9.7 0, 19.4 0, 40 0 M0 0 C11.84 0, 23.69 0, 40 0 M40 0 C40 9.63, 40 19.26, 40 40 M40 0 C40 9.1, 40 18.2, 40 40 M40 40 C28.71 40, 17.41 40, 0 40 M40 40 C24.5 40, 9 40, 0 40 M0 40 C0 25.53, 0 11.07, 0 0 M0 40 C0 29.43, 0 18.87, 0 0" stroke="#000000" stroke-width="1" fill="none"></path></g><g stroke-linecap="round" transform="translate(270.0000000000018 150.00000000000819) rotate(629.9999999999999 20 20)"><path d="M0 0 C11.99 0, 23.98 0, 40 0 M0 0 C12.34 0, 24.69 0, 40 0 M40 0 C40 13.37, 40 26.75, 40 40 M40 0 C40 11.26, 40 22.52, 40 40 M40 40 C25.2 40, 10.4 40, 0 40 M40 40 C27.9 40, 15.79 40, 0 40 M0 40 C0 24.65, 0 9.3, 0 0 M0 40 C0 27.08, 0 14.17, 0 0" stroke="#000000" stroke-width="1" fill="none"></path></g><g stroke-linecap="round" transform="translate(310.0000000000018 150.0000000000091) rotate(629.9999999999999 20 20)"><path d="M0 0 C12.51 0, 25.03 0, 40 0 M0 0 C9.92 0, 19.85 0, 40 0 M40 0 C40 14.36, 40 28.72, 40 40 M40 0 C40 10.77, 40 21.54, 40 40 M40 40 C25.76 40, 11.53 40, 0 40 M40 40 C31.13 40, 22.25 40, 0 40 M0 40 C0 25.48, 0 10.97, 0 0 M0 40 C0 28.69, 0 17.38, 0 0" stroke="#000000" stroke-width="1" fill="none"></path></g><g stroke-linecap="round" transform="translate(350 150.00000000000455) rotate(629.9999999999999 20 20)"><path d="M0 0 C9.26 0, 18.52 0, 40 0 M0 0 C10.64 0, 21.28 0, 40 0 M40 0 C40 10.97, 40 21.94, 40 40 M40 0 C40 10.49, 40 20.98, 40 40 M40 40 C31.5 40, 22.99 40, 0 40 M40 40 C30.64 40, 21.27 40, 0 40 M0 40 C0 29.26, 0 18.53, 0 0 M0 40 C0 24.6, 0 9.21, 0 0" stroke="#000000" stroke-width="1" fill="none"></path></g><g stroke-linecap="round" transform="translate(390.00000000000364 150.00000000000637) rotate(629.9999999999999 20 20)"><path d="M0 0 C8.35 0, 16.71 0, 40 0 M0 0 C12.15 0, 24.3 0, 40 0 M40 0 C40 11.93, 40 23.86, 40 40 M40 0 C40 13.54, 40 27.07, 40 40 M40 40 C29.4 40, 18.79 40, 0 40 M40 40 C30.07 40, 20.15 40, 0 40 M0 40 C0 25.43, 0 10.85, 0 0 M0 40 C0 29.33, 0 18.66, 0 0" stroke="#000000" stroke-width="1" fill="none"></path></g><g stroke-linecap="round" transform="translate(430 150.00000000000273) rotate(629.9999999999999 20 20)"><path d="M0 0 C12.98 0, 25.95 0, 40 0 M0 0 C10.33 0, 20.66 0, 40 0 M40 0 C40 9.96, 40 19.91, 40 40 M40 0 C40 15.32, 40 30.64, 40 40 M40 40 C29.09 40, 18.17 40, 0 40 M40 40 C24.3 40, 8.6 40, 0 40 M0 40 C0 30.74, 0 21.48, 0 0 M0 40 C0 29.07, 0 18.15, 0 0" stroke="#000000" stroke-width="1" fill="none"></path></g><g stroke-linecap="round" transform="translate(470.0000000000018 150.0000000000009) rotate(629.9999999999999 20 20)"><path d="M0 0 C9.4 0, 18.8 0, 40 0 M0 0 C15.17 0, 30.34 0, 40 0 M40 0 C40 11.8, 40 23.6, 40 40 M40 0 C40 15.91, 40 31.82, 40 40 M40 40 C25.13 40, 10.26 40, 0 40 M40 40 C24.74 40, 9.48 40, 0 40 M0 40 C0 30.11, 0 20.22, 0 0 M0 40 C0 24.39, 0 8.78, 0 0" stroke="#000000" stroke-width="1" fill="none"></path></g><g stroke-linecap="round" transform="translate(510 150) rotate(629.9999999999999 20 20)"><path d="M0 0 C10.76 0, 21.52 0, 40 0 M0 0 C10.77 0, 21.54 0, 40 0 M40 0 C40 8.06, 40 16.13, 40 40 M40 0 C40 9.89, 40 19.77, 40 40 M40 40 C29.89 40, 19.77 40, 0 40 M40 40 C24.25 40, 8.49 40, 0 40 M0 40 C0 30.39, 0 20.77, 0 0 M0 40 C0 31.57, 0 23.15, 0 0" stroke="#000000" stroke-width="1" fill="none"></path></g><g stroke-linecap="round" transform="translate(310 150) rotate(360 20 20)"><path d="M0 0 L40 0 L40 40 L0 40" stroke="none" stroke-width="0" fill="#82c91e"></path><path d="M0 0 C12.65 0, 25.29 0, 40 0 M0 0 C12.19 0, 24.39 0, 40 0 M40 0 C40 15.49, 40 30.98, 40 40 M40 0 C40 9.7, 40 19.4, 40 40 M40 40 C31.17 40, 22.34 40, 0 40 M40 40 C28.46 40, 16.92 40, 0 40 M0 40 C0 29.72, 0 19.43, 0 0 M0 40 C0 28.11, 0 16.22, 0 0" stroke="#000000" stroke-width="1" fill="none"></path></g><g stroke-linecap="round" transform="translate(230 190.00000000001637) rotate(629.9999999999999 20 20)"><path d="M0 0 C11.55 0, 23.11 0, 40 0 M0 0 C14.62 0, 29.24 0, 40 0 M40 0 C40 13.08, 40 26.16, 40 40 M40 0 C40 12.87, 40 25.74, 40 40 M40 40 C31.01 40, 22.01 40, 0 40 M40 40 C28 40, 16 40, 0 40 M0 40 C0 25.97, 0 11.93, 0 0 M0 40 C0 30.11, 0 20.22, 0 0" stroke="#000000" stroke-width="1" fill="none"></path></g><g stroke-linecap="round" transform="translate(270 190.00000000001455) rotate(629.9999999999999 20 20)"><path d="M0 0 C13.67 0, 27.33 0, 40 0 M0 0 C15.24 0, 30.48 0, 40 0 M40 0 C40 14.34, 40 28.68, 40 40 M40 0 C40 10.28, 40 20.55, 40 40 M40 40 C28.66 40, 17.31 40, 0 40 M40 40 C26.27 40, 12.54 40, 0 40 M0 40 C0 26.11, 0 12.22, 0 0 M0 40 C0 29.68, 0 19.35, 0 0" stroke="#000000" stroke-width="1" fill="none"></path></g><g stroke-linecap="round" transform="translate(309.99999999999636 190.00000000000728) rotate(629.9999999999999 20 20)"><path d="M0 0 C11.84 0, 23.69 0, 40 0 M0 0 C9.63 0, 19.26 0, 40 0 M40 0 C40 9.1, 40 18.2, 40 40 M40 0 C40 11.29, 40 22.59, 40 40 M40 40 C24.5 40, 9 40, 0 40 M40 40 C25.53 40, 11.07 40, 0 40 M0 40 C0 29.43, 0 18.87, 0 0 M0 40 C0 31.88, 0 23.76, 0 0" stroke="#000000" stroke-width="1" fill="none"></path></g><g stroke-linecap="round" transform="translate(350 190.0000000000109) rotate(629.9999999999999 20 20)"><path d="M0 0 C12.34 0, 24.69 0, 40 0 M0 0 C13.37 0, 26.75 0, 40 0 M40 0 C40 11.26, 40 22.52, 40 40 M40 0 C40 14.8, 40 29.6, 40 40 M40 40 C27.9 40, 15.79 40, 0 40 M40 40 C24.65 40, 9.3 40, 0 40 M0 40 C0 27.08, 0 14.17, 0 0 M0 40 C0 26.96, 0 13.91, 0 0" stroke="#000000" stroke-width="1" fill="none"></path></g><g stroke-linecap="round" transform="translate(390 190.0000000000091) rotate(629.9999999999999 20 20)"><path d="M0 0 C9.92 0, 19.85 0, 40 0 M0 0 C14.36 0, 28.72 0, 40 0 M40 0 C40 10.77, 40 21.54, 40 40 M40 0 C40 14.24, 40 28.47, 40 40 M40 40 C31.13 40, 22.25 40, 0 40 M40 40 C25.48 40, 10.97 40, 0 40 M0 40 C0 28.69, 0 17.38, 0 0 M0 40 C0 31.5, 0 22.99, 0 0" stroke="#000000" stroke-width="1" fill="none"></path></g><g stroke-linecap="round" transform="translate(430 190.00000000000546) rotate(629.9999999999999 20 20)"><path d="M0 0 C10.64 0, 21.28 0, 40 0 M0 0 C10.97 0, 21.94 0, 40 0 M40 0 C40 10.49, 40 20.98, 40 40 M40 0 C40 8.5, 40 17.01, 40 40 M40 40 C30.64 40, 21.27 40, 0 40 M40 40 C29.26 40, 18.53 40, 0 40 M0 40 C0 24.6, 0 9.21, 0 0 M0 40 C0 28.28, 0 16.56, 0 0" stroke="#000000" stroke-width="1" fill="none"></path></g><g stroke-linecap="round" transform="translate(470.0000000000018 190.00000000000364) rotate(629.9999999999999 20 20)"><path d="M0 0 C12.15 0, 24.3 0, 40 0 M0 0 C11.93 0, 23.86 0, 40 0 M40 0 C40 13.54, 40 27.07, 40 40 M40 0 C40 10.6, 40 21.21, 40 40 M40 40 C30.07 40, 20.15 40, 0 40 M40 40 C25.43 40, 10.85 40, 0 40 M0 40 C0 29.33, 0 18.66, 0 0 M0 40 C0 29.26, 0 18.52, 0 0" stroke="#000000" stroke-width="1" fill="none"></path></g><g stroke-linecap="round" transform="translate(509.9999999999982 190) rotate(629.9999999999999 20 20)"><path d="M0 0 C10.33 0, 20.66 0, 40 0 M0 0 C9.96 0, 19.91 0, 40 0 M40 0 C40 15.32, 40 30.64, 40 40 M40 0 C40 10.91, 40 21.83, 40 40 M40 40 C24.3 40, 8.6 40, 0 40 M40 40 C30.74 40, 21.48 40, 0 40 M0 40 C0 29.07, 0 18.15, 0 0 M0 40 C0 30.16, 0 20.31, 0 0" stroke="#000000" stroke-width="1" fill="none"></path></g><g stroke-linecap="round" transform="translate(350 190) rotate(360 20 20)"><path d="M0 0 L40 0 L40 40 L0 40" stroke="none" stroke-width="0" fill="#7950f2"></path><path d="M0 0 C15.17 0, 30.34 0, 40 0 M0 0 C11.8 0, 23.6 0, 40 0 M40 0 C40 15.91, 40 31.82, 40 40 M40 0 C40 14.87, 40 29.74, 40 40 M40 40 C24.74 40, 9.48 40, 0 40 M40 40 C30.11 40, 20.22 40, 0 40 M0 40 C0 24.39, 0 8.78, 0 0 M0 40 C0 25.4, 0 10.8, 0 0" stroke="#000000" stroke-width="1" fill="none"></path></g><g stroke-linecap="round" transform="translate(110 70) rotate(360 20 20)"><path d="M0 0 L40 0 L40 40 L0 40" stroke="none" stroke-width="0" fill="#fab005"></path><path d="M0 0 C10.77 0, 21.54 0, 40 0 M0 0 C8.06 0, 16.13 0, 40 0 M40 0 C40 9.89, 40 19.77, 40 40 M40 0 C40 10.11, 40 20.23, 40 40 M40 40 C24.25 40, 8.49 40, 0 40 M40 40 C30.39 40, 20.77 40, 0 40 M0 40 C0 31.57, 0 23.15, 0 0 M0 40 C0 27.05, 0 14.11, 0 0" stroke="#000000" stroke-width="1" fill="none"></path></g><g transform="translate(122.5 78.5) rotate(0 7.5 11.5)"><text x="7.5" y="19" font-family="Helvetica, Segoe UI Emoji" font-size="20px" fill="#000000" text-anchor="middle" style="white-space: pre;" direction="ltr">A</text></g><g stroke-linecap="round" transform="translate(230 110.00000000001) rotate(629.9999999999999 20 20)"><path d="M0 0 C14.62 0, 29.24 0, 40 0 M0 0 C13.08 0, 26.16 0, 40 0 M40 0 C40 12.87, 40 25.74, 40 40 M40 0 C40 8.99, 40 17.99, 40 40 M40 40 C28 40, 16 40, 0 40 M40 40 C25.97 40, 11.93 40, 0 40 M0 40 C0 30.11, 0 20.22, 0 0 M0 40 C0 29.13, 0 18.26, 0 0" stroke="#000000" stroke-width="1" fill="none"></path></g><g stroke-linecap="round" transform="translate(270.00000000000364 110.00000000000637) rotate(629.9999999999999 20 20)"><path d="M0 0 C15.24 0, 30.48 0, 40 0 M0 0 C14.34 0, 28.68 0, 40 0 M40 0 C40 10.28, 40 20.55, 40 40 M40 0 C40 11.34, 40 22.69, 40 40 M40 40 C26.27 40, 12.54 40, 0 40 M40 40 C26.11 40, 12.22 40, 0 40 M0 40 C0 29.68, 0 19.35, 0 0 M0 40 C0 26.88, 0 13.75, 0 0" stroke="#000000" stroke-width="1" fill="none"></path></g><g stroke-linecap="round" transform="translate(310.0000000000018 110.00000000000819) rotate(629.9999999999999 20 20)"><path d="M0 0 C9.63 0, 19.26 0, 40 0 M0 0 C9.1 0, 18.2 0, 40 0 M40 0 C40 11.29, 40 22.59, 40 40 M40 0 C40 15.5, 40 31, 40 40 M40 40 C25.53 40, 11.07 40, 0 40 M40 40 C29.43 40, 18.87 40, 0 40 M0 40 C0 31.88, 0 23.76, 0 0 M0 40 C0 31.99, 0 23.98, 0 0" stroke="#000000" stroke-width="1" fill="none"></path></g><g stroke-linecap="round" transform="translate(350.0000000000018 110.00000000001) rotate(629.9999999999999 20 20)"><path d="M0 0 C13.37 0, 26.75 0, 40 0 M0 0 C11.26 0, 22.52 0, 40 0 M40 0 C40 14.8, 40 29.6, 40 40 M40 0 C40 12.1, 40 24.21, 40 40 M40 40 C24.65 40, 9.3 40, 0 40 M40 40 C27.08 40, 14.17 40, 0 40 M0 40 C0 26.96, 0 13.91, 0 0 M0 40 C0 28.56, 0 17.13, 0 0" stroke="#000000" stroke-width="1" fill="none"></path></g><g stroke-linecap="round" transform="translate(390 110.00000000000455) rotate(629.9999999999999 20 20)"><path d="M0 0 C14.36 0, 28.72 0, 40 0 M0 0 C10.77 0, 21.54 0, 40 0 M40 0 C40 14.24, 40 28.47, 40 40 M40 0 C40 8.87, 40 17.75, 40 40 M40 40 C25.48 40, 10.97 40, 0 40 M40 40 C28.69 40, 17.38 40, 0 40 M0 40 C0 31.5, 0 22.99, 0 0 M0 40 C0 26.43, 0 12.85, 0 0" stroke="#000000" stroke-width="1" fill="none"></path></g><g stroke-linecap="round" transform="translate(430 110.00000000000455) rotate(629.9999999999999 20 20)"><path d="M0 0 C10.97 0, 21.94 0, 40 0 M0 0 C10.49 0, 20.98 0, 40 0 M40 0 C40 8.5, 40 17.01, 40 40 M40 0 C40 9.36, 40 18.73, 40 40 M40 40 C29.26 40, 18.53 40, 0 40 M40 40 C24.6 40, 9.21 40, 0 40 M0 40 C0 28.28, 0 16.56, 0 0 M0 40 C0 25.84, 0 11.68, 0 0" stroke="#000000" stroke-width="1" fill="none"></path></g><g stroke-linecap="round" transform="translate(470 110) rotate(629.9999999999999 20 20)"><path d="M0 0 C11.93 0, 23.86 0, 40 0 M0 0 C13.54 0, 27.07 0, 40 0 M40 0 C40 10.6, 40 21.21, 40 40 M40 0 C40 9.93, 40 19.85, 40 40 M40 40 C25.43 40, 10.85 40, 0 40 M40 40 C29.33 40, 18.66 40, 0 40 M0 40 C0 29.26, 0 18.52, 0 0 M0 40 C0 24.19, 0 8.37, 0 0" stroke="#000000" stroke-width="1" fill="none"></path></g><g stroke-linecap="round" transform="translate(510.0000000000018 110) rotate(629.9999999999999 20 20)"><path d="M0 0 C9.96 0, 19.91 0, 40 0 M0 0 C15.32 0, 30.64 0, 40 0 M40 0 C40 10.91, 40 21.83, 40 40 M40 0 C40 15.7, 40 31.4, 40 40 M40 40 C30.74 40, 21.48 40, 0 40 M40 40 C29.07 40, 18.15 40, 0 40 M0 40 C0 30.16, 0 20.31, 0 0 M0 40 C0 28.33, 0 16.67, 0 0" stroke="#000000" stroke-width="1" fill="none"></path></g><g stroke-linecap="round" transform="translate(270 110) rotate(360 20 20)"><path d="M0 0 L40 0 L40 40 L0 40" stroke="none" stroke-width="0" fill="#15aabf"></path><path d="M0 0 C11.8 0, 23.6 0, 40 0 M0 0 C15.91 0, 31.82 0, 40 0 M40 0 C40 14.87, 40 29.74, 40 40 M40 0 C40 15.26, 40 30.52, 40 40 M40 40 C30.11 40, 20.22 40, 0 40 M40 40 C24.39 40, 8.78 40, 0 40 M0 40 C0 25.4, 0 10.8, 0 0 M0 40 C0 27.71, 0 15.42, 0 0" stroke="#000000" stroke-width="1" fill="none"></path></g><g stroke-linecap="round" transform="translate(110 110) rotate(360 20 20)"><path d="M0 0 L40 0 L40 40 L0 40" stroke="none" stroke-width="0" fill="#15aabf"></path><path d="M0 0 C8.06 0, 16.13 0, 40 0 M0 0 C9.89 0, 19.77 0, 40 0 M40 0 C40 10.11, 40 20.23, 40 40 M40 0 C40 15.75, 40 31.51, 40 40 M40 40 C30.39 40, 20.77 40, 0 40 M40 40 C31.57 40, 23.15 40, 0 40 M0 40 C0 27.05, 0 14.11, 0 0 M0 40 C0 27.1, 0 14.2, 0 0" stroke="#000000" stroke-width="1" fill="none"></path></g><g transform="translate(122.5 118.5) rotate(0 7.5 11.5)"><text x="7.5" y="19" font-family="Helvetica, Segoe UI Emoji" font-size="20px" fill="#000000" text-anchor="middle" style="white-space: pre;" direction="ltr">B</text></g><g stroke-linecap="round" transform="translate(110 150) rotate(360 20 20)"><path d="M0 0 L40 0 L40 40 L0 40" stroke="none" stroke-width="0" fill="#82c91e"></path><path d="M0 0 C13.08 0, 26.16 0, 40 0 M0 0 C12.87 0, 25.74 0, 40 0 M40 0 C40 8.99, 40 17.99, 40 40 M40 0 C40 12, 40 24, 40 40 M40 40 C25.97 40, 11.93 40, 0 40 M40 40 C30.11 40, 20.22 40, 0 40 M0 40 C0 29.13, 0 18.26, 0 0 M0 40 C0 28.87, 0 17.75, 0 0" stroke="#000000" stroke-width="1" fill="none"></path></g><g transform="translate(122 158.5) rotate(0 8 11.5)"><text x="8" y="19" font-family="Helvetica, Segoe UI Emoji" font-size="20px" fill="#000000" text-anchor="middle" style="white-space: pre;" direction="ltr">C</text></g><g stroke-linecap="round" transform="translate(110 190) rotate(360 20 20)"><path d="M0 0 L40 0 L40 40 L0 40" stroke="none" stroke-width="0" fill="#7950f2"></path><path d="M0 0 C9.1 0, 18.2 0, 40 0 M0 0 C11.29 0, 22.59 0, 40 0 M40 0 C40 15.5, 40 31, 40 40 M40 0 C40 14.47, 40 28.93, 40 40 M40 40 C29.43 40, 18.87 40, 0 40 M40 40 C31.88 40, 23.76 40, 0 40 M0 40 C0 31.99, 0 23.98, 0 0 M0 40 C0 26.32, 0 12.65, 0 0" stroke="#000000" stroke-width="1" fill="none"></path></g><g transform="translate(122 198.5) rotate(0 8 11.5)"><text x="8" y="19" font-family="Helvetica, Segoe UI Emoji" font-size="20px" fill="#000000" text-anchor="middle" style="white-space: pre;" direction="ltr">D</text></g><g transform="translate(-1.5 121.5) rotate(270 53.5 22)"><text x="0" y="35" font-family="Cascadia, Segoe UI Emoji" font-size="36px" fill="#000000" text-anchor="start" style="white-space: pre;" direction="ltr">Keys </text></g><g transform="translate(-12.5 292.5) rotate(270 64.5 22)"><text x="0" y="35" font-family="Cascadia, Segoe UI Emoji" font-size="36px" fill="#000000" text-anchor="start" style="white-space: pre;" direction="ltr">Values</text></g><g transform="translate(170 70) rotate(0 20 19.5)"><text x="0" y="32" font-family="Cascadia, Segoe UI Emoji" font-size="32.72727272727272px" fill="#000000" text-anchor="start" style="white-space: pre;" direction="ltr">-&gt;</text></g><g transform="translate(170 110) rotate(0 20 19.5)"><text x="0" y="32" font-family="Cascadia, Segoe UI Emoji" font-size="32.72727272727272px" fill="#000000" text-anchor="start" style="white-space: pre;" direction="ltr">-&gt;</text></g><g transform="translate(170 150) rotate(0 20 19.5)"><text x="0" y="32" font-family="Cascadia, Segoe UI Emoji" font-size="32.72727272727272px" fill="#000000" text-anchor="start" style="white-space: pre;" direction="ltr">-&gt;</text></g><g transform="translate(170 190) rotate(0 20 19.5)"><text x="0" y="32" font-family="Cascadia, Segoe UI Emoji" font-size="32.72727272727272px" fill="#000000" text-anchor="start" style="white-space: pre;" direction="ltr">-&gt;</text></g><g transform="translate(170 230) rotate(0 20 19.5)"><text x="0" y="32" font-family="Cascadia, Segoe UI Emoji" font-size="32.72727272727272px" fill="#000000" text-anchor="start" style="white-space: pre;" direction="ltr">-&gt;</text></g><g transform="translate(170 270) rotate(0 20 19.5)"><text x="0" y="32" font-family="Cascadia, Segoe UI Emoji" font-size="32.72727272727272px" fill="#000000" text-anchor="start" style="white-space: pre;" direction="ltr">-&gt;</text></g><g transform="translate(170 310) rotate(0 20 19.5)"><text x="0" y="32" font-family="Cascadia, Segoe UI Emoji" font-size="32.72727272727272px" fill="#000000" text-anchor="start" style="white-space: pre;" direction="ltr">-&gt;</text></g><g transform="translate(170 350) rotate(0 20 19.5)"><text x="0" y="32" font-family="Cascadia, Segoe UI Emoji" font-size="32.72727272727272px" fill="#000000" text-anchor="start" style="white-space: pre;" direction="ltr">-&gt;</text></g><g stroke-linecap="round"><g stroke-opacity="0.4" fill-opacity="0.4" transform="translate(90 230) rotate(0 -40 0)"><path d="M0 0 C-30.62 0, -61.23 0, -80 0" stroke="#000000" stroke-width="1.5" fill="none" stroke-dasharray="1.5 7"></path></g></g><mask></mask><g transform="translate(750 10) rotate(0 117 22)"><text x="0" y="35" font-family="Cascadia, Segoe UI Emoji" font-size="36px" fill="#000000" text-anchor="start" style="white-space: pre;" direction="ltr">W_Q and W_K</text></g><g stroke-linecap="round" transform="translate(690 70) rotate(0 20 20)"><path d="M0 0 L40 0 L40 40 L0 40" stroke="none" stroke-width="0" fill="#fab005"></path><path d="M0 0 C14.97 0, 29.93 0, 40 0 M0 0 C14.18 0, 28.36 0, 40 0 M40 0 C40 14.57, 40 29.14, 40 40 M40 0 C40 12.31, 40 24.62, 40 40 M40 40 C27.58 40, 15.15 40, 0 40 M40 40 C25.42 40, 10.84 40, 0 40 M0 40 C0 28.56, 0 17.11, 0 0 M0 40 C0 29.15, 0 18.29, 0 0" stroke="#000000" stroke-width="1" fill="none"></path></g><g stroke-linecap="round" transform="translate(730 70) rotate(0 20 20)"><path d="M0 0 L40 0 L40 40 L0 40" stroke="none" stroke-width="0" fill="#fab005"></path><path d="M0 0 C8.55 0, 17.09 0, 40 0 M0 0 C15.72 0, 31.45 0, 40 0 M40 0 C40 12.95, 40 25.91, 40 40 M40 0 C40 13.91, 40 27.82, 40 40 M40 40 C29.82 40, 19.65 40, 0 40 M40 40 C30.88 40, 21.75 40, 0 40 M0 40 C0 31.89, 0 23.78, 0 0 M0 40 C0 29.1, 0 18.2, 0 0" stroke="#000000" stroke-width="1" fill="none"></path></g><g stroke-linecap="round" transform="translate(770 70) rotate(0 20 20)"><path d="M0 0 C13.55 0, 27.09 0, 40 0 M0 0 C11.01 0, 22.01 0, 40 0 M40 0 C40 13.42, 40 26.85, 40 40 M40 0 C40 13.98, 40 27.96, 40 40 M40 40 C28.22 40, 16.44 40, 0 40 M40 40 C29.54 40, 19.08 40, 0 40 M0 40 C0 31.93, 0 23.87, 0 0 M0 40 C0 27.17, 0 14.35, 0 0" stroke="#495057" stroke-width="1" fill="none"></path></g><g stroke-linecap="round" transform="translate(810 70) rotate(0 20 20)"><path d="M0 0 C13.45 0, 26.9 0, 40 0 M0 0 C13.14 0, 26.27 0, 40 0 M40 0 C40 15.75, 40 31.5, 40 40 M40 0 C40 9.13, 40 18.25, 40 40 M40 40 C31.19 40, 22.38 40, 0 40 M40 40 C30.74 40, 21.48 40, 0 40 M0 40 C0 25.83, 0 11.66, 0 0 M0 40 C0 24.62, 0 9.25, 0 0" stroke="#495057" stroke-width="1" fill="none"></path></g><g stroke-linecap="round" transform="translate(850 70) rotate(0 20 20)"><path d="M0 0 C8.07 0, 16.14 0, 40 0 M0 0 C8.08 0, 16.17 0, 40 0 M40 0 C40 9.35, 40 18.7, 40 40 M40 0 C40 9.29, 40 18.59, 40 40 M40 40 C24.55 40, 9.09 40, 0 40 M40 40 C27.57 40, 15.14 40, 0 40 M0 40 C0 26.99, 0 13.98, 0 0 M0 40 C0 28.22, 0 16.45, 0 0" stroke="#495057" stroke-width="1" fill="none"></path></g><g stroke-linecap="round" transform="translate(890 70) rotate(0 20 20)"><path d="M0 0 C12.8 0, 25.59 0, 40 0 M0 0 C14.73 0, 29.45 0, 40 0 M40 0 C40 15.62, 40 31.25, 40 40 M40 0 C40 15.34, 40 30.67, 40 40 M40 40 C24.41 40, 8.81 40, 0 40 M40 40 C27.41 40, 14.82 40, 0 40 M0 40 C0 28.73, 0 17.47, 0 0 M0 40 C0 24.76, 0 9.52, 0 0" stroke="#495057" stroke-width="1" fill="none"></path></g><g stroke-linecap="round" transform="translate(930 70) rotate(0 20 20)"><path d="M0 0 C9.26 0, 18.53 0, 40 0 M0 0 C15.48 0, 30.96 0, 40 0 M40 0 C40 8.95, 40 17.9, 40 40 M40 0 C40 16, 40 31.99, 40 40 M40 40 C26.19 40, 12.37 40, 0 40 M40 40 C27.95 40, 15.91 40, 0 40 M0 40 C0 31.72, 0 23.44, 0 0 M0 40 C0 24.82, 0 9.64, 0 0" stroke="#495057" stroke-width="1" fill="none"></path></g><g stroke-linecap="round" transform="translate(970 70) rotate(0 20 20)"><path d="M0 0 C10.89 0, 21.78 0, 40 0 M0 0 C11.3 0, 22.6 0, 40 0 M40 0 C40 8.68, 40 17.37, 40 40 M40 0 C40 12.98, 40 25.97, 40 40 M40 40 C27.44 40, 14.87 40, 0 40 M40 40 C30.94 40, 21.88 40, 0 40 M0 40 C0 26.52, 0 13.04, 0 0 M0 40 C0 30.16, 0 20.33, 0 0" stroke="#495057" stroke-width="1" fill="none"></path></g><g stroke-linecap="round" transform="translate(770 110) rotate(0 20 20)"><path d="M0 0 L40 0 L40 40 L0 40" stroke="none" stroke-width="0" fill="#15aabf"></path><path d="M0 0 C12.01 0, 24.02 0, 40 0 M0 0 C13.8 0, 27.59 0, 40 0 M40 0 C40 14.62, 40 29.23, 40 40 M40 0 C40 8.74, 40 17.47, 40 40 M40 40 C31.36 40, 22.72 40, 0 40 M40 40 C27.87 40, 15.75 40, 0 40 M0 40 C0 25.08, 0 10.16, 0 0 M0 40 C0 27.84, 0 15.68, 0 0" stroke="#000000" stroke-width="1" fill="none"></path></g><g stroke-linecap="round" transform="translate(810 110) rotate(0 20 20)"><path d="M0 0 L40 0 L40 40 L0 40" stroke="none" stroke-width="0" fill="#15aabf"></path><path d="M0 0 C14.94 0, 29.87 0, 40 0 M0 0 C15.08 0, 30.16 0, 40 0 M40 0 C40 8.32, 40 16.63, 40 40 M40 0 C40 15.55, 40 31.1, 40 40 M40 40 C30.6 40, 21.19 40, 0 40 M40 40 C26.7 40, 13.41 40, 0 40 M0 40 C0 27.08, 0 14.16, 0 0 M0 40 C0 29.21, 0 18.42, 0 0" stroke="#000000" stroke-width="1" fill="none"></path></g><g stroke-linecap="round" transform="translate(850 110) rotate(0 20 20)"><path d="M0 0 C14.22 0, 28.44 0, 40 0 M0 0 C9.28 0, 18.56 0, 40 0 M40 0 C40 15.41, 40 30.82, 40 40 M40 0 C40 10.19, 40 20.37, 40 40 M40 40 C32 40, 23.99 40, 0 40 M40 40 C30.1 40, 20.21 40, 0 40 M0 40 C0 28.12, 0 16.24, 0 0 M0 40 C0 31.38, 0 22.76, 0 0" stroke="#495057" stroke-width="1" fill="none"></path></g><g stroke-linecap="round" transform="translate(890 110) rotate(0 20 20)"><path d="M0 0 C14.18 0, 28.36 0, 40 0 M0 0 C14.57 0, 29.14 0, 40 0 M40 0 C40 12.31, 40 24.62, 40 40 M40 0 C40 12.42, 40 24.85, 40 40 M40 40 C25.42 40, 10.84 40, 0 40 M40 40 C28.56 40, 17.11 40, 0 40 M0 40 C0 29.15, 0 18.29, 0 0 M0 40 C0 31.11, 0 22.22, 0 0" stroke="#495057" stroke-width="1" fill="none"></path></g><g stroke-linecap="round" transform="translate(930 110) rotate(0 20 20)"><path d="M0 0 C15.72 0, 31.45 0, 40 0 M0 0 C12.95 0, 25.91 0, 40 0 M40 0 C40 13.91, 40 27.82, 40 40 M40 0 C40 10.18, 40 20.35, 40 40 M40 40 C30.88 40, 21.75 40, 0 40 M40 40 C31.89 40, 23.78 40, 0 40 M0 40 C0 29.1, 0 18.2, 0 0 M0 40 C0 29.64, 0 19.28, 0 0" stroke="#495057" stroke-width="1" fill="none"></path></g><g stroke-linecap="round" transform="translate(970 110) rotate(0 20 20)"><path d="M0 0 C11.01 0, 22.01 0, 40 0 M0 0 C13.42 0, 26.85 0, 40 0 M40 0 C40 13.98, 40 27.96, 40 40 M40 0 C40 11.78, 40 23.56, 40 40 M40 40 C29.54 40, 19.08 40, 0 40 M40 40 C31.93 40, 23.87 40, 0 40 M0 40 C0 27.17, 0 14.35, 0 0 M0 40 C0 31.04, 0 22.07, 0 0" stroke="#495057" stroke-width="1" fill="none"></path></g><g stroke-linecap="round" transform="translate(690 110) rotate(0 20 20)"><path d="M0 0 C13.14 0, 26.27 0, 40 0 M0 0 C15.75 0, 31.5 0, 40 0 M40 0 C40 9.13, 40 18.25, 40 40 M40 0 C40 8.81, 40 17.62, 40 40 M40 40 C30.74 40, 21.48 40, 0 40 M40 40 C25.83 40, 11.66 40, 0 40 M0 40 C0 24.62, 0 9.25, 0 0 M0 40 C0 29.79, 0 19.57, 0 0" stroke="#495057" stroke-width="1" fill="none"></path></g><g stroke-linecap="round" transform="translate(730 110) rotate(0 20 20)"><path d="M0 0 C8.08 0, 16.17 0, 40 0 M0 0 C9.35 0, 18.7 0, 40 0 M40 0 C40 9.29, 40 18.59, 40 40 M40 0 C40 15.45, 40 30.91, 40 40 M40 40 C27.57 40, 15.14 40, 0 40 M40 40 C26.99 40, 13.98 40, 0 40 M0 40 C0 28.22, 0 16.45, 0 0 M0 40 C0 27.26, 0 14.52, 0 0" stroke="#495057" stroke-width="1" fill="none"></path></g><g stroke-linecap="round" transform="translate(850 150) rotate(0 20 20)"><path d="M0 0 L40 0 L40 40 L0 40" stroke="none" stroke-width="0" fill="#82c91e"></path><path d="M0 0 C14.73 0, 29.45 0, 40 0 M0 0 C15.62 0, 31.25 0, 40 0 M40 0 C40 15.34, 40 30.67, 40 40 M40 0 C40 15.59, 40 31.19, 40 40 M40 40 C27.41 40, 14.82 40, 0 40 M40 40 C28.73 40, 17.47 40, 0 40 M0 40 C0 24.76, 0 9.52, 0 0 M0 40 C0 28.84, 0 17.67, 0 0" stroke="#000000" stroke-width="1" fill="none"></path></g><g stroke-linecap="round" transform="translate(890 150) rotate(0 20 20)"><path d="M0 0 L40 0 L40 40 L0 40" stroke="none" stroke-width="0" fill="#82c91e"></path><path d="M0 0 C15.48 0, 30.96 0, 40 0 M0 0 C8.95 0, 17.9 0, 40 0 M40 0 C40 16, 40 31.99, 40 40 M40 0 C40 13.81, 40 27.63, 40 40 M40 40 C27.95 40, 15.91 40, 0 40 M40 40 C31.72 40, 23.44 40, 0 40 M0 40 C0 24.82, 0 9.64, 0 0 M0 40 C0 26.27, 0 12.53, 0 0" stroke="#000000" stroke-width="1" fill="none"></path></g><g stroke-linecap="round" transform="translate(930 150) rotate(0 20 20)"><path d="M0 0 C11.3 0, 22.6 0, 40 0 M0 0 C8.68 0, 17.37 0, 40 0 M40 0 C40 12.98, 40 25.97, 40 40 M40 0 C40 12.56, 40 25.13, 40 40 M40 40 C30.94 40, 21.88 40, 0 40 M40 40 C26.52 40, 13.04 40, 0 40 M0 40 C0 30.16, 0 20.33, 0 0 M0 40 C0 26.53, 0 13.06, 0 0" stroke="#495057" stroke-width="1" fill="none"></path></g><g stroke-linecap="round" transform="translate(970 150) rotate(0 20 20)"><path d="M0 0 C13.8 0, 27.59 0, 40 0 M0 0 C14.62 0, 29.23 0, 40 0 M40 0 C40 8.74, 40 17.47, 40 40 M40 0 C40 8.64, 40 17.28, 40 40 M40 40 C27.87 40, 15.75 40, 0 40 M40 40 C25.08 40, 10.16 40, 0 40 M0 40 C0 27.84, 0 15.68, 0 0 M0 40 C0 27.87, 0 15.74, 0 0" stroke="#495057" stroke-width="1" fill="none"></path></g><g stroke-linecap="round" transform="translate(690 150) rotate(0 20 20)"><path d="M0 0 C15.08 0, 30.16 0, 40 0 M0 0 C8.32 0, 16.63 0, 40 0 M40 0 C40 15.55, 40 31.1, 40 40 M40 0 C40 9.4, 40 18.81, 40 40 M40 40 C26.7 40, 13.41 40, 0 40 M40 40 C27.08 40, 14.16 40, 0 40 M0 40 C0 29.21, 0 18.42, 0 0 M0 40 C0 26.2, 0 12.4, 0 0" stroke="#495057" stroke-width="1" fill="none"></path></g><g stroke-linecap="round" transform="translate(730 150) rotate(0 20 20)"><path d="M0 0 C9.28 0, 18.56 0, 40 0 M0 0 C15.41 0, 30.82 0, 40 0 M40 0 C40 10.19, 40 20.37, 40 40 M40 0 C40 8, 40 16.01, 40 40 M40 40 C30.1 40, 20.21 40, 0 40 M40 40 C28.12 40, 16.24 40, 0 40 M0 40 C0 31.38, 0 22.76, 0 0 M0 40 C0 30.36, 0 20.72, 0 0" stroke="#495057" stroke-width="1" fill="none"></path></g><g stroke-linecap="round" transform="translate(770 150) rotate(0 20 20)"><path d="M0 0 C14.57 0, 29.14 0, 40 0 M0 0 C12.31 0, 24.62 0, 40 0 M40 0 C40 12.42, 40 24.85, 40 40 M40 0 C40 14.58, 40 29.16, 40 40 M40 40 C28.56 40, 17.11 40, 0 40 M40 40 C29.15 40, 18.29 40, 0 40 M0 40 C0 31.11, 0 22.22, 0 0 M0 40 C0 31.66, 0 23.32, 0 0" stroke="#495057" stroke-width="1" fill="none"></path></g><g stroke-linecap="round" transform="translate(810 150) rotate(0 20 20)"><path d="M0 0 C12.95 0, 25.91 0, 40 0 M0 0 C13.91 0, 27.82 0, 40 0 M40 0 C40 10.18, 40 20.35, 40 40 M40 0 C40 9.12, 40 18.25, 40 40 M40 40 C31.89 40, 23.78 40, 0 40 M40 40 C29.1 40, 18.2 40, 0 40 M0 40 C0 29.64, 0 19.28, 0 0 M0 40 C0 31.61, 0 23.22, 0 0" stroke="#495057" stroke-width="1" fill="none"></path></g><g stroke-linecap="round" transform="translate(930 190) rotate(0 20 20)"><path d="M0 0 L40 0 L40 40 L0 40" stroke="none" stroke-width="0" fill="#7950f2"></path><path d="M0 0 C13.42 0, 26.85 0, 40 0 M0 0 C13.98 0, 27.96 0, 40 0 M40 0 C40 11.78, 40 23.56, 40 40 M40 0 C40 10.46, 40 20.92, 40 40 M40 40 C31.93 40, 23.87 40, 0 40 M40 40 C27.17 40, 14.35 40, 0 40 M0 40 C0 31.04, 0 22.07, 0 0 M0 40 C0 24.07, 0 8.13, 0 0" stroke="#000000" stroke-width="1" fill="none"></path></g><g stroke-linecap="round" transform="translate(970 190) rotate(0 20 20)"><path d="M0 0 L40 0 L40 40 L0 40" stroke="none" stroke-width="0" fill="#7950f2"></path><path d="M0 0 C15.75 0, 31.5 0, 40 0 M0 0 C9.13 0, 18.25 0, 40 0 M40 0 C40 8.81, 40 17.62, 40 40 M40 0 C40 9.26, 40 18.52, 40 40 M40 40 C25.83 40, 11.66 40, 0 40 M40 40 C24.62 40, 9.25 40, 0 40 M0 40 C0 29.79, 0 19.57, 0 0 M0 40 C0 26.21, 0 12.43, 0 0" stroke="#000000" stroke-width="1" fill="none"></path></g><g stroke-linecap="round" transform="translate(690 190) rotate(0 20 20)"><path d="M0 0 C9.35 0, 18.7 0, 40 0 M0 0 C9.29 0, 18.59 0, 40 0 M40 0 C40 15.45, 40 30.91, 40 40 M40 0 C40 12.43, 40 24.86, 40 40 M40 40 C26.99 40, 13.98 40, 0 40 M40 40 C28.22 40, 16.45 40, 0 40 M0 40 C0 27.26, 0 14.52, 0 0 M0 40 C0 30.8, 0 21.6, 0 0" stroke="#495057" stroke-width="1" fill="none"></path></g><g stroke-linecap="round" transform="translate(730 190) rotate(0 20 20)"><path d="M0 0 C15.62 0, 31.25 0, 40 0 M0 0 C15.34 0, 30.67 0, 40 0 M40 0 C40 15.59, 40 31.19, 40 40 M40 0 C40 12.59, 40 25.18, 40 40 M40 40 C28.73 40, 17.47 40, 0 40 M40 40 C24.76 40, 9.52 40, 0 40 M0 40 C0 28.84, 0 17.67, 0 0 M0 40 C0 30.6, 0 21.21, 0 0" stroke="#495057" stroke-width="1" fill="none"></path></g><g stroke-linecap="round" transform="translate(770 190) rotate(0 20 20)"><path d="M0 0 C8.95 0, 17.9 0, 40 0 M0 0 C16 0, 31.99 0, 40 0 M40 0 C40 13.81, 40 27.63, 40 40 M40 0 C40 12.05, 40 24.09, 40 40 M40 40 C31.72 40, 23.44 40, 0 40 M40 40 C24.82 40, 9.64 40, 0 40 M0 40 C0 26.27, 0 12.53, 0 0 M0 40 C0 30.33, 0 20.67, 0 0" stroke="#495057" stroke-width="1" fill="none"></path></g><g stroke-linecap="round" transform="translate(810 190) rotate(0 20 20)"><path d="M0 0 C8.68 0, 17.37 0, 40 0 M0 0 C12.98 0, 25.97 0, 40 0 M40 0 C40 12.56, 40 25.13, 40 40 M40 0 C40 9.06, 40 18.12, 40 40 M40 40 C26.52 40, 13.04 40, 0 40 M40 40 C30.16 40, 20.33 40, 0 40 M0 40 C0 26.53, 0 13.06, 0 0 M0 40 C0 24.17, 0 8.34, 0 0" stroke="#495057" stroke-width="1" fill="none"></path></g><g stroke-linecap="round" transform="translate(850 190) rotate(0 20 20)"><path d="M0 0 C14.62 0, 29.23 0, 40 0 M0 0 C8.74 0, 17.47 0, 40 0 M40 0 C40 8.64, 40 17.28, 40 40 M40 0 C40 12.13, 40 24.25, 40 40 M40 40 C25.08 40, 10.16 40, 0 40 M40 40 C27.84 40, 15.68 40, 0 40 M0 40 C0 27.87, 0 15.74, 0 0 M0 40 C0 29.12, 0 18.25, 0 0" stroke="#495057" stroke-width="1" fill="none"></path></g><g stroke-linecap="round" transform="translate(890 190) rotate(0 20 20)"><path d="M0 0 C8.32 0, 16.63 0, 40 0 M0 0 C15.55 0, 31.1 0, 40 0 M40 0 C40 9.4, 40 18.81, 40 40 M40 0 C40 13.3, 40 26.59, 40 40 M40 40 C27.08 40, 14.16 40, 0 40 M40 40 C29.21 40, 18.42 40, 0 40 M0 40 C0 26.2, 0 12.4, 0 0 M0 40 C0 30.4, 0 20.81, 0 0" stroke="#495057" stroke-width="1" fill="none"></path></g><g stroke-linecap="round" transform="translate(690 230) rotate(0 20 20)"><path d="M0 0 C15.41 0, 30.82 0, 40 0 M0 0 C10.19 0, 20.37 0, 40 0 M40 0 C40 8, 40 16.01, 40 40 M40 0 C40 9.9, 40 19.79, 40 40 M40 40 C28.12 40, 16.24 40, 0 40 M40 40 C31.38 40, 22.76 40, 0 40 M0 40 C0 30.36, 0 20.72, 0 0 M0 40 C0 30.46, 0 20.92, 0 0" stroke="#495057" stroke-width="1" fill="none"></path></g><g stroke-linecap="round" transform="translate(730 230) rotate(0 20 20)"><path d="M0 0 C12.31 0, 24.62 0, 40 0 M0 0 C12.42 0, 24.85 0, 40 0 M40 0 C40 14.58, 40 29.16, 40 40 M40 0 C40 11.44, 40 22.89, 40 40 M40 40 C29.15 40, 18.29 40, 0 40 M40 40 C31.11 40, 22.22 40, 0 40 M0 40 C0 31.66, 0 23.32, 0 0 M0 40 C0 26, 0 12, 0 0" stroke="#495057" stroke-width="1" fill="none"></path></g><g stroke-linecap="round" transform="translate(770 230) rotate(0 20 20)"><path d="M0 0 C13.91 0, 27.82 0, 40 0 M0 0 C10.18 0, 20.35 0, 40 0 M40 0 C40 9.12, 40 18.25, 40 40 M40 0 C40 8.11, 40 16.22, 40 40 M40 40 C29.1 40, 18.2 40, 0 40 M40 40 C29.64 40, 19.28 40, 0 40 M0 40 C0 31.61, 0 23.22, 0 0 M0 40 C0 31.37, 0 22.74, 0 0" stroke="#495057" stroke-width="1" fill="none"></path></g><g stroke-linecap="round" transform="translate(810 230) rotate(0 20 20)"><path d="M0 0 C13.98 0, 27.96 0, 40 0 M0 0 C11.78 0, 23.56 0, 40 0 M40 0 C40 10.46, 40 20.92, 40 40 M40 0 C40 8.07, 40 16.13, 40 40 M40 40 C27.17 40, 14.35 40, 0 40 M40 40 C31.04 40, 22.07 40, 0 40 M0 40 C0 24.07, 0 8.13, 0 0 M0 40 C0 30, 0 20.01, 0 0" stroke="#495057" stroke-width="1" fill="none"></path></g><g stroke-linecap="round" transform="translate(850 230) rotate(0 20 20)"><path d="M0 0 C9.13 0, 18.25 0, 40 0 M0 0 C8.81 0, 17.62 0, 40 0 M40 0 C40 9.26, 40 18.52, 40 40 M40 0 C40 14.17, 40 28.34, 40 40 M40 40 C24.62 40, 9.25 40, 0 40 M40 40 C29.79 40, 19.57 40, 0 40 M0 40 C0 26.21, 0 12.43, 0 0 M0 40 C0 31.47, 0 22.94, 0 0" stroke="#495057" stroke-width="1" fill="none"></path></g><g stroke-linecap="round" transform="translate(890 230) rotate(0 20 20)"><path d="M0 0 C9.29 0, 18.59 0, 40 0 M0 0 C15.45 0, 30.91 0, 40 0 M40 0 C40 12.43, 40 24.86, 40 40 M40 0 C40 13.01, 40 26.02, 40 40 M40 40 C28.22 40, 16.45 40, 0 40 M40 40 C27.26 40, 14.52 40, 0 40 M0 40 C0 30.8, 0 21.6, 0 0 M0 40 C0 28.92, 0 17.83, 0 0" stroke="#495057" stroke-width="1" fill="none"></path></g><g stroke-linecap="round" transform="translate(930 230) rotate(0 20 20)"><path d="M0 0 C15.34 0, 30.67 0, 40 0 M0 0 C15.59 0, 31.19 0, 40 0 M40 0 C40 12.59, 40 25.18, 40 40 M40 0 C40 11.27, 40 22.53, 40 40 M40 40 C24.76 40, 9.52 40, 0 40 M40 40 C28.84 40, 17.67 40, 0 40 M0 40 C0 30.6, 0 21.21, 0 0 M0 40 C0 29.85, 0 19.7, 0 0" stroke="#495057" stroke-width="1" fill="none"></path></g><g stroke-linecap="round" transform="translate(970 230) rotate(0 20 20)"><path d="M0 0 C16 0, 31.99 0, 40 0 M0 0 C13.81 0, 27.63 0, 40 0 M40 0 C40 12.05, 40 24.09, 40 40 M40 0 C40 8.28, 40 16.56, 40 40 M40 40 C24.82 40, 9.64 40, 0 40 M40 40 C26.27 40, 12.53 40, 0 40 M0 40 C0 30.33, 0 20.67, 0 0 M0 40 C0 25.84, 0 11.67, 0 0" stroke="#495057" stroke-width="1" fill="none"></path></g><g stroke-linecap="round" transform="translate(770 270) rotate(0 20 20)"><path d="M0 0 C12.98 0, 25.97 0, 40 0 M0 0 C12.56 0, 25.13 0, 40 0 M40 0 C40 9.06, 40 18.12, 40 40 M40 0 C40 13.48, 40 26.96, 40 40 M40 40 C30.16 40, 20.33 40, 0 40 M40 40 C26.53 40, 13.06 40, 0 40 M0 40 C0 24.17, 0 8.34, 0 0 M0 40 C0 25.95, 0 11.9, 0 0" stroke="#495057" stroke-width="1" fill="none"></path></g><g stroke-linecap="round" transform="translate(810 270) rotate(0 20 20)"><path d="M0 0 C8.74 0, 17.47 0, 40 0 M0 0 C8.64 0, 17.28 0, 40 0 M40 0 C40 12.13, 40 24.25, 40 40 M40 0 C40 14.92, 40 29.84, 40 40 M40 40 C27.84 40, 15.68 40, 0 40 M40 40 C27.87 40, 15.74 40, 0 40 M0 40 C0 29.12, 0 18.25, 0 0 M0 40 C0 29.57, 0 19.14, 0 0" stroke="#495057" stroke-width="1" fill="none"></path></g><g stroke-linecap="round" transform="translate(850 270) rotate(0 20 20)"><path d="M0 0 C15.55 0, 31.1 0, 40 0 M0 0 C9.4 0, 18.81 0, 40 0 M40 0 C40 13.3, 40 26.59, 40 40 M40 0 C40 12.92, 40 25.84, 40 40 M40 40 C29.21 40, 18.42 40, 0 40 M40 40 C26.2 40, 12.4 40, 0 40 M0 40 C0 30.4, 0 20.81, 0 0 M0 40 C0 24.43, 0 8.85, 0 0" stroke="#495057" stroke-width="1" fill="none"></path></g><g stroke-linecap="round" transform="translate(890 270) rotate(0 20 20)"><path d="M0 0 C10.19 0, 20.37 0, 40 0 M0 0 C8 0, 16.01 0, 40 0 M40 0 C40 9.9, 40 19.79, 40 40 M40 0 C40 11.88, 40 23.76, 40 40 M40 40 C31.38 40, 22.76 40, 0 40 M40 40 C30.36 40, 20.72 40, 0 40 M0 40 C0 30.46, 0 20.92, 0 0 M0 40 C0 31.77, 0 23.54, 0 0" stroke="#495057" stroke-width="1" fill="none"></path></g><g stroke-linecap="round" transform="translate(930 270) rotate(0 20 20)"><path d="M0 0 C12.42 0, 24.85 0, 40 0 M0 0 C14.58 0, 29.16 0, 40 0 M40 0 C40 11.44, 40 22.89, 40 40 M40 0 C40 10.85, 40 21.71, 40 40 M40 40 C31.11 40, 22.22 40, 0 40 M40 40 C31.66 40, 23.32 40, 0 40 M0 40 C0 26, 0 12, 0 0 M0 40 C0 28.04, 0 16.09, 0 0" stroke="#495057" stroke-width="1" fill="none"></path></g><g stroke-linecap="round" transform="translate(970 270) rotate(0 20 20)"><path d="M0 0 C10.18 0, 20.35 0, 40 0 M0 0 C9.12 0, 18.25 0, 40 0 M40 0 C40 8.11, 40 16.22, 40 40 M40 0 C40 10.9, 40 21.8, 40 40 M40 40 C29.64 40, 19.28 40, 0 40 M40 40 C31.61 40, 23.22 40, 0 40 M0 40 C0 31.37, 0 22.74, 0 0 M0 40 C0 28.04, 0 16.09, 0 0" stroke="#495057" stroke-width="1" fill="none"></path></g><g stroke-linecap="round" transform="translate(690 270) rotate(0 20 20)"><path d="M0 0 C11.78 0, 23.56 0, 40 0 M0 0 C10.46 0, 20.92 0, 40 0 M40 0 C40 8.07, 40 16.13, 40 40 M40 0 C40 12.83, 40 25.65, 40 40 M40 40 C31.04 40, 22.07 40, 0 40 M40 40 C24.07 40, 8.13 40, 0 40 M0 40 C0 30, 0 20.01, 0 0 M0 40 C0 26.53, 0 13.06, 0 0" stroke="#495057" stroke-width="1" fill="none"></path></g><g stroke-linecap="round" transform="translate(730 270) rotate(0 20 20)"><path d="M0 0 C8.81 0, 17.62 0, 40 0 M0 0 C9.26 0, 18.52 0, 40 0 M40 0 C40 14.17, 40 28.34, 40 40 M40 0 C40 15.38, 40 30.75, 40 40 M40 40 C29.79 40, 19.57 40, 0 40 M40 40 C26.21 40, 12.43 40, 0 40 M0 40 C0 31.47, 0 22.94, 0 0 M0 40 C0 27.1, 0 14.21, 0 0" stroke="#495057" stroke-width="1" fill="none"></path></g><g stroke-linecap="round" transform="translate(850 310) rotate(0 20 20)"><path d="M0 0 C15.45 0, 30.91 0, 40 0 M0 0 C12.43 0, 24.86 0, 40 0 M40 0 C40 13.01, 40 26.02, 40 40 M40 0 C40 11.78, 40 23.55, 40 40 M40 40 C27.26 40, 14.52 40, 0 40 M40 40 C30.8 40, 21.6 40, 0 40 M0 40 C0 28.92, 0 17.83, 0 0 M0 40 C0 29.46, 0 18.92, 0 0" stroke="#495057" stroke-width="1" fill="none"></path></g><g stroke-linecap="round" transform="translate(890 310) rotate(0 20 20)"><path d="M0 0 C15.59 0, 31.19 0, 40 0 M0 0 C12.59 0, 25.18 0, 40 0 M40 0 C40 11.27, 40 22.53, 40 40 M40 0 C40 15.24, 40 30.48, 40 40 M40 40 C28.84 40, 17.67 40, 0 40 M40 40 C30.6 40, 21.21 40, 0 40 M0 40 C0 29.85, 0 19.7, 0 0 M0 40 C0 31.87, 0 23.73, 0 0" stroke="#495057" stroke-width="1" fill="none"></path></g><g stroke-linecap="round" transform="translate(930 310) rotate(0 20 20)"><path d="M0 0 C13.81 0, 27.63 0, 40 0 M0 0 C12.05 0, 24.09 0, 40 0 M40 0 C40 8.28, 40 16.56, 40 40 M40 0 C40 15.18, 40 30.36, 40 40 M40 40 C26.27 40, 12.53 40, 0 40 M40 40 C30.33 40, 20.67 40, 0 40 M0 40 C0 25.84, 0 11.67, 0 0 M0 40 C0 31.14, 0 22.29, 0 0" stroke="#495057" stroke-width="1" fill="none"></path></g><g stroke-linecap="round" transform="translate(970 310) rotate(0 20 20)"><path d="M0 0 C12.56 0, 25.13 0, 40 0 M0 0 C9.06 0, 18.12 0, 40 0 M40 0 C40 13.48, 40 26.96, 40 40 M40 0 C40 9.84, 40 19.67, 40 40 M40 40 C26.53 40, 13.06 40, 0 40 M40 40 C24.17 40, 8.34 40, 0 40 M0 40 C0 25.95, 0 11.9, 0 0 M0 40 C0 24.59, 0 9.18, 0 0" stroke="#495057" stroke-width="1" fill="none"></path></g><g stroke-linecap="round" transform="translate(690 310) rotate(0 20 20)"><path d="M0 0 C8.64 0, 17.28 0, 40 0 M0 0 C12.13 0, 24.25 0, 40 0 M40 0 C40 14.92, 40 29.84, 40 40 M40 0 C40 12.16, 40 24.32, 40 40 M40 40 C27.87 40, 15.74 40, 0 40 M40 40 C29.12 40, 18.25 40, 0 40 M0 40 C0 29.57, 0 19.14, 0 0 M0 40 C0 27.48, 0 14.95, 0 0" stroke="#495057" stroke-width="1" fill="none"></path></g><g stroke-linecap="round" transform="translate(730 310) rotate(0 20 20)"><path d="M0 0 C9.4 0, 18.81 0, 40 0 M0 0 C13.3 0, 26.59 0, 40 0 M40 0 C40 12.92, 40 25.84, 40 40 M40 0 C40 10.79, 40 21.58, 40 40 M40 40 C26.2 40, 12.4 40, 0 40 M40 40 C30.4 40, 20.81 40, 0 40 M0 40 C0 24.43, 0 8.85, 0 0 M0 40 C0 28, 0 15.99, 0 0" stroke="#495057" stroke-width="1" fill="none"></path></g><g stroke-linecap="round" transform="translate(770 310) rotate(0 20 20)"><path d="M0 0 C8 0, 16.01 0, 40 0 M0 0 C9.9 0, 19.79 0, 40 0 M40 0 C40 11.88, 40 23.76, 40 40 M40 0 C40 8.62, 40 17.24, 40 40 M40 40 C30.36 40, 20.72 40, 0 40 M40 40 C30.46 40, 20.92 40, 0 40 M0 40 C0 31.77, 0 23.54, 0 0 M0 40 C0 28.83, 0 17.66, 0 0" stroke="#495057" stroke-width="1" fill="none"></path></g><g stroke-linecap="round" transform="translate(810 310) rotate(0 20 20)"><path d="M0 0 C14.58 0, 29.16 0, 40 0 M0 0 C11.44 0, 22.89 0, 40 0 M40 0 C40 10.85, 40 21.71, 40 40 M40 0 C40 8.89, 40 17.78, 40 40 M40 40 C31.66 40, 23.32 40, 0 40 M40 40 C26 40, 12 40, 0 40 M0 40 C0 28.04, 0 16.09, 0 0 M0 40 C0 26.4, 0 12.81, 0 0" stroke="#495057" stroke-width="1" fill="none"></path></g><g stroke-linecap="round" transform="translate(930 350) rotate(0 20 20)"><path d="M0 0 C9.12 0, 18.25 0, 40 0 M0 0 C8.11 0, 16.22 0, 40 0 M40 0 C40 10.9, 40 21.8, 40 40 M40 0 C40 10.36, 40 20.72, 40 40 M40 40 C31.61 40, 23.22 40, 0 40 M40 40 C31.37 40, 22.74 40, 0 40 M0 40 C0 28.04, 0 16.09, 0 0 M0 40 C0 28.92, 0 17.85, 0 0" stroke="#495057" stroke-width="1" fill="none"></path></g><g stroke-linecap="round" transform="translate(970 350) rotate(0 20 20)"><path d="M0 0 C10.46 0, 20.92 0, 40 0 M0 0 C8.07 0, 16.13 0, 40 0 M40 0 C40 12.83, 40 25.65, 40 40 M40 0 C40 8.96, 40 17.93, 40 40 M40 40 C24.07 40, 8.13 40, 0 40 M40 40 C30 40, 20.01 40, 0 40 M0 40 C0 26.53, 0 13.06, 0 0 M0 40 C0 26.84, 0 13.67, 0 0" stroke="#495057" stroke-width="1" fill="none"></path></g><g stroke-linecap="round" transform="translate(690 350) rotate(0 20 20)"><path d="M0 0 C9.26 0, 18.52 0, 40 0 M0 0 C14.17 0, 28.34 0, 40 0 M40 0 C40 15.38, 40 30.75, 40 40 M40 0 C40 10.21, 40 20.43, 40 40 M40 40 C26.21 40, 12.43 40, 0 40 M40 40 C31.47 40, 22.94 40, 0 40 M0 40 C0 27.1, 0 14.21, 0 0 M0 40 C0 25.7, 0 11.4, 0 0" stroke="#495057" stroke-width="1" fill="none"></path></g><g stroke-linecap="round" transform="translate(730 350) rotate(0 20 20)"><path d="M0 0 C12.43 0, 24.86 0, 40 0 M0 0 C13.01 0, 26.02 0, 40 0 M40 0 C40 11.78, 40 23.55, 40 40 M40 0 C40 12.74, 40 25.48, 40 40 M40 40 C30.8 40, 21.6 40, 0 40 M40 40 C28.92 40, 17.83 40, 0 40 M0 40 C0 29.46, 0 18.92, 0 0 M0 40 C0 28.16, 0 16.33, 0 0" stroke="#495057" stroke-width="1" fill="none"></path></g><g stroke-linecap="round" transform="translate(770 350) rotate(0 20 20)"><path d="M0 0 C12.59 0, 25.18 0, 40 0 M0 0 C11.27 0, 22.53 0, 40 0 M40 0 C40 15.24, 40 30.48, 40 40 M40 0 C40 11.16, 40 22.33, 40 40 M40 40 C30.6 40, 21.21 40, 0 40 M40 40 C29.85 40, 19.7 40, 0 40 M0 40 C0 31.87, 0 23.73, 0 0 M0 40 C0 30.2, 0 20.41, 0 0" stroke="#495057" stroke-width="1" fill="none"></path></g><g stroke-linecap="round" transform="translate(810 350) rotate(0 20 20)"><path d="M0 0 C12.05 0, 24.09 0, 40 0 M0 0 C8.28 0, 16.56 0, 40 0 M40 0 C40 15.18, 40 30.36, 40 40 M40 0 C40 13.73, 40 27.47, 40 40 M40 40 C30.33 40, 20.67 40, 0 40 M40 40 C25.84 40, 11.67 40, 0 40 M0 40 C0 31.14, 0 22.29, 0 0 M0 40 C0 26.22, 0 12.44, 0 0" stroke="#495057" stroke-width="1" fill="none"></path></g><g stroke-linecap="round" transform="translate(850 350) rotate(0 20 20)"><path d="M0 0 C9.06 0, 18.12 0, 40 0 M0 0 C13.48 0, 26.96 0, 40 0 M40 0 C40 9.84, 40 19.67, 40 40 M40 0 C40 13.47, 40 26.94, 40 40 M40 40 C24.17 40, 8.34 40, 0 40 M40 40 C25.95 40, 11.9 40, 0 40 M0 40 C0 24.59, 0 9.18, 0 0 M0 40 C0 31.44, 0 22.88, 0 0" stroke="#495057" stroke-width="1" fill="none"></path></g><g stroke-linecap="round" transform="translate(890 350) rotate(0 20 20)"><path d="M0 0 C12.13 0, 24.25 0, 40 0 M0 0 C14.92 0, 29.84 0, 40 0 M40 0 C40 12.16, 40 24.32, 40 40 M40 0 C40 12.13, 40 24.26, 40 40 M40 40 C29.12 40, 18.25 40, 0 40 M40 40 C29.57 40, 19.14 40, 0 40 M0 40 C0 27.48, 0 14.95, 0 0 M0 40 C0 30.93, 0 21.86, 0 0" stroke="#495057" stroke-width="1" fill="none"></path></g></svg>