<svg version="1.1" xmlns="http://www.w3.org/2000/svg" viewBox="0 0 540.0000000000018 780.0000000000109" width="540.0000000000018" height="780.0000000000109">
  <!-- svg-source:excalidraw -->
  
  <defs>
    <style class="style-fonts">
      @font-face {
        font-family: "Virgil";
        src: url("https://excalidraw.com/Virgil.woff2");
      }
      @font-face {
        font-family: "Cascadia";
        src: url("https://excalidraw.com/Cascadia.woff2");
      }
    </style>
  </defs>
  <rect x="0" y="0" width="540.0000000000018" height="780.0000000000109" fill="#ffffff"></rect><g stroke-linecap="round" transform="translate(210 610.0000000000118) rotate(629.9999999999999 20 20)"><path d="M0 0 C10.96 0, 21.91 0, 40 0 M0 0 C8.7 0, 17.39 0, 40 0 M40 0 C40 13.39, 40 26.78, 40 40 M40 0 C40 10.03, 40 20.07, 40 40 M40 40 C29.05 40, 18.1 40, 0 40 M40 40 C27.49 40, 14.97 40, 0 40 M0 40 C0 30.08, 0 20.15, 0 0 M0 40 C0 25.64, 0 11.28, 0 0" stroke="#000000" stroke-width="1" fill="none"></path></g><g stroke-linecap="round" transform="translate(250.00000000000364 610.0000000000118) rotate(629.9999999999999 20 20)"><path d="M0 0 C13.37 0, 26.73 0, 40 0 M0 0 C15.23 0, 30.46 0, 40 0 M40 0 C40 11.22, 40 22.44, 40 40 M40 0 C40 10.94, 40 21.87, 40 40 M40 40 C24.12 40, 8.24 40, 0 40 M40 40 C30.74 40, 21.48 40, 0 40 M0 40 C0 29.36, 0 18.72, 0 0 M0 40 C0 29.03, 0 18.06, 0 0" stroke="#000000" stroke-width="1" fill="none"></path></g><g stroke-linecap="round" transform="translate(290 610.0000000000082) rotate(629.9999999999999 20 20)"><path d="M0 0 C8.84 0, 17.67 0, 40 0 M0 0 C9.67 0, 19.33 0, 40 0 M40 0 C40 9.83, 40 19.66, 40 40 M40 0 C40 11.12, 40 22.24, 40 40 M40 40 C29.67 40, 19.34 40, 0 40 M40 40 C31.65 40, 23.29 40, 0 40 M0 40 C0 27.85, 0 15.7, 0 0 M0 40 C0 28.07, 0 16.14, 0 0" stroke="#000000" stroke-width="1" fill="none"></path></g><g stroke-linecap="round" transform="translate(329.9999999999982 610.0000000000118) rotate(629.9999999999999 20 20)"><path d="M0 0 C8.68 0, 17.36 0, 40 0 M0 0 C13.95 0, 27.9 0, 40 0 M40 0 C40 9.11, 40 18.22, 40 40 M40 0 C40 13.24, 40 26.49, 40 40 M40 40 C30.8 40, 21.6 40, 0 40 M40 40 C27.02 40, 14.05 40, 0 40 M0 40 C0 29.67, 0 19.34, 0 0 M0 40 C0 30.04, 0 20.09, 0 0" stroke="#000000" stroke-width="1" fill="none"></path></g><g stroke-linecap="round" transform="translate(370 610.0000000000064) rotate(629.9999999999999 20 20)"><path d="M0 0 C10.79 0, 21.58 0, 40 0 M0 0 C10.18 0, 20.35 0, 40 0 M40 0 C40 8.05, 40 16.11, 40 40 M40 0 C40 15.57, 40 31.15, 40 40 M40 40 C29.19 40, 18.38 40, 0 40 M40 40 C30.6 40, 21.2 40, 0 40 M0 40 C0 24.83, 0 9.66, 0 0 M0 40 C0 28.2, 0 16.4, 0 0" stroke="#000000" stroke-width="1" fill="none"></path></g><g stroke-linecap="round" transform="translate(410.00000000000364 610.0000000000082) rotate(629.9999999999999 20 20)"><path d="M0 0 C11.33 0, 22.67 0, 40 0 M0 0 C11.49 0, 22.99 0, 40 0 M40 0 C40 13.81, 40 27.61, 40 40 M40 0 C40 14.44, 40 28.87, 40 40 M40 40 C31.95 40, 23.91 40, 0 40 M40 40 C29.24 40, 18.48 40, 0 40 M0 40 C0 29.23, 0 18.46, 0 0 M0 40 C0 31.94, 0 23.87, 0 0" stroke="#000000" stroke-width="1" fill="none"></path></g><g stroke-linecap="round" transform="translate(450 610.0000000000009) rotate(629.9999999999999 20 20)"><path d="M0 0 C15.72 0, 31.44 0, 40 0 M0 0 C13.43 0, 26.86 0, 40 0 M40 0 C40 8.81, 40 17.63, 40 40 M40 0 C40 15.62, 40 31.24, 40 40 M40 40 C28.74 40, 17.49 40, 0 40 M40 40 C27.35 40, 14.71 40, 0 40 M0 40 C0 27.81, 0 15.61, 0 0 M0 40 C0 24.51, 0 9.02, 0 0" stroke="#000000" stroke-width="1" fill="none"></path></g><g stroke-linecap="round" transform="translate(490 610) rotate(629.9999999999999 20 20)"><path d="M0 0 C14.43 0, 28.86 0, 40 0 M0 0 C15.84 0, 31.68 0, 40 0 M40 0 C40 11.18, 40 22.35, 40 40 M40 0 C40 12.85, 40 25.7, 40 40 M40 40 C25.19 40, 10.39 40, 0 40 M40 40 C28.45 40, 16.89 40, 0 40 M0 40 C0 25.38, 0 10.76, 0 0 M0 40 C0 26.92, 0 13.84, 0 0" stroke="#000000" stroke-width="1" fill="none"></path></g><g stroke-linecap="round" transform="translate(370 610) rotate(360 20 20)"><path d="M0 0 L40 0 L40 40 L0 40" stroke="none" stroke-width="0" fill="#fd7e14"></path><path d="M0 0 C11.08 0, 22.16 0, 40 0 M0 0 C14.7 0, 29.4 0, 40 0 M40 0 C40 14.17, 40 28.34, 40 40 M40 0 C40 10.81, 40 21.62, 40 40 M40 40 C31.42 40, 22.85 40, 0 40 M40 40 C26.33 40, 12.67 40, 0 40 M0 40 C0 24.76, 0 9.52, 0 0 M0 40 C0 25.66, 0 11.32, 0 0" stroke="#000000" stroke-width="1" fill="none"></path></g><g stroke-linecap="round" transform="translate(210 650.0000000000127) rotate(629.9999999999999 20 20)"><path d="M0 0 C14.39 0, 28.77 0, 40 0 M0 0 C13.02 0, 26.04 0, 40 0 M40 0 C40 13.66, 40 27.33, 40 40 M40 0 C40 13.62, 40 27.25, 40 40 M40 40 C30.3 40, 20.6 40, 0 40 M40 40 C28.16 40, 16.31 40, 0 40 M0 40 C0 30.37, 0 20.74, 0 0 M0 40 C0 30.9, 0 21.8, 0 0" stroke="#000000" stroke-width="1" fill="none"></path></g><g stroke-linecap="round" transform="translate(250 650.0000000000118) rotate(629.9999999999999 20 20)"><path d="M0 0 C11.15 0, 22.29 0, 40 0 M0 0 C15.08 0, 30.15 0, 40 0 M40 0 C40 9.74, 40 19.47, 40 40 M40 0 C40 13.75, 40 27.5, 40 40 M40 40 C28.01 40, 16.02 40, 0 40 M40 40 C27.66 40, 15.31 40, 0 40 M0 40 C0 26.63, 0 13.25, 0 0 M0 40 C0 28.74, 0 17.48, 0 0" stroke="#000000" stroke-width="1" fill="none"></path></g><g stroke-linecap="round" transform="translate(290 650.00000000001) rotate(629.9999999999999 20 20)"><path d="M0 0 C8.7 0, 17.39 0, 40 0 M0 0 C13.39 0, 26.78 0, 40 0 M40 0 C40 10.03, 40 20.07, 40 40 M40 0 C40 10.95, 40 21.9, 40 40 M40 40 C27.49 40, 14.97 40, 0 40 M40 40 C30.08 40, 20.15 40, 0 40 M0 40 C0 25.64, 0 11.28, 0 0 M0 40 C0 29.23, 0 18.46, 0 0" stroke="#000000" stroke-width="1" fill="none"></path></g><g stroke-linecap="round" transform="translate(330.0000000000018 650.0000000000082) rotate(629.9999999999999 20 20)"><path d="M0 0 C15.23 0, 30.46 0, 40 0 M0 0 C11.22 0, 22.44 0, 40 0 M40 0 C40 10.94, 40 21.87, 40 40 M40 0 C40 15.88, 40 31.76, 40 40 M40 40 C30.74 40, 21.48 40, 0 40 M40 40 C29.36 40, 18.72 40, 0 40 M0 40 C0 29.03, 0 18.06, 0 0 M0 40 C0 29.51, 0 19.02, 0 0" stroke="#000000" stroke-width="1" fill="none"></path></g><g stroke-linecap="round" transform="translate(370.0000000000018 650.0000000000027) rotate(629.9999999999999 20 20)"><path d="M0 0 C9.67 0, 19.33 0, 40 0 M0 0 C9.83 0, 19.66 0, 40 0 M40 0 C40 11.12, 40 22.24, 40 40 M40 0 C40 10.33, 40 20.66, 40 40 M40 40 C31.65 40, 23.29 40, 0 40 M40 40 C27.85 40, 15.7 40, 0 40 M0 40 C0 28.07, 0 16.14, 0 0 M0 40 C0 26.46, 0 12.93, 0 0" stroke="#000000" stroke-width="1" fill="none"></path></g><g stroke-linecap="round" transform="translate(409.9999999999982 650.0000000000036) rotate(629.9999999999999 20 20)"><path d="M0 0 C13.95 0, 27.9 0, 40 0 M0 0 C9.11 0, 18.22 0, 40 0 M40 0 C40 13.24, 40 26.49, 40 40 M40 0 C40 9.2, 40 18.4, 40 40 M40 40 C27.02 40, 14.05 40, 0 40 M40 40 C29.67 40, 19.34 40, 0 40 M0 40 C0 30.04, 0 20.09, 0 0 M0 40 C0 24.68, 0 9.36, 0 0" stroke="#000000" stroke-width="1" fill="none"></path></g><g stroke-linecap="round" transform="translate(450 650.0000000000036) rotate(629.9999999999999 20 20)"><path d="M0 0 C10.18 0, 20.35 0, 40 0 M0 0 C8.05 0, 16.11 0, 40 0 M40 0 C40 15.57, 40 31.15, 40 40 M40 0 C40 10.81, 40 21.62, 40 40 M40 40 C30.6 40, 21.2 40, 0 40 M40 40 C24.83 40, 9.66 40, 0 40 M0 40 C0 28.2, 0 16.4, 0 0 M0 40 C0 24.09, 0 8.18, 0 0" stroke="#000000" stroke-width="1" fill="none"></path></g><g stroke-linecap="round" transform="translate(490.0000000000018 650) rotate(629.9999999999999 20 20)"><path d="M0 0 C11.49 0, 22.99 0, 40 0 M0 0 C13.81 0, 27.61 0, 40 0 M40 0 C40 14.44, 40 28.87, 40 40 M40 0 C40 8.05, 40 16.09, 40 40 M40 40 C29.24 40, 18.48 40, 0 40 M40 40 C29.23 40, 18.46 40, 0 40 M0 40 C0 31.94, 0 23.87, 0 0 M0 40 C0 30.11, 0 20.23, 0 0" stroke="#000000" stroke-width="1" fill="none"></path></g><g stroke-linecap="round" transform="translate(410 650) rotate(360 20 20)"><path d="M0 0 L40 0 L40 40 L0 40" stroke="none" stroke-width="0" fill="#15aabf"></path><path d="M0 0 C13.43 0, 26.86 0, 40 0 M0 0 C8.81 0, 17.63 0, 40 0 M40 0 C40 15.62, 40 31.24, 40 40 M40 0 C40 11.26, 40 22.51, 40 40 M40 40 C27.35 40, 14.71 40, 0 40 M40 40 C27.81 40, 15.61 40, 0 40 M0 40 C0 24.51, 0 9.02, 0 0 M0 40 C0 30.3, 0 20.6, 0 0" stroke="#000000" stroke-width="1" fill="none"></path></g><g stroke-linecap="round" transform="translate(210 690.0000000000109) rotate(629.9999999999999 20 20)"><path d="M0 0 C15.84 0, 31.68 0, 40 0 M0 0 C11.18 0, 22.35 0, 40 0 M40 0 C40 12.85, 40 25.7, 40 40 M40 0 C40 14.81, 40 29.61, 40 40 M40 40 C28.45 40, 16.89 40, 0 40 M40 40 C25.38 40, 10.76 40, 0 40 M0 40 C0 26.92, 0 13.84, 0 0 M0 40 C0 27.13, 0 14.26, 0 0" stroke="#000000" stroke-width="1" fill="none"></path></g><g stroke-linecap="round" transform="translate(249.99999999999818 690.0000000000091) rotate(629.9999999999999 20 20)"><path d="M0 0 C14.7 0, 29.4 0, 40 0 M0 0 C14.17 0, 28.34 0, 40 0 M40 0 C40 10.81, 40 21.62, 40 40 M40 0 C40 8.58, 40 17.15, 40 40 M40 40 C26.33 40, 12.67 40, 0 40 M40 40 C24.76 40, 9.52 40, 0 40 M0 40 C0 25.66, 0 11.32, 0 0 M0 40 C0 29.72, 0 19.45, 0 0" stroke="#000000" stroke-width="1" fill="none"></path></g><g stroke-linecap="round" transform="translate(290 690.0000000000064) rotate(629.9999999999999 20 20)"><path d="M0 0 C13.02 0, 26.04 0, 40 0 M0 0 C13.66 0, 27.33 0, 40 0 M40 0 C40 13.62, 40 27.25, 40 40 M40 0 C40 9.7, 40 19.4, 40 40 M40 40 C28.16 40, 16.31 40, 0 40 M40 40 C30.37 40, 20.74 40, 0 40 M0 40 C0 30.9, 0 21.8, 0 0 M0 40 C0 28.71, 0 17.41, 0 0" stroke="#000000" stroke-width="1" fill="none"></path></g><g stroke-linecap="round" transform="translate(330.0000000000018 690.0000000000055) rotate(629.9999999999999 20 20)"><path d="M0 0 C15.08 0, 30.15 0, 40 0 M0 0 C9.74 0, 19.47 0, 40 0 M40 0 C40 13.75, 40 27.5, 40 40 M40 0 C40 11.99, 40 23.98, 40 40 M40 40 C27.66 40, 15.31 40, 0 40 M40 40 C26.63 40, 13.25 40, 0 40 M0 40 C0 28.74, 0 17.48, 0 0 M0 40 C0 25.2, 0 10.4, 0 0" stroke="#000000" stroke-width="1" fill="none"></path></g><g stroke-linecap="round" transform="translate(370.0000000000018 690.0000000000027) rotate(629.9999999999999 20 20)"><path d="M0 0 C13.39 0, 26.78 0, 40 0 M0 0 C10.03 0, 20.07 0, 40 0 M40 0 C40 10.95, 40 21.9, 40 40 M40 0 C40 12.51, 40 25.03, 40 40 M40 40 C30.08 40, 20.15 40, 0 40 M40 40 C25.64 40, 11.28 40, 0 40 M0 40 C0 29.23, 0 18.46, 0 0 M0 40 C0 25.76, 0 11.53, 0 0" stroke="#000000" stroke-width="1" fill="none"></path></g><g stroke-linecap="round" transform="translate(410 690.0000000000018) rotate(629.9999999999999 20 20)"><path d="M0 0 C11.22 0, 22.44 0, 40 0 M0 0 C10.94 0, 21.87 0, 40 0 M40 0 C40 15.88, 40 31.76, 40 40 M40 0 C40 9.26, 40 18.52, 40 40 M40 40 C29.36 40, 18.72 40, 0 40 M40 40 C29.03 40, 18.06 40, 0 40 M0 40 C0 29.51, 0 19.02, 0 0 M0 40 C0 31.5, 0 22.99, 0 0" stroke="#000000" stroke-width="1" fill="none"></path></g><g stroke-linecap="round" transform="translate(450.0000000000018 690.0000000000018) rotate(629.9999999999999 20 20)"><path d="M0 0 C9.83 0, 19.66 0, 40 0 M0 0 C11.12 0, 22.24 0, 40 0 M40 0 C40 10.33, 40 20.66, 40 40 M40 0 C40 8.35, 40 16.71, 40 40 M40 40 C27.85 40, 15.7 40, 0 40 M40 40 C28.07 40, 16.14 40, 0 40 M0 40 C0 26.46, 0 12.93, 0 0 M0 40 C0 29.4, 0 18.79, 0 0" stroke="#000000" stroke-width="1" fill="none"></path></g><g stroke-linecap="round" transform="translate(490.0000000000018 690) rotate(629.9999999999999 20 20)"><path d="M0 0 C9.11 0, 18.22 0, 40 0 M0 0 C13.24 0, 26.49 0, 40 0 M40 0 C40 9.2, 40 18.4, 40 40 M40 0 C40 12.98, 40 25.95, 40 40 M40 40 C29.67 40, 19.34 40, 0 40 M40 40 C30.04 40, 20.09 40, 0 40 M0 40 C0 24.68, 0 9.36, 0 0 M0 40 C0 29.09, 0 18.17, 0 0" stroke="#000000" stroke-width="1" fill="none"></path></g><g stroke-linecap="round" transform="translate(450 690) rotate(360 20 20)"><path d="M0 0 L40 0 L40 40 L0 40" stroke="none" stroke-width="0" fill="#40c057"></path><path d="M0 0 C8.05 0, 16.11 0, 40 0 M0 0 C15.57 0, 31.15 0, 40 0 M40 0 C40 10.81, 40 21.62, 40 40 M40 0 C40 9.4, 40 18.8, 40 40 M40 40 C24.83 40, 9.66 40, 0 40 M40 40 C28.2 40, 16.4 40, 0 40 M0 40 C0 24.09, 0 8.18, 0 0 M0 40 C0 25.13, 0 10.26, 0 0" stroke="#000000" stroke-width="1" fill="none"></path></g><g stroke-linecap="round" transform="translate(210 730.0000000000109) rotate(629.9999999999999 20 20)"><path d="M0 0 C13.81 0, 27.61 0, 40 0 M0 0 C14.44 0, 28.87 0, 40 0 M40 0 C40 8.05, 40 16.09, 40 40 M40 0 C40 10.76, 40 21.52, 40 40 M40 40 C29.23 40, 18.46 40, 0 40 M40 40 C31.94 40, 23.87 40, 0 40 M0 40 C0 30.11, 0 20.23, 0 0 M0 40 C0 29.89, 0 19.77, 0 0" stroke="#000000" stroke-width="1" fill="none"></path></g><g stroke-linecap="round" transform="translate(249.99999999999818 730.0000000000055) rotate(629.9999999999999 20 20)"><path d="M0 0 C8.81 0, 17.63 0, 40 0 M0 0 C15.62 0, 31.24 0, 40 0 M40 0 C40 11.26, 40 22.51, 40 40 M40 0 C40 12.65, 40 25.29, 40 40 M40 40 C27.81 40, 15.61 40, 0 40 M40 40 C24.51 40, 9.02 40, 0 40 M0 40 C0 30.3, 0 20.6, 0 0 M0 40 C0 31.17, 0 22.34, 0 0" stroke="#000000" stroke-width="1" fill="none"></path></g><g stroke-linecap="round" transform="translate(289.9999999999982 730.0000000000109) rotate(629.9999999999999 20 20)"><path d="M0 0 C11.18 0, 22.35 0, 40 0 M0 0 C12.85 0, 25.7 0, 40 0 M40 0 C40 14.81, 40 29.61, 40 40 M40 0 C40 11.55, 40 23.11, 40 40 M40 40 C25.38 40, 10.76 40, 0 40 M40 40 C26.92 40, 13.84 40, 0 40 M0 40 C0 27.13, 0 14.26, 0 0 M0 40 C0 31.01, 0 22.01, 0 0" stroke="#000000" stroke-width="1" fill="none"></path></g><g stroke-linecap="round" transform="translate(330 730.0000000000073) rotate(629.9999999999999 20 20)"><path d="M0 0 C14.17 0, 28.34 0, 40 0 M0 0 C10.81 0, 21.62 0, 40 0 M40 0 C40 8.58, 40 17.15, 40 40 M40 0 C40 13.67, 40 27.33, 40 40 M40 40 C24.76 40, 9.52 40, 0 40 M40 40 C25.66 40, 11.32 40, 0 40 M0 40 C0 29.72, 0 19.45, 0 0 M0 40 C0 28.66, 0 17.31, 0 0" stroke="#000000" stroke-width="1" fill="none"></path></g><g stroke-linecap="round" transform="translate(370.0000000000018 730.0000000000073) rotate(629.9999999999999 20 20)"><path d="M0 0 C13.66 0, 27.33 0, 40 0 M0 0 C13.62 0, 27.25 0, 40 0 M40 0 C40 9.7, 40 19.4, 40 40 M40 0 C40 11.84, 40 23.69, 40 40 M40 40 C30.37 40, 20.74 40, 0 40 M40 40 C30.9 40, 21.8 40, 0 40 M0 40 C0 28.71, 0 17.41, 0 0 M0 40 C0 24.5, 0 9, 0 0" stroke="#000000" stroke-width="1" fill="none"></path></g><g stroke-linecap="round" transform="translate(409.9999999999982 730.0000000000036) rotate(629.9999999999999 20 20)"><path d="M0 0 C9.74 0, 19.47 0, 40 0 M0 0 C13.75 0, 27.5 0, 40 0 M40 0 C40 11.99, 40 23.98, 40 40 M40 0 C40 12.34, 40 24.69, 40 40 M40 40 C26.63 40, 13.25 40, 0 40 M40 40 C28.74 40, 17.48 40, 0 40 M0 40 C0 25.2, 0 10.4, 0 0 M0 40 C0 27.9, 0 15.79, 0 0" stroke="#000000" stroke-width="1" fill="none"></path></g><g stroke-linecap="round" transform="translate(450.0000000000018 730.0000000000018) rotate(629.9999999999999 20 20)"><path d="M0 0 C10.03 0, 20.07 0, 40 0 M0 0 C10.95 0, 21.9 0, 40 0 M40 0 C40 12.51, 40 25.03, 40 40 M40 0 C40 9.92, 40 19.85, 40 40 M40 40 C25.64 40, 11.28 40, 0 40 M40 40 C29.23 40, 18.46 40, 0 40 M0 40 C0 25.76, 0 11.53, 0 0 M0 40 C0 31.13, 0 22.25, 0 0" stroke="#000000" stroke-width="1" fill="none"></path></g><g stroke-linecap="round" transform="translate(490 730) rotate(629.9999999999999 20 20)"><path d="M0 0 C10.94 0, 21.87 0, 40 0 M0 0 C15.88 0, 31.76 0, 40 0 M40 0 C40 9.26, 40 18.52, 40 40 M40 0 C40 10.64, 40 21.28, 40 40 M40 40 C29.03 40, 18.06 40, 0 40 M40 40 C29.51 40, 19.02 40, 0 40 M0 40 C0 31.5, 0 22.99, 0 0 M0 40 C0 30.64, 0 21.27, 0 0" stroke="#000000" stroke-width="1" fill="none"></path></g><g stroke-linecap="round" transform="translate(490 730) rotate(719.9999999999995 20 20)"><path d="M0 0 L40 0 L40 40 L0 40" stroke="none" stroke-width="0" fill="#7950f2"></path><path d="M0 0 C11.12 0, 22.24 0, 40 0 M0 0 C10.33 0, 20.66 0, 40 0 M40 0 C40 8.35, 40 16.71, 40 40 M40 0 C40 12.15, 40 24.3, 40 40 M40 40 C28.07 40, 16.14 40, 0 40 M40 40 C26.46 40, 12.93 40, 0 40 M0 40 C0 29.4, 0 18.79, 0 0 M0 40 C0 30.07, 0 20.15, 0 0" stroke="#000000" stroke-width="1" fill="none"></path></g><g stroke-linecap="round" transform="translate(90 610) rotate(360 20 20)"><path d="M0 0 L40 0 L40 40 L0 40" stroke="none" stroke-width="0" fill="#fd7e14"></path><path d="M0 0 C13.24 0, 26.49 0, 40 0 M0 0 C9.2 0, 18.4 0, 40 0 M40 0 C40 12.98, 40 25.95, 40 40 M40 0 C40 10.33, 40 20.66, 40 40 M40 40 C30.04 40, 20.09 40, 0 40 M40 40 C24.68 40, 9.36 40, 0 40 M0 40 C0 29.09, 0 18.17, 0 0 M0 40 C0 24.3, 0 8.6, 0 0" stroke="#000000" stroke-width="1" fill="none"></path></g><g transform="translate(103.5 618.5) rotate(0 6.5 11.5)"><text x="6.5" y="19" font-family="Helvetica, Segoe UI Emoji" font-size="20px" fill="#000000" text-anchor="middle" style="white-space: pre;" direction="ltr">1</text></g><g stroke-linecap="round" transform="translate(90 650) rotate(360 20 20)"><path d="M0 0 L40 0 L40 40 L0 40" stroke="none" stroke-width="0" fill="#15aabf"></path><path d="M0 0 C14.44 0, 28.87 0, 40 0 M0 0 C8.05 0, 16.09 0, 40 0 M40 0 C40 10.76, 40 21.52, 40 40 M40 0 C40 10.77, 40 21.54, 40 40 M40 40 C31.94 40, 23.87 40, 0 40 M40 40 C30.11 40, 20.23 40, 0 40 M0 40 C0 29.89, 0 19.77, 0 0 M0 40 C0 24.25, 0 8.49, 0 0" stroke="#000000" stroke-width="1" fill="none"></path></g><g transform="translate(103.5 658.5) rotate(0 6.5 11.5)"><text x="6.5" y="19" font-family="Helvetica, Segoe UI Emoji" font-size="20px" fill="#000000" text-anchor="middle" style="white-space: pre;" direction="ltr">2</text></g><g stroke-linecap="round" transform="translate(90 690) rotate(360 20 20)"><path d="M0 0 L40 0 L40 40 L0 40" stroke="none" stroke-width="0" fill="#40c057"></path><path d="M0 0 C12.85 0, 25.7 0, 40 0 M0 0 C14.81 0, 29.61 0, 40 0 M40 0 C40 11.55, 40 23.11, 40 40 M40 0 C40 14.62, 40 29.24, 40 40 M40 40 C26.92 40, 13.84 40, 0 40 M40 40 C27.13 40, 14.26 40, 0 40 M0 40 C0 31.01, 0 22.01, 0 0 M0 40 C0 28, 0 16, 0 0" stroke="#000000" stroke-width="1" fill="none"></path></g><g transform="translate(103.5 698.5) rotate(0 6.5 11.5)"><text x="6.5" y="19" font-family="Helvetica, Segoe UI Emoji" font-size="20px" fill="#000000" text-anchor="middle" style="white-space: pre;" direction="ltr">3</text></g><g stroke-linecap="round" transform="translate(90 730) rotate(719.9999999999995 20 20)"><path d="M0 0 L40 0 L40 40 L0 40" stroke="none" stroke-width="0" fill="#7950f2"></path><path d="M0 0 C13.62 0, 27.25 0, 40 0 M0 0 C9.7 0, 19.4 0, 40 0 M40 0 C40 11.84, 40 23.69, 40 40 M40 0 C40 9.63, 40 19.26, 40 40 M40 40 C30.9 40, 21.8 40, 0 40 M40 40 C28.71 40, 17.41 40, 0 40 M0 40 C0 24.5, 0 9, 0 0 M0 40 C0 25.53, 0 11.07, 0 0" stroke="#000000" stroke-width="1" fill="none"></path></g><g transform="translate(103.5 738.5) rotate(0 6.5 11.5)"><text x="6.5" y="19" font-family="Helvetica, Segoe UI Emoji" font-size="20px" fill="#000000" text-anchor="middle" style="white-space: pre;" direction="ltr">4</text></g><g stroke-linecap="round" transform="translate(210 450.0000000000109) rotate(629.9999999999999 20 20)"><path d="M0 0 C10.95 0, 21.9 0, 40 0 M0 0 C12.51 0, 25.03 0, 40 0 M40 0 C40 9.92, 40 19.85, 40 40 M40 0 C40 14.36, 40 28.72, 40 40 M40 40 C29.23 40, 18.46 40, 0 40 M40 40 C25.76 40, 11.53 40, 0 40 M0 40 C0 31.13, 0 22.25, 0 0 M0 40 C0 25.48, 0 10.97, 0 0" stroke="#000000" stroke-width="1" fill="none"></path></g><g stroke-linecap="round" transform="translate(249.99999999999818 450.00000000001273) rotate(629.9999999999999 20 20)"><path d="M0 0 C15.88 0, 31.76 0, 40 0 M0 0 C9.26 0, 18.52 0, 40 0 M40 0 C40 10.64, 40 21.28, 40 40 M40 0 C40 10.97, 40 21.94, 40 40 M40 40 C29.51 40, 19.02 40, 0 40 M40 40 C31.5 40, 22.99 40, 0 40 M0 40 C0 30.64, 0 21.27, 0 0 M0 40 C0 29.26, 0 18.53, 0 0" stroke="#000000" stroke-width="1" fill="none"></path></g><g stroke-linecap="round" transform="translate(289.9999999999982 450.0000000000073) rotate(629.9999999999999 20 20)"><path d="M0 0 C10.33 0, 20.66 0, 40 0 M0 0 C8.35 0, 16.71 0, 40 0 M40 0 C40 12.15, 40 24.3, 40 40 M40 0 C40 11.93, 40 23.86, 40 40 M40 40 C26.46 40, 12.93 40, 0 40 M40 40 C29.4 40, 18.79 40, 0 40 M0 40 C0 30.07, 0 20.15, 0 0 M0 40 C0 25.43, 0 10.85, 0 0" stroke="#000000" stroke-width="1" fill="none"></path></g><g stroke-linecap="round" transform="translate(329.9999999999982 450.00000000000546) rotate(629.9999999999999 20 20)"><path d="M0 0 C9.2 0, 18.4 0, 40 0 M0 0 C12.98 0, 25.95 0, 40 0 M40 0 C40 10.33, 40 20.66, 40 40 M40 0 C40 9.96, 40 19.91, 40 40 M40 40 C24.68 40, 9.36 40, 0 40 M40 40 C29.09 40, 18.17 40, 0 40 M0 40 C0 24.3, 0 8.6, 0 0 M0 40 C0 30.74, 0 21.48, 0 0" stroke="#000000" stroke-width="1" fill="none"></path></g><g stroke-linecap="round" transform="translate(369.9999999999982 450.00000000000455) rotate(629.9999999999999 20 20)"><path d="M0 0 C10.81 0, 21.62 0, 40 0 M0 0 C9.4 0, 18.8 0, 40 0 M40 0 C40 15.17, 40 30.34, 40 40 M40 0 C40 11.8, 40 23.6, 40 40 M40 40 C24.09 40, 8.18 40, 0 40 M40 40 C25.13 40, 10.26 40, 0 40 M0 40 C0 24.74, 0 9.48, 0 0 M0 40 C0 30.11, 0 20.22, 0 0" stroke="#000000" stroke-width="1" fill="none"></path></g><g stroke-linecap="round" transform="translate(410 450.0000000000018) rotate(629.9999999999999 20 20)"><path d="M0 0 C8.05 0, 16.09 0, 40 0 M0 0 C10.76 0, 21.52 0, 40 0 M40 0 C40 10.77, 40 21.54, 40 40 M40 0 C40 8.06, 40 16.13, 40 40 M40 40 C30.11 40, 20.23 40, 0 40 M40 40 C29.89 40, 19.77 40, 0 40 M0 40 C0 24.25, 0 8.49, 0 0 M0 40 C0 30.39, 0 20.77, 0 0" stroke="#000000" stroke-width="1" fill="none"></path></g><g stroke-linecap="round" transform="translate(449.99999999999636 450.0000000000018) rotate(629.9999999999999 20 20)"><path d="M0 0 C11.26 0, 22.51 0, 40 0 M0 0 C12.65 0, 25.29 0, 40 0 M40 0 C40 12.19, 40 24.39, 40 40 M40 0 C40 15.49, 40 30.98, 40 40 M40 40 C30.3 40, 20.6 40, 0 40 M40 40 C31.17 40, 22.34 40, 0 40 M0 40 C0 28.46, 0 16.92, 0 0 M0 40 C0 29.72, 0 19.43, 0 0" stroke="#000000" stroke-width="1" fill="none"></path></g><g stroke-linecap="round" transform="translate(489.9999999999982 450) rotate(629.9999999999999 20 20)"><path d="M0 0 C14.81 0, 29.61 0, 40 0 M0 0 C11.55 0, 23.11 0, 40 0 M40 0 C40 14.62, 40 29.24, 40 40 M40 0 C40 13.08, 40 26.16, 40 40 M40 40 C27.13 40, 14.26 40, 0 40 M40 40 C31.01 40, 22.01 40, 0 40 M0 40 C0 28, 0 16, 0 0 M0 40 C0 25.97, 0 11.93, 0 0" stroke="#000000" stroke-width="1" fill="none"></path></g><g stroke-linecap="round" transform="translate(210 450) rotate(360 20 20)"><path d="M0 0 L40 0 L40 40 L0 40" stroke="none" stroke-width="0" fill="#fab005"></path><path d="M0 0 C8.58 0, 17.15 0, 40 0 M0 0 C13.67 0, 27.33 0, 40 0 M40 0 C40 15.24, 40 30.48, 40 40 M40 0 C40 14.34, 40 28.68, 40 40 M40 40 C29.72 40, 19.45 40, 0 40 M40 40 C28.66 40, 17.31 40, 0 40 M0 40 C0 26.27, 0 12.54, 0 0 M0 40 C0 26.11, 0 12.22, 0 0" stroke="#000000" stroke-width="1" fill="none"></path></g><g stroke-linecap="round" transform="translate(210 530.0000000000136) rotate(629.9999999999999 20 20)"><path d="M0 0 C9.7 0, 19.4 0, 40 0 M0 0 C11.84 0, 23.69 0, 40 0 M40 0 C40 9.63, 40 19.26, 40 40 M40 0 C40 9.1, 40 18.2, 40 40 M40 40 C28.71 40, 17.41 40, 0 40 M40 40 C24.5 40, 9 40, 0 40 M0 40 C0 25.53, 0 11.07, 0 0 M0 40 C0 29.43, 0 18.87, 0 0" stroke="#000000" stroke-width="1" fill="none"></path></g><g stroke-linecap="round" transform="translate(250.00000000000182 530.0000000000082) rotate(629.9999999999999 20 20)"><path d="M0 0 C11.99 0, 23.98 0, 40 0 M0 0 C12.34 0, 24.69 0, 40 0 M40 0 C40 13.37, 40 26.75, 40 40 M40 0 C40 11.26, 40 22.52, 40 40 M40 40 C25.2 40, 10.4 40, 0 40 M40 40 C27.9 40, 15.79 40, 0 40 M0 40 C0 24.65, 0 9.3, 0 0 M0 40 C0 27.08, 0 14.17, 0 0" stroke="#000000" stroke-width="1" fill="none"></path></g><g stroke-linecap="round" transform="translate(290.0000000000018 530.0000000000091) rotate(629.9999999999999 20 20)"><path d="M0 0 C12.51 0, 25.03 0, 40 0 M0 0 C9.92 0, 19.85 0, 40 0 M40 0 C40 14.36, 40 28.72, 40 40 M40 0 C40 10.77, 40 21.54, 40 40 M40 40 C25.76 40, 11.53 40, 0 40 M40 40 C31.13 40, 22.25 40, 0 40 M0 40 C0 25.48, 0 10.97, 0 0 M0 40 C0 28.69, 0 17.38, 0 0" stroke="#000000" stroke-width="1" fill="none"></path></g><g stroke-linecap="round" transform="translate(330 530.0000000000045) rotate(629.9999999999999 20 20)"><path d="M0 0 C9.26 0, 18.52 0, 40 0 M0 0 C10.64 0, 21.28 0, 40 0 M40 0 C40 10.97, 40 21.94, 40 40 M40 0 C40 10.49, 40 20.98, 40 40 M40 40 C31.5 40, 22.99 40, 0 40 M40 40 C30.64 40, 21.27 40, 0 40 M0 40 C0 29.26, 0 18.53, 0 0 M0 40 C0 24.6, 0 9.21, 0 0" stroke="#000000" stroke-width="1" fill="none"></path></g><g stroke-linecap="round" transform="translate(370.00000000000364 530.0000000000064) rotate(629.9999999999999 20 20)"><path d="M0 0 C8.35 0, 16.71 0, 40 0 M0 0 C12.15 0, 24.3 0, 40 0 M40 0 C40 11.93, 40 23.86, 40 40 M40 0 C40 13.54, 40 27.07, 40 40 M40 40 C29.4 40, 18.79 40, 0 40 M40 40 C30.07 40, 20.15 40, 0 40 M0 40 C0 25.43, 0 10.85, 0 0 M0 40 C0 29.33, 0 18.66, 0 0" stroke="#000000" stroke-width="1" fill="none"></path></g><g stroke-linecap="round" transform="translate(410 530.0000000000027) rotate(629.9999999999999 20 20)"><path d="M0 0 C12.98 0, 25.95 0, 40 0 M0 0 C10.33 0, 20.66 0, 40 0 M40 0 C40 9.96, 40 19.91, 40 40 M40 0 C40 15.32, 40 30.64, 40 40 M40 40 C29.09 40, 18.17 40, 0 40 M40 40 C24.3 40, 8.6 40, 0 40 M0 40 C0 30.74, 0 21.48, 0 0 M0 40 C0 29.07, 0 18.15, 0 0" stroke="#000000" stroke-width="1" fill="none"></path></g><g stroke-linecap="round" transform="translate(450.0000000000018 530.0000000000009) rotate(629.9999999999999 20 20)"><path d="M0 0 C9.4 0, 18.8 0, 40 0 M0 0 C15.17 0, 30.34 0, 40 0 M40 0 C40 11.8, 40 23.6, 40 40 M40 0 C40 15.91, 40 31.82, 40 40 M40 40 C25.13 40, 10.26 40, 0 40 M40 40 C24.74 40, 9.48 40, 0 40 M0 40 C0 30.11, 0 20.22, 0 0 M0 40 C0 24.39, 0 8.78, 0 0" stroke="#000000" stroke-width="1" fill="none"></path></g><g stroke-linecap="round" transform="translate(490 530) rotate(629.9999999999999 20 20)"><path d="M0 0 C10.76 0, 21.52 0, 40 0 M0 0 C10.77 0, 21.54 0, 40 0 M40 0 C40 8.06, 40 16.13, 40 40 M40 0 C40 9.89, 40 19.77, 40 40 M40 40 C29.89 40, 19.77 40, 0 40 M40 40 C24.25 40, 8.49 40, 0 40 M0 40 C0 30.39, 0 20.77, 0 0 M0 40 C0 31.57, 0 23.15, 0 0" stroke="#000000" stroke-width="1" fill="none"></path></g><g stroke-linecap="round" transform="translate(290 530) rotate(360 20 20)"><path d="M0 0 L40 0 L40 40 L0 40" stroke="none" stroke-width="0" fill="#82c91e"></path><path d="M0 0 C12.65 0, 25.29 0, 40 0 M0 0 C12.19 0, 24.39 0, 40 0 M40 0 C40 15.49, 40 30.98, 40 40 M40 0 C40 9.7, 40 19.4, 40 40 M40 40 C31.17 40, 22.34 40, 0 40 M40 40 C28.46 40, 16.92 40, 0 40 M0 40 C0 29.72, 0 19.43, 0 0 M0 40 C0 28.11, 0 16.22, 0 0" stroke="#000000" stroke-width="1" fill="none"></path></g><g stroke-linecap="round" transform="translate(210 570.0000000000164) rotate(629.9999999999999 20 20)"><path d="M0 0 C11.55 0, 23.11 0, 40 0 M0 0 C14.62 0, 29.24 0, 40 0 M40 0 C40 13.08, 40 26.16, 40 40 M40 0 C40 12.87, 40 25.74, 40 40 M40 40 C31.01 40, 22.01 40, 0 40 M40 40 C28 40, 16 40, 0 40 M0 40 C0 25.97, 0 11.93, 0 0 M0 40 C0 30.11, 0 20.22, 0 0" stroke="#000000" stroke-width="1" fill="none"></path></g><g stroke-linecap="round" transform="translate(250 570.0000000000146) rotate(629.9999999999999 20 20)"><path d="M0 0 C13.67 0, 27.33 0, 40 0 M0 0 C15.24 0, 30.48 0, 40 0 M40 0 C40 14.34, 40 28.68, 40 40 M40 0 C40 10.28, 40 20.55, 40 40 M40 40 C28.66 40, 17.31 40, 0 40 M40 40 C26.27 40, 12.54 40, 0 40 M0 40 C0 26.11, 0 12.22, 0 0 M0 40 C0 29.68, 0 19.35, 0 0" stroke="#000000" stroke-width="1" fill="none"></path></g><g stroke-linecap="round" transform="translate(289.99999999999636 570.0000000000073) rotate(629.9999999999999 20 20)"><path d="M0 0 C11.84 0, 23.69 0, 40 0 M0 0 C9.63 0, 19.26 0, 40 0 M40 0 C40 9.1, 40 18.2, 40 40 M40 0 C40 11.29, 40 22.59, 40 40 M40 40 C24.5 40, 9 40, 0 40 M40 40 C25.53 40, 11.07 40, 0 40 M0 40 C0 29.43, 0 18.87, 0 0 M0 40 C0 31.88, 0 23.76, 0 0" stroke="#000000" stroke-width="1" fill="none"></path></g><g stroke-linecap="round" transform="translate(330 570.0000000000109) rotate(629.9999999999999 20 20)"><path d="M0 0 C12.34 0, 24.69 0, 40 0 M0 0 C13.37 0, 26.75 0, 40 0 M40 0 C40 11.26, 40 22.52, 40 40 M40 0 C40 14.8, 40 29.6, 40 40 M40 40 C27.9 40, 15.79 40, 0 40 M40 40 C24.65 40, 9.3 40, 0 40 M0 40 C0 27.08, 0 14.17, 0 0 M0 40 C0 26.96, 0 13.91, 0 0" stroke="#000000" stroke-width="1" fill="none"></path></g><g stroke-linecap="round" transform="translate(370 570.0000000000091) rotate(629.9999999999999 20 20)"><path d="M0 0 C9.92 0, 19.85 0, 40 0 M0 0 C14.36 0, 28.72 0, 40 0 M40 0 C40 10.77, 40 21.54, 40 40 M40 0 C40 14.24, 40 28.47, 40 40 M40 40 C31.13 40, 22.25 40, 0 40 M40 40 C25.48 40, 10.97 40, 0 40 M0 40 C0 28.69, 0 17.38, 0 0 M0 40 C0 31.5, 0 22.99, 0 0" stroke="#000000" stroke-width="1" fill="none"></path></g><g stroke-linecap="round" transform="translate(410 570.0000000000055) rotate(629.9999999999999 20 20)"><path d="M0 0 C10.64 0, 21.28 0, 40 0 M0 0 C10.97 0, 21.94 0, 40 0 M40 0 C40 10.49, 40 20.98, 40 40 M40 0 C40 8.5, 40 17.01, 40 40 M40 40 C30.64 40, 21.27 40, 0 40 M40 40 C29.26 40, 18.53 40, 0 40 M0 40 C0 24.6, 0 9.21, 0 0 M0 40 C0 28.28, 0 16.56, 0 0" stroke="#000000" stroke-width="1" fill="none"></path></g><g stroke-linecap="round" transform="translate(450.0000000000018 570.0000000000036) rotate(629.9999999999999 20 20)"><path d="M0 0 C12.15 0, 24.3 0, 40 0 M0 0 C11.93 0, 23.86 0, 40 0 M40 0 C40 13.54, 40 27.07, 40 40 M40 0 C40 10.6, 40 21.21, 40 40 M40 40 C30.07 40, 20.15 40, 0 40 M40 40 C25.43 40, 10.85 40, 0 40 M0 40 C0 29.33, 0 18.66, 0 0 M0 40 C0 29.26, 0 18.52, 0 0" stroke="#000000" stroke-width="1" fill="none"></path></g><g stroke-linecap="round" transform="translate(489.9999999999982 570) rotate(629.9999999999999 20 20)"><path d="M0 0 C10.33 0, 20.66 0, 40 0 M0 0 C9.96 0, 19.91 0, 40 0 M40 0 C40 15.32, 40 30.64, 40 40 M40 0 C40 10.91, 40 21.83, 40 40 M40 40 C24.3 40, 8.6 40, 0 40 M40 40 C30.74 40, 21.48 40, 0 40 M0 40 C0 29.07, 0 18.15, 0 0 M0 40 C0 30.16, 0 20.31, 0 0" stroke="#000000" stroke-width="1" fill="none"></path></g><g stroke-linecap="round" transform="translate(330 570) rotate(360 20 20)"><path d="M0 0 L40 0 L40 40 L0 40" stroke="none" stroke-width="0" fill="#7950f2"></path><path d="M0 0 C15.17 0, 30.34 0, 40 0 M0 0 C11.8 0, 23.6 0, 40 0 M40 0 C40 15.91, 40 31.82, 40 40 M40 0 C40 14.87, 40 29.74, 40 40 M40 40 C24.74 40, 9.48 40, 0 40 M40 40 C30.11 40, 20.22 40, 0 40 M0 40 C0 24.39, 0 8.78, 0 0 M0 40 C0 25.4, 0 10.8, 0 0" stroke="#000000" stroke-width="1" fill="none"></path></g><g stroke-linecap="round" transform="translate(90 450) rotate(360 20 20)"><path d="M0 0 L40 0 L40 40 L0 40" stroke="none" stroke-width="0" fill="#fab005"></path><path d="M0 0 C10.77 0, 21.54 0, 40 0 M0 0 C8.06 0, 16.13 0, 40 0 M40 0 C40 9.89, 40 19.77, 40 40 M40 0 C40 10.11, 40 20.23, 40 40 M40 40 C24.25 40, 8.49 40, 0 40 M40 40 C30.39 40, 20.77 40, 0 40 M0 40 C0 31.57, 0 23.15, 0 0 M0 40 C0 27.05, 0 14.11, 0 0" stroke="#000000" stroke-width="1" fill="none"></path></g><g transform="translate(102.5 458.5) rotate(0 7.5 11.5)"><text x="7.5" y="19" font-family="Helvetica, Segoe UI Emoji" font-size="20px" fill="#000000" text-anchor="middle" style="white-space: pre;" direction="ltr">A</text></g><g stroke-linecap="round" transform="translate(210 490.00000000001) rotate(629.9999999999999 20 20)"><path d="M0 0 C14.62 0, 29.24 0, 40 0 M0 0 C13.08 0, 26.16 0, 40 0 M40 0 C40 12.87, 40 25.74, 40 40 M40 0 C40 8.99, 40 17.99, 40 40 M40 40 C28 40, 16 40, 0 40 M40 40 C25.97 40, 11.93 40, 0 40 M0 40 C0 30.11, 0 20.22, 0 0 M0 40 C0 29.13, 0 18.26, 0 0" stroke="#000000" stroke-width="1" fill="none"></path></g><g stroke-linecap="round" transform="translate(250.00000000000364 490.00000000000637) rotate(629.9999999999999 20 20)"><path d="M0 0 C15.24 0, 30.48 0, 40 0 M0 0 C14.34 0, 28.68 0, 40 0 M40 0 C40 10.28, 40 20.55, 40 40 M40 0 C40 11.34, 40 22.69, 40 40 M40 40 C26.27 40, 12.54 40, 0 40 M40 40 C26.11 40, 12.22 40, 0 40 M0 40 C0 29.68, 0 19.35, 0 0 M0 40 C0 26.88, 0 13.75, 0 0" stroke="#000000" stroke-width="1" fill="none"></path></g><g stroke-linecap="round" transform="translate(290.0000000000018 490.0000000000082) rotate(629.9999999999999 20 20)"><path d="M0 0 C9.63 0, 19.26 0, 40 0 M0 0 C9.1 0, 18.2 0, 40 0 M40 0 C40 11.29, 40 22.59, 40 40 M40 0 C40 15.5, 40 31, 40 40 M40 40 C25.53 40, 11.07 40, 0 40 M40 40 C29.43 40, 18.87 40, 0 40 M0 40 C0 31.88, 0 23.76, 0 0 M0 40 C0 31.99, 0 23.98, 0 0" stroke="#000000" stroke-width="1" fill="none"></path></g><g stroke-linecap="round" transform="translate(330.0000000000018 490.00000000001) rotate(629.9999999999999 20 20)"><path d="M0 0 C13.37 0, 26.75 0, 40 0 M0 0 C11.26 0, 22.52 0, 40 0 M40 0 C40 14.8, 40 29.6, 40 40 M40 0 C40 12.1, 40 24.21, 40 40 M40 40 C24.65 40, 9.3 40, 0 40 M40 40 C27.08 40, 14.17 40, 0 40 M0 40 C0 26.96, 0 13.91, 0 0 M0 40 C0 28.56, 0 17.13, 0 0" stroke="#000000" stroke-width="1" fill="none"></path></g><g stroke-linecap="round" transform="translate(370 490.00000000000455) rotate(629.9999999999999 20 20)"><path d="M0 0 C14.36 0, 28.72 0, 40 0 M0 0 C10.77 0, 21.54 0, 40 0 M40 0 C40 14.24, 40 28.47, 40 40 M40 0 C40 8.87, 40 17.75, 40 40 M40 40 C25.48 40, 10.97 40, 0 40 M40 40 C28.69 40, 17.38 40, 0 40 M0 40 C0 31.5, 0 22.99, 0 0 M0 40 C0 26.43, 0 12.85, 0 0" stroke="#000000" stroke-width="1" fill="none"></path></g><g stroke-linecap="round" transform="translate(410 490.00000000000455) rotate(629.9999999999999 20 20)"><path d="M0 0 C10.97 0, 21.94 0, 40 0 M0 0 C10.49 0, 20.98 0, 40 0 M40 0 C40 8.5, 40 17.01, 40 40 M40 0 C40 9.36, 40 18.73, 40 40 M40 40 C29.26 40, 18.53 40, 0 40 M40 40 C24.6 40, 9.21 40, 0 40 M0 40 C0 28.28, 0 16.56, 0 0 M0 40 C0 25.84, 0 11.68, 0 0" stroke="#000000" stroke-width="1" fill="none"></path></g><g stroke-linecap="round" transform="translate(450 490) rotate(629.9999999999999 20 20)"><path d="M0 0 C11.93 0, 23.86 0, 40 0 M0 0 C13.54 0, 27.07 0, 40 0 M40 0 C40 10.6, 40 21.21, 40 40 M40 0 C40 9.93, 40 19.85, 40 40 M40 40 C25.43 40, 10.85 40, 0 40 M40 40 C29.33 40, 18.66 40, 0 40 M0 40 C0 29.26, 0 18.52, 0 0 M0 40 C0 24.19, 0 8.37, 0 0" stroke="#000000" stroke-width="1" fill="none"></path></g><g stroke-linecap="round" transform="translate(490.0000000000018 490) rotate(629.9999999999999 20 20)"><path d="M0 0 C9.96 0, 19.91 0, 40 0 M0 0 C15.32 0, 30.64 0, 40 0 M40 0 C40 10.91, 40 21.83, 40 40 M40 0 C40 15.7, 40 31.4, 40 40 M40 40 C30.74 40, 21.48 40, 0 40 M40 40 C29.07 40, 18.15 40, 0 40 M0 40 C0 30.16, 0 20.31, 0 0 M0 40 C0 28.33, 0 16.67, 0 0" stroke="#000000" stroke-width="1" fill="none"></path></g><g stroke-linecap="round" transform="translate(250 490) rotate(360 20 20)"><path d="M0 0 L40 0 L40 40 L0 40" stroke="none" stroke-width="0" fill="#15aabf"></path><path d="M0 0 C11.8 0, 23.6 0, 40 0 M0 0 C15.91 0, 31.82 0, 40 0 M40 0 C40 14.87, 40 29.74, 40 40 M40 0 C40 15.26, 40 30.52, 40 40 M40 40 C30.11 40, 20.22 40, 0 40 M40 40 C24.39 40, 8.78 40, 0 40 M0 40 C0 25.4, 0 10.8, 0 0 M0 40 C0 27.71, 0 15.42, 0 0" stroke="#000000" stroke-width="1" fill="none"></path></g><g stroke-linecap="round" transform="translate(90 490) rotate(360 20 20)"><path d="M0 0 L40 0 L40 40 L0 40" stroke="none" stroke-width="0" fill="#15aabf"></path><path d="M0 0 C8.06 0, 16.13 0, 40 0 M0 0 C9.89 0, 19.77 0, 40 0 M40 0 C40 10.11, 40 20.23, 40 40 M40 0 C40 15.75, 40 31.51, 40 40 M40 40 C30.39 40, 20.77 40, 0 40 M40 40 C31.57 40, 23.15 40, 0 40 M0 40 C0 27.05, 0 14.11, 0 0 M0 40 C0 27.1, 0 14.2, 0 0" stroke="#000000" stroke-width="1" fill="none"></path></g><g transform="translate(102.5 498.5) rotate(0 7.5 11.5)"><text x="7.5" y="19" font-family="Helvetica, Segoe UI Emoji" font-size="20px" fill="#000000" text-anchor="middle" style="white-space: pre;" direction="ltr">B</text></g><g stroke-linecap="round" transform="translate(90 530) rotate(360 20 20)"><path d="M0 0 L40 0 L40 40 L0 40" stroke="none" stroke-width="0" fill="#82c91e"></path><path d="M0 0 C13.08 0, 26.16 0, 40 0 M0 0 C12.87 0, 25.74 0, 40 0 M40 0 C40 8.99, 40 17.99, 40 40 M40 0 C40 12, 40 24, 40 40 M40 40 C25.97 40, 11.93 40, 0 40 M40 40 C30.11 40, 20.22 40, 0 40 M0 40 C0 29.13, 0 18.26, 0 0 M0 40 C0 28.87, 0 17.75, 0 0" stroke="#000000" stroke-width="1" fill="none"></path></g><g transform="translate(102 538.5) rotate(0 8 11.5)"><text x="8" y="19" font-family="Helvetica, Segoe UI Emoji" font-size="20px" fill="#000000" text-anchor="middle" style="white-space: pre;" direction="ltr">C</text></g><g stroke-linecap="round" transform="translate(90 570) rotate(360 20 20)"><path d="M0 0 L40 0 L40 40 L0 40" stroke="none" stroke-width="0" fill="#7950f2"></path><path d="M0 0 C9.1 0, 18.2 0, 40 0 M0 0 C11.29 0, 22.59 0, 40 0 M40 0 C40 15.5, 40 31, 40 40 M40 0 C40 14.47, 40 28.93, 40 40 M40 40 C29.43 40, 18.87 40, 0 40 M40 40 C31.88 40, 23.76 40, 0 40 M0 40 C0 31.99, 0 23.98, 0 0 M0 40 C0 26.32, 0 12.65, 0 0" stroke="#000000" stroke-width="1" fill="none"></path></g><g transform="translate(102 578.5) rotate(0 8 11.5)"><text x="8" y="19" font-family="Helvetica, Segoe UI Emoji" font-size="20px" fill="#000000" text-anchor="middle" style="white-space: pre;" direction="ltr">D</text></g><g transform="translate(-21.5 501.5) rotate(270 53.5 22)"><text x="0" y="35" font-family="Cascadia, Segoe UI Emoji" font-size="36px" fill="#000000" text-anchor="start" style="white-space: pre;" direction="ltr">Keys </text></g><g transform="translate(-32.5 672.5) rotate(270 64.5 22)"><text x="0" y="35" font-family="Cascadia, Segoe UI Emoji" font-size="36px" fill="#000000" text-anchor="start" style="white-space: pre;" direction="ltr">Values</text></g><g transform="translate(190 350) rotate(0 170 43.5)"><text x="0" y="35.5" font-family="Cascadia, Segoe UI Emoji" font-size="36px" fill="#000000" text-anchor="start" style="white-space: pre;" direction="ltr">Transformed into</text><text x="0" y="79" font-family="Cascadia, Segoe UI Emoji" font-size="36px" fill="#000000" text-anchor="start" style="white-space: pre;" direction="ltr">one-hot encoding</text></g><g stroke-linecap="round" transform="translate(190 170) rotate(360 41.60079982045232 41.600799820452266)"><path d="M0 0 L83.2 0 L83.2 83.2 L0 83.2" stroke="none" stroke-width="0" fill="#fd7e14"></path><path d="M0 0 C33.1 0, 66.19 0, 83.2 0 M0 0 C30.93 0, 61.86 0, 83.2 0 M83.2 0 C83.2 31.74, 83.2 63.48, 83.2 83.2 M83.2 0 C83.2 20.57, 83.2 41.15, 83.2 83.2 M83.2 83.2 C50.73 83.2, 18.26 83.2, 0 83.2 M83.2 83.2 C52.84 83.2, 22.47 83.2, 0 83.2 M0 83.2 C0 57.64, 0 32.08, 0 0 M0 83.2 C0 57.37, 0 31.54, 0 0" stroke="#000000" stroke-width="1" fill="none"></path></g><g transform="translate(219.10079982045136 187.68033992369237) rotate(0 12.5 24)"><text x="12.5" y="38" font-family="Helvetica, Segoe UI Emoji" font-size="41.60079982045234px" fill="#000000" text-anchor="middle" style="white-space: pre;" direction="ltr">1</text></g><g stroke-linecap="round" transform="translate(273.20159964090453 170) rotate(360 41.60079982045232 41.600799820452266)"><path d="M0 0 L83.2 0 L83.2 83.2 L0 83.2" stroke="none" stroke-width="0" fill="#15aabf"></path><path d="M0 0 C20.18 0, 40.36 0, 83.2 0 M0 0 C18.36 0, 36.72 0, 83.2 0 M83.2 0 C83.2 24, 83.2 48, 83.2 83.2 M83.2 0 C83.2 21.39, 83.2 42.78, 83.2 83.2 M83.2 83.2 C58.47 83.2, 33.75 83.2, 0 83.2 M83.2 83.2 C63.08 83.2, 42.96 83.2, 0 83.2 M0 83.2 C0 66.32, 0 49.43, 0 0 M0 83.2 C0 57.7, 0 32.2, 0 0" stroke="#000000" stroke-width="1" fill="none"></path></g><g transform="translate(302.3023994613577 187.68033992369237) rotate(0 12.5 24)"><text x="12.5" y="38" font-family="Helvetica, Segoe UI Emoji" font-size="41.60079982045234px" fill="#000000" text-anchor="middle" style="white-space: pre;" direction="ltr">2</text></g><g stroke-linecap="round" transform="translate(356.40319928180907 170) rotate(360 41.60079982045232 41.600799820452266)"><path d="M0 0 L83.2 0 L83.2 83.2 L0 83.2" stroke="none" stroke-width="0" fill="#40c057"></path><path d="M0 0 C21.37 0, 42.75 0, 83.2 0 M0 0 C23.6 0, 47.19 0, 83.2 0 M83.2 0 C83.2 28.56, 83.2 57.11, 83.2 83.2 M83.2 0 C83.2 28.89, 83.2 57.78, 83.2 83.2 M83.2 83.2 C61.73 83.2, 40.25 83.2, 0 83.2 M83.2 83.2 C55.9 83.2, 28.6 83.2, 0 83.2 M0 83.2 C0 53.62, 0 24.05, 0 0 M0 83.2 C0 63.64, 0 44.09, 0 0" stroke="#000000" stroke-width="1" fill="none"></path></g><g transform="translate(385.5039991022604 187.68033992369237) rotate(0 12.5 24)"><text x="12.5" y="38" font-family="Helvetica, Segoe UI Emoji" font-size="41.60079982045234px" fill="#000000" text-anchor="middle" style="white-space: pre;" direction="ltr">3</text></g><g stroke-linecap="round" transform="translate(439.6047989227136 170.00000000000045) rotate(719.9999999999995 41.60079982045232 41.600799820452266)"><path d="M0 0 L83.2 0 L83.2 83.2 L0 83.2" stroke="none" stroke-width="0" fill="#7950f2"></path><path d="M0 0 C30.79 0, 61.57 0, 83.2 0 M0 0 C25.18 0, 50.36 0, 83.2 0 M83.2 0 C83.2 31.93, 83.2 63.87, 83.2 83.2 M83.2 0 C83.2 26.87, 83.2 53.73, 83.2 83.2 M83.2 83.2 C56.07 83.2, 28.94 83.2, 0 83.2 M83.2 83.2 C59.42 83.2, 35.63 83.2, 0 83.2 M0 83.2 C0 54.98, 0 26.76, 0 0 M0 83.2 C0 65.84, 0 48.48, 0 0" stroke="#000000" stroke-width="1" fill="none"></path></g><g transform="translate(468.7055987431668 187.68033992369283) rotate(0 12.5 24)"><text x="12.5" y="38" font-family="Helvetica, Segoe UI Emoji" font-size="41.60079982045234px" fill="#000000" text-anchor="middle" style="white-space: pre;" direction="ltr">4</text></g><g stroke-linecap="round" transform="translate(190 10) rotate(360 41.60079982045232 41.600799820452266)"><path d="M0 0 L83.2 0 L83.2 83.2 L0 83.2" stroke="none" stroke-width="0" fill="#fab005"></path><path d="M0 0 C17.69 0, 35.37 0, 83.2 0 M0 0 C19.48 0, 38.96 0, 83.2 0 M83.2 0 C83.2 22.33, 83.2 44.66, 83.2 83.2 M83.2 0 C83.2 32.02, 83.2 64.05, 83.2 83.2 M83.2 83.2 C58.82 83.2, 34.44 83.2, 0 83.2 M83.2 83.2 C53.75 83.2, 24.3 83.2, 0 83.2 M0 83.2 C0 51.08, 0 18.95, 0 0 M0 83.2 C0 58.4, 0 33.6, 0 0" stroke="#000000" stroke-width="1" fill="none"></path></g><g transform="translate(216.60079982044954 27.680339923692372) rotate(0 15 24)"><text x="15" y="38" font-family="Helvetica, Segoe UI Emoji" font-size="41.60079982045234px" fill="#000000" text-anchor="middle" style="white-space: pre;" direction="ltr">A</text></g><g stroke-linecap="round" transform="translate(273.20159964090453 10) rotate(360 41.60079982045232 41.600799820452266)"><path d="M0 0 L83.2 0 L83.2 83.2 L0 83.2" stroke="none" stroke-width="0" fill="#15aabf"></path><path d="M0 0 C22.7 0, 45.4 0, 83.2 0 M0 0 C32.65 0, 65.31 0, 83.2 0 M83.2 0 C83.2 19.26, 83.2 38.53, 83.2 83.2 M83.2 0 C83.2 22.73, 83.2 45.45, 83.2 83.2 M83.2 83.2 C62.73 83.2, 42.25 83.2, 0 83.2 M83.2 83.2 C58.94 83.2, 34.67 83.2, 0 83.2 M0 83.2 C0 54.74, 0 26.28, 0 0 M0 83.2 C0 60.27, 0 37.35, 0 0" stroke="#000000" stroke-width="1" fill="none"></path></g><g transform="translate(299.8023994613559 27.680339923692372) rotate(0 15 24)"><text x="15" y="38" font-family="Helvetica, Segoe UI Emoji" font-size="41.60079982045234px" fill="#000000" text-anchor="middle" style="white-space: pre;" direction="ltr">B</text></g><g stroke-linecap="round" transform="translate(356.40319928180907 10) rotate(360 41.60079982045232 41.600799820452266)"><path d="M0 0 L83.2 0 L83.2 83.2 L0 83.2" stroke="none" stroke-width="0" fill="#82c91e"></path><path d="M0 0 C21.04 0, 42.07 0, 83.2 0 M0 0 C32.77 0, 65.54 0, 83.2 0 M83.2 0 C83.2 20, 83.2 39.99, 83.2 83.2 M83.2 0 C83.2 17.53, 83.2 35.05, 83.2 83.2 M83.2 83.2 C56.27 83.2, 29.35 83.2, 0 83.2 M83.2 83.2 C56.37 83.2, 29.54 83.2, 0 83.2 M0 83.2 C0 64.65, 0 46.09, 0 0 M0 83.2 C0 53.32, 0 23.44, 0 0" stroke="#000000" stroke-width="1" fill="none"></path></g><g transform="translate(382.0039991022604 27.680339923692372) rotate(0 16 24)"><text x="16" y="38" font-family="Helvetica, Segoe UI Emoji" font-size="41.60079982045234px" fill="#000000" text-anchor="middle" style="white-space: pre;" direction="ltr">C</text></g><g stroke-linecap="round" transform="translate(439.6047989227136 10) rotate(360 41.60079982045232 41.600799820452266)"><path d="M0 0 L83.2 0 L83.2 83.2 L0 83.2" stroke="none" stroke-width="0" fill="#7950f2"></path><path d="M0 0 C18.71 0, 37.42 0, 83.2 0 M0 0 C24.96 0, 49.91 0, 83.2 0 M83.2 0 C83.2 29.19, 83.2 58.38, 83.2 83.2 M83.2 0 C83.2 20.57, 83.2 41.13, 83.2 83.2 M83.2 83.2 C60.59 83.2, 37.99 83.2, 0 83.2 M83.2 83.2 C60.06 83.2, 36.92 83.2, 0 83.2 M0 83.2 C0 52.31, 0 21.42, 0 0 M0 83.2 C0 53.58, 0 23.97, 0 0" stroke="#000000" stroke-width="1" fill="none"></path></g><g transform="translate(465.20559874316496 27.680339923692372) rotate(0 16 24)"><text x="16" y="38" font-family="Helvetica, Segoe UI Emoji" font-size="41.60079982045234px" fill="#000000" text-anchor="middle" style="white-space: pre;" direction="ltr">D</text></g><g transform="translate(150 450) rotate(0 20 19.5)"><text x="0" y="32" font-family="Cascadia, Segoe UI Emoji" font-size="32.72727272727272px" fill="#000000" text-anchor="start" style="white-space: pre;" direction="ltr">-&gt;</text></g><g transform="translate(150 490) rotate(0 20 19.5)"><text x="0" y="32" font-family="Cascadia, Segoe UI Emoji" font-size="32.72727272727272px" fill="#000000" text-anchor="start" style="white-space: pre;" direction="ltr">-&gt;</text></g><g transform="translate(150 530) rotate(0 20 19.5)"><text x="0" y="32" font-family="Cascadia, Segoe UI Emoji" font-size="32.72727272727272px" fill="#000000" text-anchor="start" style="white-space: pre;" direction="ltr">-&gt;</text></g><g transform="translate(150 570) rotate(0 20 19.5)"><text x="0" y="32" font-family="Cascadia, Segoe UI Emoji" font-size="32.72727272727272px" fill="#000000" text-anchor="start" style="white-space: pre;" direction="ltr">-&gt;</text></g><g transform="translate(150 610) rotate(0 20 19.5)"><text x="0" y="32" font-family="Cascadia, Segoe UI Emoji" font-size="32.72727272727272px" fill="#000000" text-anchor="start" style="white-space: pre;" direction="ltr">-&gt;</text></g><g transform="translate(150 650) rotate(0 20 19.5)"><text x="0" y="32" font-family="Cascadia, Segoe UI Emoji" font-size="32.72727272727272px" fill="#000000" text-anchor="start" style="white-space: pre;" direction="ltr">-&gt;</text></g><g transform="translate(150 690) rotate(0 20 19.5)"><text x="0" y="32" font-family="Cascadia, Segoe UI Emoji" font-size="32.72727272727272px" fill="#000000" text-anchor="start" style="white-space: pre;" direction="ltr">-&gt;</text></g><g transform="translate(150 730) rotate(0 20 19.5)"><text x="0" y="32" font-family="Cascadia, Segoe UI Emoji" font-size="32.72727272727272px" fill="#000000" text-anchor="start" style="white-space: pre;" direction="ltr">-&gt;</text></g><g transform="translate(10 30) rotate(0 53.5 22)"><text x="0" y="35" font-family="Cascadia, Segoe UI Emoji" font-size="36px" fill="#000000" text-anchor="start" style="white-space: pre;" direction="ltr">Keys </text></g><g transform="translate(10 190) rotate(0 64.5 22)"><text x="0" y="35" font-family="Cascadia, Segoe UI Emoji" font-size="36px" fill="#000000" text-anchor="start" style="white-space: pre;" direction="ltr">Values</text></g></svg>