<svg version="1.1" xmlns="http://www.w3.org/2000/svg" viewBox="0 0 1132.8063985636186 103.20159964090544" width="1132.8063985636186" height="103.20159964090544">
  <!-- svg-source:excalidraw -->
  
  <defs>
    <style class="style-fonts">
      @font-face {
        font-family: "Virgil";
        src: url("https://excalidraw.com/Virgil.woff2");
      }
      @font-face {
        font-family: "Cascadia";
        src: url("https://excalidraw.com/Cascadia.woff2");
      }
    </style>
  </defs>
  <rect x="0" y="0" width="1132.8063985636186" height="103.20159964090544" fill="#ffffff"></rect><g stroke-linecap="round" transform="translate(790 10) rotate(360 41.60079982045238 41.600799820452266)"><path d="M0 0 L83.2 0 L83.2 83.2 L0 83.2" stroke="none" stroke-width="0" fill="#fab005"></path><path d="M0 0 C33.1 0, 66.19 0, 83.2 0 M0 0 C30.93 0, 61.86 0, 83.2 0 M83.2 0 C83.2 31.74, 83.2 63.48, 83.2 83.2 M83.2 0 C83.2 20.57, 83.2 41.15, 83.2 83.2 M83.2 83.2 C50.73 83.2, 18.26 83.2, 0 83.2 M83.2 83.2 C52.84 83.2, 22.47 83.2, 0 83.2 M0 83.2 C0 57.64, 0 32.08, 0 0 M0 83.2 C0 57.37, 0 31.54, 0 0" stroke="#000000" stroke-width="1" fill="none"></path></g><g transform="translate(819.1007998204514 27.600799820452266) rotate(0 12.5 24)"><text x="12.5" y="38" font-family="Helvetica, Segoe UI Emoji" font-size="41.60079982045234px" fill="#000000" text-anchor="middle" style="white-space: pre;" direction="ltr">0</text></g><g stroke-linecap="round" transform="translate(873.2015996409045 10) rotate(360 41.60079982045238 41.600799820452266)"><path d="M0 0 L83.2 0 L83.2 83.2 L0 83.2" stroke="none" stroke-width="0" fill="#15aabf"></path><path d="M0 0 C20.18 0, 40.36 0, 83.2 0 M0 0 C18.36 0, 36.72 0, 83.2 0 M83.2 0 C83.2 24, 83.2 48, 83.2 83.2 M83.2 0 C83.2 21.39, 83.2 42.78, 83.2 83.2 M83.2 83.2 C58.47 83.2, 33.75 83.2, 0 83.2 M83.2 83.2 C63.08 83.2, 42.96 83.2, 0 83.2 M0 83.2 C0 66.32, 0 49.43, 0 0 M0 83.2 C0 57.7, 0 32.2, 0 0" stroke="#000000" stroke-width="1" fill="none"></path></g><g transform="translate(902.3023994613577 27.600799820452266) rotate(0 12.5 24)"><text x="12.5" y="38" font-family="Helvetica, Segoe UI Emoji" font-size="41.60079982045234px" fill="#000000" text-anchor="middle" style="white-space: pre;" direction="ltr">1</text></g><g stroke-linecap="round" transform="translate(956.4031992818091 10) rotate(360 41.60079982045238 41.600799820452266)"><path d="M0 0 L83.2 0 L83.2 83.2 L0 83.2" stroke="none" stroke-width="0" fill="#82c91e"></path><path d="M0 0 C21.37 0, 42.75 0, 83.2 0 M0 0 C23.6 0, 47.19 0, 83.2 0 M83.2 0 C83.2 28.56, 83.2 57.11, 83.2 83.2 M83.2 0 C83.2 28.89, 83.2 57.78, 83.2 83.2 M83.2 83.2 C61.73 83.2, 40.25 83.2, 0 83.2 M83.2 83.2 C55.9 83.2, 28.6 83.2, 0 83.2 M0 83.2 C0 53.62, 0 24.05, 0 0 M0 83.2 C0 63.64, 0 44.09, 0 0" stroke="#000000" stroke-width="1" fill="none"></path></g><g transform="translate(985.5039991022604 27.600799820452266) rotate(0 12.5 24)"><text x="12.5" y="38" font-family="Helvetica, Segoe UI Emoji" font-size="41.60079982045234px" fill="#000000" text-anchor="middle" style="white-space: pre;" direction="ltr">2</text></g><g stroke-linecap="round" transform="translate(1039.6047989227136 10.000000000000455) rotate(719.9999999999995 41.60079982045238 41.600799820452266)"><path d="M0 0 L83.2 0 L83.2 83.2 L0 83.2" stroke="none" stroke-width="0" fill="#7950f2"></path><path d="M0 0 C30.79 0, 61.57 0, 83.2 0 M0 0 C25.18 0, 50.36 0, 83.2 0 M83.2 0 C83.2 31.93, 83.2 63.87, 83.2 83.2 M83.2 0 C83.2 26.87, 83.2 53.73, 83.2 83.2 M83.2 83.2 C56.07 83.2, 28.94 83.2, 0 83.2 M83.2 83.2 C59.42 83.2, 35.63 83.2, 0 83.2 M0 83.2 C0 54.98, 0 26.76, 0 0 M0 83.2 C0 65.84, 0 48.48, 0 0" stroke="#000000" stroke-width="1" fill="none"></path></g><g transform="translate(1068.7055987431668 27.60079982045272) rotate(0 12.5 24)"><text x="12.5" y="38" font-family="Helvetica, Segoe UI Emoji" font-size="41.60079982045234px" fill="#000000" text-anchor="middle" style="white-space: pre;" direction="ltr">3</text></g><g stroke-linecap="round" transform="translate(190 10) rotate(360 41.60079982045232 41.600799820452266)"><path d="M0 0 L83.2 0 L83.2 83.2 L0 83.2" stroke="none" stroke-width="0" fill="#fab005"></path><path d="M0 0 C17.69 0, 35.37 0, 83.2 0 M0 0 C19.48 0, 38.96 0, 83.2 0 M83.2 0 C83.2 22.33, 83.2 44.66, 83.2 83.2 M83.2 0 C83.2 32.02, 83.2 64.05, 83.2 83.2 M83.2 83.2 C58.82 83.2, 34.44 83.2, 0 83.2 M83.2 83.2 C53.75 83.2, 24.3 83.2, 0 83.2 M0 83.2 C0 51.08, 0 18.95, 0 0 M0 83.2 C0 58.4, 0 33.6, 0 0" stroke="#000000" stroke-width="1" fill="none"></path></g><g transform="translate(216.60079982044954 27.680339923692372) rotate(0 15 24)"><text x="15" y="38" font-family="Helvetica, Segoe UI Emoji" font-size="41.60079982045234px" fill="#000000" text-anchor="middle" style="white-space: pre;" direction="ltr">A</text></g><g stroke-linecap="round" transform="translate(273.20159964090453 10) rotate(360 41.60079982045232 41.600799820452266)"><path d="M0 0 L83.2 0 L83.2 83.2 L0 83.2" stroke="none" stroke-width="0" fill="#15aabf"></path><path d="M0 0 C22.7 0, 45.4 0, 83.2 0 M0 0 C32.65 0, 65.31 0, 83.2 0 M83.2 0 C83.2 19.26, 83.2 38.53, 83.2 83.2 M83.2 0 C83.2 22.73, 83.2 45.45, 83.2 83.2 M83.2 83.2 C62.73 83.2, 42.25 83.2, 0 83.2 M83.2 83.2 C58.94 83.2, 34.67 83.2, 0 83.2 M0 83.2 C0 54.74, 0 26.28, 0 0 M0 83.2 C0 60.27, 0 37.35, 0 0" stroke="#000000" stroke-width="1" fill="none"></path></g><g transform="translate(299.8023994613559 27.680339923692372) rotate(0 15 24)"><text x="15" y="38" font-family="Helvetica, Segoe UI Emoji" font-size="41.60079982045234px" fill="#000000" text-anchor="middle" style="white-space: pre;" direction="ltr">B</text></g><g stroke-linecap="round" transform="translate(356.40319928180907 10) rotate(360 41.60079982045232 41.600799820452266)"><path d="M0 0 L83.2 0 L83.2 83.2 L0 83.2" stroke="none" stroke-width="0" fill="#82c91e"></path><path d="M0 0 C21.04 0, 42.07 0, 83.2 0 M0 0 C32.77 0, 65.54 0, 83.2 0 M83.2 0 C83.2 20, 83.2 39.99, 83.2 83.2 M83.2 0 C83.2 17.53, 83.2 35.05, 83.2 83.2 M83.2 83.2 C56.27 83.2, 29.35 83.2, 0 83.2 M83.2 83.2 C56.37 83.2, 29.54 83.2, 0 83.2 M0 83.2 C0 64.65, 0 46.09, 0 0 M0 83.2 C0 53.32, 0 23.44, 0 0" stroke="#000000" stroke-width="1" fill="none"></path></g><g transform="translate(382.0039991022604 27.680339923692372) rotate(0 16 24)"><text x="16" y="38" font-family="Helvetica, Segoe UI Emoji" font-size="41.60079982045234px" fill="#000000" text-anchor="middle" style="white-space: pre;" direction="ltr">C</text></g><g stroke-linecap="round" transform="translate(439.6047989227136 10) rotate(360 41.60079982045232 41.600799820452266)"><path d="M0 0 L83.2 0 L83.2 83.2 L0 83.2" stroke="none" stroke-width="0" fill="#7950f2"></path><path d="M0 0 C18.71 0, 37.42 0, 83.2 0 M0 0 C24.96 0, 49.91 0, 83.2 0 M83.2 0 C83.2 29.19, 83.2 58.38, 83.2 83.2 M83.2 0 C83.2 20.57, 83.2 41.13, 83.2 83.2 M83.2 83.2 C60.59 83.2, 37.99 83.2, 0 83.2 M83.2 83.2 C60.06 83.2, 36.92 83.2, 0 83.2 M0 83.2 C0 52.31, 0 21.42, 0 0 M0 83.2 C0 53.58, 0 23.97, 0 0" stroke="#000000" stroke-width="1" fill="none"></path></g><g transform="translate(465.20559874316496 27.680339923692372) rotate(0 16 24)"><text x="16" y="38" font-family="Helvetica, Segoe UI Emoji" font-size="41.60079982045234px" fill="#000000" text-anchor="middle" style="white-space: pre;" direction="ltr">D</text></g><g transform="translate(10 30) rotate(0 53.5 22)"><text x="0" y="35" font-family="Cascadia, Segoe UI Emoji" font-size="36px" fill="#000000" text-anchor="start" style="white-space: pre;" direction="ltr">Keys </text></g><g transform="translate(610 30) rotate(0 64.5 22)"><text x="0" y="35" font-family="Cascadia, Segoe UI Emoji" font-size="36px" fill="#000000" text-anchor="start" style="white-space: pre;" direction="ltr">Values</text></g></svg>