<svg version="1.1" xmlns="http://www.w3.org/2000/svg" viewBox="0 0 740 400" width="740" height="400">
  <!-- svg-source:excalidraw -->
  
  <defs>
    <style class="style-fonts">
      @font-face {
        font-family: "Virgil";
        src: url("https://excalidraw.com/Virgil.woff2");
      }
      @font-face {
        font-family: "Cascadia";
        src: url("https://excalidraw.com/Cascadia.woff2");
      }
    </style>
  </defs>
  <rect x="0" y="0" width="740" height="400" fill="#ffffff"></rect><g stroke-opacity="0.5" fill-opacity="0.5" stroke-linecap="round" transform="translate(410 70) rotate(0 20 20)"><path d="M0 0 C14.85 0, 29.7 0, 40 0 M0 0 C14.24 0, 28.48 0, 40 0 M40 0 C40 10.76, 40 21.52, 40 40 M40 0 C40 14.95, 40 29.9, 40 40 M40 40 C30.44 40, 20.88 40, 0 40 M40 40 C30.57 40, 21.13 40, 0 40 M0 40 C0 30.87, 0 21.74, 0 0 M0 40 C0 26.45, 0 12.9, 0 0" stroke="#495057" stroke-width="1" fill="none"></path></g><g stroke-opacity="0.5" fill-opacity="0.5" stroke-linecap="round" transform="translate(450 70) rotate(0 20 20)"><path d="M0 0 C9.4 0, 18.8 0, 40 0 M0 0 C13.75 0, 27.49 0, 40 0 M40 0 C40 15.52, 40 31.03, 40 40 M40 0 C40 12.17, 40 24.34, 40 40 M40 40 C28.05 40, 16.09 40, 0 40 M40 40 C27.56 40, 15.12 40, 0 40 M0 40 C0 25.85, 0 11.7, 0 0 M0 40 C0 30.08, 0 20.16, 0 0" stroke="#495057" stroke-width="1" fill="none"></path></g><g stroke-opacity="0.5" fill-opacity="0.5" stroke-linecap="round" transform="translate(490 70) rotate(0 20 20)"><path d="M0 0 C8.48 0, 16.95 0, 40 0 M0 0 C8.25 0, 16.5 0, 40 0 M40 0 C40 8.28, 40 16.56, 40 40 M40 0 C40 15.9, 40 31.79, 40 40 M40 40 C31.83 40, 23.67 40, 0 40 M40 40 C25.12 40, 10.25 40, 0 40 M0 40 C0 25.93, 0 11.86, 0 0 M0 40 C0 27.11, 0 14.22, 0 0" stroke="#495057" stroke-width="1" fill="none"></path></g><g stroke-opacity="0.5" fill-opacity="0.5" stroke-linecap="round" transform="translate(530 70) rotate(0 20 20)"><path d="M0 0 C8.35 0, 16.69 0, 40 0 M0 0 C15.05 0, 30.1 0, 40 0 M40 0 C40 10.53, 40 21.06, 40 40 M40 0 C40 8.79, 40 17.59, 40 40 M40 40 C29.69 40, 19.37 40, 0 40 M40 40 C27.97 40, 15.94 40, 0 40 M0 40 C0 27.28, 0 14.57, 0 0 M0 40 C0 27.33, 0 14.65, 0 0" stroke="#495057" stroke-width="1" fill="none"></path></g><g stroke-opacity="0.5" fill-opacity="0.5" stroke-linecap="round" transform="translate(570 70) rotate(0 20 20)"><path d="M0 0 C8.34 0, 16.69 0, 40 0 M0 0 C13.07 0, 26.14 0, 40 0 M40 0 C40 10.23, 40 20.46, 40 40 M40 0 C40 10.25, 40 20.5, 40 40 M40 40 C31.48 40, 22.96 40, 0 40 M40 40 C27.17 40, 14.35 40, 0 40 M0 40 C0 24.07, 0 8.14, 0 0 M0 40 C0 30.41, 0 20.82, 0 0" stroke="#495057" stroke-width="1" fill="none"></path></g><g stroke-opacity="0.5" fill-opacity="0.5" stroke-linecap="round" transform="translate(610 70) rotate(0 20 20)"><path d="M0 0 C11.92 0, 23.84 0, 40 0 M0 0 C12.57 0, 25.13 0, 40 0 M40 0 C40 14.9, 40 29.81, 40 40 M40 0 C40 13.18, 40 26.36, 40 40 M40 40 C31.48 40, 22.97 40, 0 40 M40 40 C24.44 40, 8.89 40, 0 40 M0 40 C0 31.39, 0 22.78, 0 0 M0 40 C0 25.1, 0 10.2, 0 0" stroke="#495057" stroke-width="1" fill="none"></path></g><g stroke-opacity="0.5" fill-opacity="0.5" stroke-linecap="round" transform="translate(650 70) rotate(0 20 20)"><path d="M0 0 C8.82 0, 17.63 0, 40 0 M0 0 C14.21 0, 28.41 0, 40 0 M40 0 C40 13.33, 40 26.66, 40 40 M40 0 C40 12.03, 40 24.06, 40 40 M40 40 C26.07 40, 12.14 40, 0 40 M40 40 C26.42 40, 12.84 40, 0 40 M0 40 C0 27.13, 0 14.25, 0 0 M0 40 C0 30.02, 0 20.04, 0 0" stroke="#495057" stroke-width="1" fill="none"></path></g><g stroke-opacity="0.5" fill-opacity="0.5" stroke-linecap="round" transform="translate(690 70) rotate(0 20 20)"><path d="M0 0 C11.02 0, 22.05 0, 40 0 M0 0 C10.73 0, 21.46 0, 40 0 M40 0 C40 11.8, 40 23.6, 40 40 M40 0 C40 12.61, 40 25.23, 40 40 M40 40 C26.25 40, 12.5 40, 0 40 M40 40 C26.6 40, 13.2 40, 0 40 M0 40 C0 31.19, 0 22.39, 0 0 M0 40 C0 25.67, 0 11.34, 0 0" stroke="#495057" stroke-width="1" fill="none"></path></g><g stroke-opacity="0.5" fill-opacity="0.5" stroke-linecap="round" transform="translate(490 110) rotate(0 20 20)"><path d="M0 0 C10.3 0, 20.61 0, 40 0 M0 0 C11.72 0, 23.44 0, 40 0 M40 0 C40 9.09, 40 18.18, 40 40 M40 0 C40 9.08, 40 18.15, 40 40 M40 40 C28.73 40, 17.47 40, 0 40 M40 40 C31.5 40, 23 40, 0 40 M0 40 C0 24.63, 0 9.25, 0 0 M0 40 C0 31.31, 0 22.62, 0 0" stroke="#495057" stroke-width="1" fill="none"></path></g><g stroke-opacity="0.5" fill-opacity="0.5" stroke-linecap="round" transform="translate(530 110) rotate(0 20 20)"><path d="M0 0 C14.37 0, 28.73 0, 40 0 M0 0 C9.53 0, 19.06 0, 40 0 M40 0 C40 9.46, 40 18.93, 40 40 M40 0 C40 10.69, 40 21.38, 40 40 M40 40 C30.47 40, 20.95 40, 0 40 M40 40 C30.99 40, 21.98 40, 0 40 M0 40 C0 28.17, 0 16.34, 0 0 M0 40 C0 29.49, 0 18.97, 0 0" stroke="#495057" stroke-width="1" fill="none"></path></g><g stroke-opacity="0.5" fill-opacity="0.5" stroke-linecap="round" transform="translate(570 110) rotate(0 20 20)"><path d="M0 0 C9.52 0, 19.05 0, 40 0 M0 0 C10 0, 20.01 0, 40 0 M40 0 C40 14.08, 40 28.16, 40 40 M40 0 C40 8.81, 40 17.62, 40 40 M40 40 C30.81 40, 21.61 40, 0 40 M40 40 C24.23 40, 8.46 40, 0 40 M0 40 C0 27.55, 0 15.11, 0 0 M0 40 C0 29.57, 0 19.13, 0 0" stroke="#495057" stroke-width="1" fill="none"></path></g><g stroke-opacity="0.5" fill-opacity="0.5" stroke-linecap="round" transform="translate(610 110) rotate(0 20 20)"><path d="M0 0 C14.24 0, 28.48 0, 40 0 M0 0 C10.76 0, 21.52 0, 40 0 M40 0 C40 14.95, 40 29.9, 40 40 M40 0 C40 9.56, 40 19.12, 40 40 M40 40 C30.57 40, 21.13 40, 0 40 M40 40 C30.87 40, 21.74 40, 0 40 M0 40 C0 26.45, 0 12.9, 0 0 M0 40 C0 28.95, 0 17.9, 0 0" stroke="#495057" stroke-width="1" fill="none"></path></g><g stroke-opacity="0.5" fill-opacity="0.5" stroke-linecap="round" transform="translate(650 110) rotate(0 20 20)"><path d="M0 0 C13.75 0, 27.49 0, 40 0 M0 0 C15.52 0, 31.03 0, 40 0 M40 0 C40 12.17, 40 24.34, 40 40 M40 0 C40 11.95, 40 23.91, 40 40 M40 40 C27.56 40, 15.12 40, 0 40 M40 40 C25.85 40, 11.7 40, 0 40 M0 40 C0 30.08, 0 20.16, 0 0 M0 40 C0 28.26, 0 16.52, 0 0" stroke="#495057" stroke-width="1" fill="none"></path></g><g stroke-opacity="0.5" fill-opacity="0.5" stroke-linecap="round" transform="translate(690 110) rotate(0 20 20)"><path d="M0 0 C8.25 0, 16.5 0, 40 0 M0 0 C8.28 0, 16.56 0, 40 0 M40 0 C40 15.9, 40 31.79, 40 40 M40 0 C40 8.17, 40 16.33, 40 40 M40 40 C25.12 40, 10.25 40, 0 40 M40 40 C25.93 40, 11.86 40, 0 40 M0 40 C0 27.11, 0 14.22, 0 0 M0 40 C0 26.16, 0 12.31, 0 0" stroke="#495057" stroke-width="1" fill="none"></path></g><g stroke-opacity="0.5" fill-opacity="0.5" stroke-linecap="round" transform="translate(410 110) rotate(0 20 20)"><path d="M0 0 C15.05 0, 30.1 0, 40 0 M0 0 C10.53 0, 21.06 0, 40 0 M40 0 C40 8.79, 40 17.59, 40 40 M40 0 C40 10.31, 40 20.63, 40 40 M40 40 C27.97 40, 15.94 40, 0 40 M40 40 C27.28 40, 14.57 40, 0 40 M0 40 C0 27.33, 0 14.65, 0 0 M0 40 C0 25.3, 0 10.59, 0 0" stroke="#495057" stroke-width="1" fill="none"></path></g><g stroke-opacity="0.5" fill-opacity="0.5" stroke-linecap="round" transform="translate(450 110) rotate(0 20 20)"><path d="M0 0 C13.07 0, 26.14 0, 40 0 M0 0 C10.23 0, 20.46 0, 40 0 M40 0 C40 10.25, 40 20.5, 40 40 M40 0 C40 8.52, 40 17.04, 40 40 M40 40 C27.17 40, 14.35 40, 0 40 M40 40 C24.07 40, 8.14 40, 0 40 M0 40 C0 30.41, 0 20.82, 0 0 M0 40 C0 26.64, 0 13.29, 0 0" stroke="#495057" stroke-width="1" fill="none"></path></g><g stroke-opacity="0.5" fill-opacity="0.5" stroke-linecap="round" transform="translate(570 150) rotate(0 20 20)"><path d="M0 0 C12.57 0, 25.13 0, 40 0 M0 0 C14.9 0, 29.81 0, 40 0 M40 0 C40 13.18, 40 26.36, 40 40 M40 0 C40 8.52, 40 17.03, 40 40 M40 40 C24.44 40, 8.89 40, 0 40 M40 40 C31.39 40, 22.78 40, 0 40 M0 40 C0 25.1, 0 10.2, 0 0 M0 40 C0 31.25, 0 22.51, 0 0" stroke="#495057" stroke-width="1" fill="none"></path></g><g stroke-opacity="0.5" fill-opacity="0.5" stroke-linecap="round" transform="translate(610 150) rotate(0 20 20)"><path d="M0 0 C14.21 0, 28.41 0, 40 0 M0 0 C13.33 0, 26.66 0, 40 0 M40 0 C40 12.03, 40 24.06, 40 40 M40 0 C40 13.93, 40 27.86, 40 40 M40 40 C26.42 40, 12.84 40, 0 40 M40 40 C27.13 40, 14.25 40, 0 40 M0 40 C0 30.02, 0 20.04, 0 0 M0 40 C0 25.15, 0 10.3, 0 0" stroke="#495057" stroke-width="1" fill="none"></path></g><g stroke-opacity="0.5" fill-opacity="0.5" stroke-linecap="round" transform="translate(650 150) rotate(0 20 20)"><path d="M0 0 C10.73 0, 21.46 0, 40 0 M0 0 C11.8 0, 23.6 0, 40 0 M40 0 C40 12.61, 40 25.23, 40 40 M40 0 C40 13.75, 40 27.5, 40 40 M40 40 C26.6 40, 13.2 40, 0 40 M40 40 C31.19 40, 22.39 40, 0 40 M0 40 C0 25.67, 0 11.34, 0 0 M0 40 C0 31.64, 0 23.28, 0 0" stroke="#495057" stroke-width="1" fill="none"></path></g><g stroke-opacity="0.5" fill-opacity="0.5" stroke-linecap="round" transform="translate(690 150) rotate(0 20 20)"><path d="M0 0 C11.72 0, 23.44 0, 40 0 M0 0 C9.09 0, 18.18 0, 40 0 M40 0 C40 9.08, 40 18.15, 40 40 M40 0 C40 11.27, 40 22.53, 40 40 M40 40 C31.5 40, 23 40, 0 40 M40 40 C24.63 40, 9.25 40, 0 40 M0 40 C0 31.31, 0 22.62, 0 0 M0 40 C0 31.36, 0 22.72, 0 0" stroke="#495057" stroke-width="1" fill="none"></path></g><g stroke-opacity="0.5" fill-opacity="0.5" stroke-linecap="round" transform="translate(410 150) rotate(0 20 20)"><path d="M0 0 C9.53 0, 19.06 0, 40 0 M0 0 C9.46 0, 18.93 0, 40 0 M40 0 C40 10.69, 40 21.38, 40 40 M40 0 C40 9.53, 40 19.05, 40 40 M40 40 C30.99 40, 21.98 40, 0 40 M40 40 C28.17 40, 16.34 40, 0 40 M0 40 C0 29.49, 0 18.97, 0 0 M0 40 C0 29.14, 0 18.29, 0 0" stroke="#495057" stroke-width="1" fill="none"></path></g><g stroke-opacity="0.5" fill-opacity="0.5" stroke-linecap="round" transform="translate(450 150) rotate(0 20 20)"><path d="M0 0 C10 0, 20.01 0, 40 0 M0 0 C14.08 0, 28.16 0, 40 0 M40 0 C40 8.81, 40 17.62, 40 40 M40 0 C40 9.19, 40 18.39, 40 40 M40 40 C24.23 40, 8.46 40, 0 40 M40 40 C27.55 40, 15.11 40, 0 40 M0 40 C0 29.57, 0 19.13, 0 0 M0 40 C0 31.65, 0 23.29, 0 0" stroke="#495057" stroke-width="1" fill="none"></path></g><g stroke-opacity="0.5" fill-opacity="0.5" stroke-linecap="round" transform="translate(490 150) rotate(0 20 20)"><path d="M0 0 C10.76 0, 21.52 0, 40 0 M0 0 C14.95 0, 29.9 0, 40 0 M40 0 C40 9.56, 40 19.12, 40 40 M40 0 C40 9.43, 40 18.87, 40 40 M40 40 C30.87 40, 21.74 40, 0 40 M40 40 C26.45 40, 12.9 40, 0 40 M0 40 C0 28.95, 0 17.9, 0 0 M0 40 C0 29.89, 0 19.78, 0 0" stroke="#495057" stroke-width="1" fill="none"></path></g><g stroke-opacity="0.5" fill-opacity="0.5" stroke-linecap="round" transform="translate(530 150) rotate(0 20 20)"><path d="M0 0 C15.52 0, 31.03 0, 40 0 M0 0 C12.17 0, 24.34 0, 40 0 M40 0 C40 11.95, 40 23.91, 40 40 M40 0 C40 12.44, 40 24.88, 40 40 M40 40 C25.85 40, 11.7 40, 0 40 M40 40 C30.08 40, 20.16 40, 0 40 M0 40 C0 28.26, 0 16.52, 0 0 M0 40 C0 30.83, 0 21.66, 0 0" stroke="#495057" stroke-width="1" fill="none"></path></g><g stroke-opacity="0.5" fill-opacity="0.5" stroke-linecap="round" transform="translate(650 190) rotate(0 20 20)"><path d="M0 0 C8.28 0, 16.56 0, 40 0 M0 0 C15.9 0, 31.79 0, 40 0 M40 0 C40 8.17, 40 16.33, 40 40 M40 0 C40 14.88, 40 29.75, 40 40 M40 40 C25.93 40, 11.86 40, 0 40 M40 40 C27.11 40, 14.22 40, 0 40 M0 40 C0 26.16, 0 12.31, 0 0 M0 40 C0 29.67, 0 19.35, 0 0" stroke="#495057" stroke-width="1" fill="none"></path></g><g stroke-opacity="0.5" fill-opacity="0.5" stroke-linecap="round" transform="translate(690 190) rotate(0 20 20)"><path d="M0 0 C10.53 0, 21.06 0, 40 0 M0 0 C8.79 0, 17.59 0, 40 0 M40 0 C40 10.31, 40 20.63, 40 40 M40 0 C40 12.03, 40 24.06, 40 40 M40 40 C27.28 40, 14.57 40, 0 40 M40 40 C27.33 40, 14.65 40, 0 40 M0 40 C0 25.3, 0 10.59, 0 0 M0 40 C0 29.93, 0 19.86, 0 0" stroke="#495057" stroke-width="1" fill="none"></path></g><g stroke-opacity="0.5" fill-opacity="0.5" stroke-linecap="round" transform="translate(410 190) rotate(0 20 20)"><path d="M0 0 C10.23 0, 20.46 0, 40 0 M0 0 C10.25 0, 20.5 0, 40 0 M40 0 C40 8.52, 40 17.04, 40 40 M40 0 C40 12.83, 40 25.65, 40 40 M40 40 C24.07 40, 8.14 40, 0 40 M40 40 C30.41 40, 20.82 40, 0 40 M0 40 C0 26.64, 0 13.29, 0 0 M0 40 C0 24.22, 0 8.45, 0 0" stroke="#495057" stroke-width="1" fill="none"></path></g><g stroke-opacity="0.5" fill-opacity="0.5" stroke-linecap="round" transform="translate(450 190) rotate(0 20 20)"><path d="M0 0 C14.9 0, 29.81 0, 40 0 M0 0 C13.18 0, 26.36 0, 40 0 M40 0 C40 8.52, 40 17.03, 40 40 M40 0 C40 15.56, 40 31.11, 40 40 M40 40 C31.39 40, 22.78 40, 0 40 M40 40 C25.1 40, 10.2 40, 0 40 M0 40 C0 31.25, 0 22.51, 0 0 M0 40 C0 27.91, 0 15.83, 0 0" stroke="#495057" stroke-width="1" fill="none"></path></g><g stroke-opacity="0.5" fill-opacity="0.5" stroke-linecap="round" transform="translate(490 190) rotate(0 20 20)"><path d="M0 0 C13.33 0, 26.66 0, 40 0 M0 0 C12.03 0, 24.06 0, 40 0 M40 0 C40 13.93, 40 27.86, 40 40 M40 0 C40 13.58, 40 27.16, 40 40 M40 40 C27.13 40, 14.25 40, 0 40 M40 40 C30.02 40, 20.04 40, 0 40 M0 40 C0 25.15, 0 10.3, 0 0 M0 40 C0 27.45, 0 14.9, 0 0" stroke="#495057" stroke-width="1" fill="none"></path></g><g stroke-opacity="0.5" fill-opacity="0.5" stroke-linecap="round" transform="translate(530 190) rotate(0 20 20)"><path d="M0 0 C11.8 0, 23.6 0, 40 0 M0 0 C12.61 0, 25.23 0, 40 0 M40 0 C40 13.75, 40 27.5, 40 40 M40 0 C40 13.4, 40 26.8, 40 40 M40 40 C31.19 40, 22.39 40, 0 40 M40 40 C25.67 40, 11.34 40, 0 40 M0 40 C0 31.64, 0 23.28, 0 0 M0 40 C0 31.43, 0 22.86, 0 0" stroke="#495057" stroke-width="1" fill="none"></path></g><g stroke-opacity="0.5" fill-opacity="0.5" stroke-linecap="round" transform="translate(570 190) rotate(0 20 20)"><path d="M0 0 C9.09 0, 18.18 0, 40 0 M0 0 C9.08 0, 18.15 0, 40 0 M40 0 C40 11.27, 40 22.53, 40 40 M40 0 C40 8.5, 40 17, 40 40 M40 40 C24.63 40, 9.25 40, 0 40 M40 40 C31.31 40, 22.62 40, 0 40 M0 40 C0 31.36, 0 22.72, 0 0 M0 40 C0 25.69, 0 11.38, 0 0" stroke="#495057" stroke-width="1" fill="none"></path></g><g stroke-opacity="0.5" fill-opacity="0.5" stroke-linecap="round" transform="translate(610 190) rotate(0 20 20)"><path d="M0 0 C9.46 0, 18.93 0, 40 0 M0 0 C10.69 0, 21.38 0, 40 0 M40 0 C40 9.53, 40 19.05, 40 40 M40 0 C40 9.01, 40 18.02, 40 40 M40 40 C28.17 40, 16.34 40, 0 40 M40 40 C29.49 40, 18.97 40, 0 40 M0 40 C0 29.14, 0 18.29, 0 0 M0 40 C0 24.59, 0 9.18, 0 0" stroke="#495057" stroke-width="1" fill="none"></path></g><g stroke-opacity="0.5" fill-opacity="0.5" stroke-linecap="round" transform="translate(410 230) rotate(0 20 20)"><path d="M0 0 C14.08 0, 28.16 0, 40 0 M0 0 C8.81 0, 17.62 0, 40 0 M40 0 C40 9.19, 40 18.39, 40 40 M40 0 C40 15.77, 40 31.54, 40 40 M40 40 C27.55 40, 15.11 40, 0 40 M40 40 C29.57 40, 19.13 40, 0 40 M0 40 C0 31.65, 0 23.29, 0 0 M0 40 C0 27.96, 0 15.92, 0 0" stroke="#495057" stroke-width="1" fill="none"></path></g><g stroke-opacity="0.5" fill-opacity="0.5" stroke-linecap="round" transform="translate(450 230) rotate(0 20 20)"><path d="M0 0 C14.95 0, 29.9 0, 40 0 M0 0 C9.56 0, 19.12 0, 40 0 M40 0 C40 9.43, 40 18.87, 40 40 M40 0 C40 9.13, 40 18.26, 40 40 M40 40 C26.45 40, 12.9 40, 0 40 M40 40 C28.95 40, 17.9 40, 0 40 M0 40 C0 29.89, 0 19.78, 0 0 M0 40 C0 26.69, 0 13.38, 0 0" stroke="#495057" stroke-width="1" fill="none"></path></g><g stroke-opacity="0.5" fill-opacity="0.5" stroke-linecap="round" transform="translate(490 230) rotate(0 20 20)"><path d="M0 0 C12.17 0, 24.34 0, 40 0 M0 0 C11.95 0, 23.91 0, 40 0 M40 0 C40 12.44, 40 24.88, 40 40 M40 0 C40 14.15, 40 28.3, 40 40 M40 40 C30.08 40, 20.16 40, 0 40 M40 40 C28.26 40, 16.52 40, 0 40 M0 40 C0 30.83, 0 21.66, 0 0 M0 40 C0 28.21, 0 16.42, 0 0" stroke="#495057" stroke-width="1" fill="none"></path></g><g stroke-opacity="0.5" fill-opacity="0.5" stroke-linecap="round" transform="translate(530 230) rotate(0 20 20)"><path d="M0 0 C15.9 0, 31.79 0, 40 0 M0 0 C8.17 0, 16.33 0, 40 0 M40 0 C40 14.88, 40 29.75, 40 40 M40 0 C40 14.07, 40 28.14, 40 40 M40 40 C27.11 40, 14.22 40, 0 40 M40 40 C26.16 40, 12.31 40, 0 40 M0 40 C0 29.67, 0 19.35, 0 0 M0 40 C0 29.97, 0 19.94, 0 0" stroke="#495057" stroke-width="1" fill="none"></path></g><g stroke-opacity="0.5" fill-opacity="0.5" stroke-linecap="round" transform="translate(570 230) rotate(0 20 20)"><path d="M0 0 C8.79 0, 17.59 0, 40 0 M0 0 C10.31 0, 20.63 0, 40 0 M40 0 C40 12.03, 40 24.06, 40 40 M40 0 C40 12.72, 40 25.43, 40 40 M40 40 C27.33 40, 14.65 40, 0 40 M40 40 C25.3 40, 10.59 40, 0 40 M0 40 C0 29.93, 0 19.86, 0 0 M0 40 C0 31.56, 0 23.13, 0 0" stroke="#495057" stroke-width="1" fill="none"></path></g><g stroke-opacity="0.5" fill-opacity="0.5" stroke-linecap="round" transform="translate(610 230) rotate(0 20 20)"><path d="M0 0 C10.25 0, 20.5 0, 40 0 M0 0 C8.52 0, 17.04 0, 40 0 M40 0 C40 12.83, 40 25.65, 40 40 M40 0 C40 15.93, 40 31.86, 40 40 M40 40 C30.41 40, 20.82 40, 0 40 M40 40 C26.64 40, 13.29 40, 0 40 M0 40 C0 24.22, 0 8.45, 0 0 M0 40 C0 25.37, 0 10.74, 0 0" stroke="#495057" stroke-width="1" fill="none"></path></g><g stroke-opacity="0.5" fill-opacity="0.5" stroke-linecap="round" transform="translate(650 230) rotate(0 20 20)"><path d="M0 0 C13.18 0, 26.36 0, 40 0 M0 0 C8.52 0, 17.03 0, 40 0 M40 0 C40 15.56, 40 31.11, 40 40 M40 0 C40 8.61, 40 17.22, 40 40 M40 40 C25.1 40, 10.2 40, 0 40 M40 40 C31.25 40, 22.51 40, 0 40 M0 40 C0 27.91, 0 15.83, 0 0 M0 40 C0 24.58, 0 9.17, 0 0" stroke="#495057" stroke-width="1" fill="none"></path></g><g stroke-opacity="0.5" fill-opacity="0.5" stroke-linecap="round" transform="translate(690 230) rotate(0 20 20)"><path d="M0 0 C12.03 0, 24.06 0, 40 0 M0 0 C13.93 0, 27.86 0, 40 0 M40 0 C40 13.58, 40 27.16, 40 40 M40 0 C40 12.87, 40 25.75, 40 40 M40 40 C30.02 40, 20.04 40, 0 40 M40 40 C25.15 40, 10.3 40, 0 40 M0 40 C0 27.45, 0 14.9, 0 0 M0 40 C0 28.28, 0 16.56, 0 0" stroke="#495057" stroke-width="1" fill="none"></path></g><g stroke-opacity="0.5" fill-opacity="0.5" stroke-linecap="round" transform="translate(490 270) rotate(0 20 20)"><path d="M0 0 C12.61 0, 25.23 0, 40 0 M0 0 C13.75 0, 27.5 0, 40 0 M40 0 C40 13.4, 40 26.8, 40 40 M40 0 C40 8.81, 40 17.61, 40 40 M40 40 C25.67 40, 11.34 40, 0 40 M40 40 C31.64 40, 23.28 40, 0 40 M0 40 C0 31.43, 0 22.86, 0 0 M0 40 C0 25.5, 0 11, 0 0" stroke="#495057" stroke-width="1" fill="none"></path></g><g stroke-linecap="round" transform="translate(530 270) rotate(0 20 20)"><path d="M0 0 L40 0 L40 40 L0 40" stroke="none" stroke-width="0" fill="#15aabf"></path><path d="M0 0 C9.08 0, 18.15 0, 40 0 M0 0 C11.27 0, 22.53 0, 40 0 M40 0 C40 8.5, 40 17, 40 40 M40 0 C40 15.37, 40 30.75, 40 40 M40 40 C31.31 40, 22.62 40, 0 40 M40 40 C31.36 40, 22.72 40, 0 40 M0 40 C0 25.69, 0 11.38, 0 0 M0 40 C0 24.28, 0 8.56, 0 0" stroke="#000000" stroke-width="1" fill="none"></path></g><g stroke-opacity="0.5" fill-opacity="0.5" stroke-linecap="round" transform="translate(570 270) rotate(0 20 20)"><path d="M0 0 C10.69 0, 21.38 0, 40 0 M0 0 C9.53 0, 19.05 0, 40 0 M40 0 C40 9.01, 40 18.02, 40 40 M40 0 C40 11.83, 40 23.66, 40 40 M40 40 C29.49 40, 18.97 40, 0 40 M40 40 C29.14 40, 18.29 40, 0 40 M0 40 C0 24.59, 0 9.18, 0 0 M0 40 C0 30.49, 0 20.97, 0 0" stroke="#495057" stroke-width="1" fill="none"></path></g><g stroke-linecap="round" transform="translate(610 270) rotate(0 20 20)"><path d="M0 0 L40 0 L40 40 L0 40" stroke="none" stroke-width="0" fill="#15aabf"></path><path d="M0 0 C8.81 0, 17.62 0, 40 0 M0 0 C9.19 0, 18.39 0, 40 0 M40 0 C40 15.77, 40 31.54, 40 40 M40 0 C40 12.45, 40 24.89, 40 40 M40 40 C29.57 40, 19.13 40, 0 40 M40 40 C31.65 40, 23.29 40, 0 40 M0 40 C0 27.96, 0 15.92, 0 0 M0 40 C0 26.89, 0 13.78, 0 0" stroke="#000000" stroke-width="1" fill="none"></path></g><g stroke-opacity="0.5" fill-opacity="0.5" stroke-linecap="round" transform="translate(650 270) rotate(0 20 20)"><path d="M0 0 C9.56 0, 19.12 0, 40 0 M0 0 C9.43 0, 18.87 0, 40 0 M40 0 C40 9.13, 40 18.26, 40 40 M40 0 C40 13.55, 40 27.1, 40 40 M40 40 C28.95 40, 17.9 40, 0 40 M40 40 C29.89 40, 19.78 40, 0 40 M0 40 C0 26.69, 0 13.38, 0 0 M0 40 C0 31.88, 0 23.76, 0 0" stroke="#495057" stroke-width="1" fill="none"></path></g><g stroke-linecap="round" transform="translate(690 270) rotate(0 20 20)"><path d="M0 0 L40 0 L40 40 L0 40" stroke="none" stroke-width="0" fill="#15aabf"></path><path d="M0 0 C11.95 0, 23.91 0, 40 0 M0 0 C12.44 0, 24.88 0, 40 0 M40 0 C40 14.15, 40 28.3, 40 40 M40 0 C40 9.92, 40 19.84, 40 40 M40 40 C28.26 40, 16.52 40, 0 40 M40 40 C30.83 40, 21.66 40, 0 40 M0 40 C0 28.21, 0 16.42, 0 0 M0 40 C0 31.33, 0 22.66, 0 0" stroke="#000000" stroke-width="1" fill="none"></path></g><g stroke-opacity="0.5" fill-opacity="0.5" stroke-linecap="round" transform="translate(410 270) rotate(0 20 20)"><path d="M0 0 C8.17 0, 16.33 0, 40 0 M0 0 C14.88 0, 29.75 0, 40 0 M40 0 C40 14.07, 40 28.14, 40 40 M40 0 C40 12.89, 40 25.78, 40 40 M40 40 C26.16 40, 12.31 40, 0 40 M40 40 C29.67 40, 19.35 40, 0 40 M0 40 C0 29.97, 0 19.94, 0 0 M0 40 C0 28.47, 0 16.93, 0 0" stroke="#495057" stroke-width="1" fill="none"></path></g><g stroke-linecap="round" transform="translate(450 270) rotate(0 20 20)"><path d="M0 0 L40 0 L40 40 L0 40" stroke="none" stroke-width="0" fill="#15aabf"></path><path d="M0 0 C10.31 0, 20.63 0, 40 0 M0 0 C12.03 0, 24.06 0, 40 0 M40 0 C40 12.72, 40 25.43, 40 40 M40 0 C40 12.67, 40 25.35, 40 40 M40 40 C25.3 40, 10.59 40, 0 40 M40 40 C29.93 40, 19.86 40, 0 40 M0 40 C0 31.56, 0 23.13, 0 0 M0 40 C0 24.27, 0 8.53, 0 0" stroke="#000000" stroke-width="1" fill="none"></path></g><g stroke-linecap="round" transform="translate(570 310) rotate(0 20 20)"><path d="M0 0 L40 0 L40 40 L0 40" stroke="none" stroke-width="0" fill="#82c91e"></path><path d="M0 0 C8.52 0, 17.04 0, 40 0 M0 0 C12.83 0, 25.65 0, 40 0 M40 0 C40 15.93, 40 31.86, 40 40 M40 0 C40 9.59, 40 19.18, 40 40 M40 40 C26.64 40, 13.29 40, 0 40 M40 40 C24.22 40, 8.45 40, 0 40 M0 40 C0 25.37, 0 10.74, 0 0 M0 40 C0 27.69, 0 15.38, 0 0" stroke="#000000" stroke-width="1" fill="none"></path></g><g stroke-opacity="0.5" fill-opacity="0.5" stroke-linecap="round" transform="translate(610 310) rotate(0 20 20)"><path d="M0 0 C8.52 0, 17.03 0, 40 0 M0 0 C15.56 0, 31.11 0, 40 0 M40 0 C40 8.61, 40 17.22, 40 40 M40 0 C40 14.9, 40 29.8, 40 40 M40 40 C31.25 40, 22.51 40, 0 40 M40 40 C27.91 40, 15.83 40, 0 40 M0 40 C0 24.58, 0 9.17, 0 0 M0 40 C0 25.56, 0 11.13, 0 0" stroke="#495057" stroke-width="1" fill="none"></path></g><g stroke-linecap="round" transform="translate(650 310) rotate(0 20 20)"><path d="M0 0 L40 0 L40 40 L0 40" stroke="none" stroke-width="0" fill="#82c91e"></path><path d="M0 0 C13.93 0, 27.86 0, 40 0 M0 0 C13.58 0, 27.16 0, 40 0 M40 0 C40 12.87, 40 25.75, 40 40 M40 0 C40 9.98, 40 19.96, 40 40 M40 40 C25.15 40, 10.3 40, 0 40 M40 40 C27.45 40, 14.9 40, 0 40 M0 40 C0 28.28, 0 16.56, 0 0 M0 40 C0 31.95, 0 23.89, 0 0" stroke="#000000" stroke-width="1" fill="none"></path></g><g stroke-opacity="0.5" fill-opacity="0.5" stroke-linecap="round" transform="translate(690 310) rotate(0 20 20)"><path d="M0 0 C13.75 0, 27.5 0, 40 0 M0 0 C13.4 0, 26.8 0, 40 0 M40 0 C40 8.81, 40 17.61, 40 40 M40 0 C40 14.33, 40 28.66, 40 40 M40 40 C31.64 40, 23.28 40, 0 40 M40 40 C31.43 40, 22.86 40, 0 40 M0 40 C0 25.5, 0 11, 0 0 M0 40 C0 26.03, 0 12.06, 0 0" stroke="#495057" stroke-width="1" fill="none"></path></g><g stroke-linecap="round" transform="translate(410 310) rotate(0 20 20)"><path d="M0 0 L40 0 L40 40 L0 40" stroke="none" stroke-width="0" fill="#82c91e"></path><path d="M0 0 C11.27 0, 22.53 0, 40 0 M0 0 C8.5 0, 17 0, 40 0 M40 0 C40 15.37, 40 30.75, 40 40 M40 0 C40 8.69, 40 17.38, 40 40 M40 40 C31.36 40, 22.72 40, 0 40 M40 40 C25.69 40, 11.38 40, 0 40 M0 40 C0 24.28, 0 8.56, 0 0 M0 40 C0 24.79, 0 9.58, 0 0" stroke="#000000" stroke-width="1" fill="none"></path></g><g stroke-opacity="0.5" fill-opacity="0.5" stroke-linecap="round" transform="translate(450 310) rotate(0 20 20)"><path d="M0 0 C9.53 0, 19.05 0, 40 0 M0 0 C9.01 0, 18.02 0, 40 0 M40 0 C40 11.83, 40 23.66, 40 40 M40 0 C40 10.51, 40 21.03, 40 40 M40 40 C29.14 40, 18.29 40, 0 40 M40 40 C24.59 40, 9.18 40, 0 40 M0 40 C0 30.49, 0 20.97, 0 0 M0 40 C0 29.16, 0 18.32, 0 0" stroke="#495057" stroke-width="1" fill="none"></path></g><g stroke-linecap="round" transform="translate(490 310) rotate(0 20 20)"><path d="M0 0 L40 0 L40 40 L0 40" stroke="none" stroke-width="0" fill="#82c91e"></path><path d="M0 0 C9.19 0, 18.39 0, 40 0 M0 0 C15.77 0, 31.54 0, 40 0 M40 0 C40 12.45, 40 24.89, 40 40 M40 0 C40 10.43, 40 20.87, 40 40 M40 40 C31.65 40, 23.29 40, 0 40 M40 40 C27.96 40, 15.92 40, 0 40 M0 40 C0 26.89, 0 13.78, 0 0 M0 40 C0 29.23, 0 18.45, 0 0" stroke="#000000" stroke-width="1" fill="none"></path></g><g stroke-opacity="0.5" fill-opacity="0.5" stroke-linecap="round" transform="translate(530 310) rotate(0 20 20)"><path d="M0 0 C9.43 0, 18.87 0, 40 0 M0 0 C9.13 0, 18.26 0, 40 0 M40 0 C40 13.55, 40 27.1, 40 40 M40 0 C40 11.05, 40 22.1, 40 40 M40 40 C29.89 40, 19.78 40, 0 40 M40 40 C26.69 40, 13.38 40, 0 40 M0 40 C0 31.88, 0 23.76, 0 0 M0 40 C0 28.9, 0 17.81, 0 0" stroke="#495057" stroke-width="1" fill="none"></path></g><g stroke-linecap="round" transform="translate(650 350) rotate(0 20 20)"><path d="M0 0 L40 0 L40 40 L0 40" stroke="none" stroke-width="0" fill="#7950f2"></path><path d="M0 0 C12.44 0, 24.88 0, 40 0 M0 0 C14.15 0, 28.3 0, 40 0 M40 0 C40 9.92, 40 19.84, 40 40 M40 0 C40 11.74, 40 23.48, 40 40 M40 40 C30.83 40, 21.66 40, 0 40 M40 40 C28.21 40, 16.42 40, 0 40 M0 40 C0 31.33, 0 22.66, 0 0 M0 40 C0 29.92, 0 19.84, 0 0" stroke="#000000" stroke-width="1" fill="none"></path></g><g stroke-linecap="round" transform="translate(690 350) rotate(0 20 20)"><path d="M0 0 L40 0 L40 40 L0 40" stroke="none" stroke-width="0" fill="#7950f2"></path><path d="M0 0 C14.88 0, 29.75 0, 40 0 M0 0 C14.07 0, 28.14 0, 40 0 M40 0 C40 12.89, 40 25.78, 40 40 M40 0 C40 13.84, 40 27.69, 40 40 M40 40 C29.67 40, 19.35 40, 0 40 M40 40 C29.97 40, 19.94 40, 0 40 M0 40 C0 28.47, 0 16.93, 0 0 M0 40 C0 27.4, 0 14.81, 0 0" stroke="#000000" stroke-width="1" fill="none"></path></g><g stroke-linecap="round" transform="translate(410 350) rotate(0 20 20)"><path d="M0 0 L40 0 L40 40 L0 40" stroke="none" stroke-width="0" fill="#7950f2"></path><path d="M0 0 C12.03 0, 24.06 0, 40 0 M0 0 C12.72 0, 25.43 0, 40 0 M40 0 C40 12.67, 40 25.35, 40 40 M40 0 C40 14.7, 40 29.41, 40 40 M40 40 C29.93 40, 19.86 40, 0 40 M40 40 C31.56 40, 23.13 40, 0 40 M0 40 C0 24.27, 0 8.53, 0 0 M0 40 C0 31.48, 0 22.96, 0 0" stroke="#000000" stroke-width="1" fill="none"></path></g><g stroke-linecap="round" transform="translate(450 350) rotate(0 20 20)"><path d="M0 0 L40 0 L40 40 L0 40" stroke="none" stroke-width="0" fill="#7950f2"></path><path d="M0 0 C12.83 0, 25.65 0, 40 0 M0 0 C15.93 0, 31.86 0, 40 0 M40 0 C40 9.59, 40 19.18, 40 40 M40 0 C40 13.36, 40 26.71, 40 40 M40 40 C24.22 40, 8.45 40, 0 40 M40 40 C25.37 40, 10.74 40, 0 40 M0 40 C0 27.69, 0 15.38, 0 0 M0 40 C0 28.75, 0 17.5, 0 0" stroke="#000000" stroke-width="1" fill="none"></path></g><g stroke-linecap="round" transform="translate(490 350) rotate(0 20 20)"><path d="M0 0 L40 0 L40 40 L0 40" stroke="none" stroke-width="0" fill="#7950f2"></path><path d="M0 0 C15.56 0, 31.11 0, 40 0 M0 0 C8.61 0, 17.22 0, 40 0 M40 0 C40 14.9, 40 29.8, 40 40 M40 0 C40 8.75, 40 17.49, 40 40 M40 40 C27.91 40, 15.83 40, 0 40 M40 40 C24.58 40, 9.17 40, 0 40 M0 40 C0 25.56, 0 11.13, 0 0 M0 40 C0 28.69, 0 17.37, 0 0" stroke="#000000" stroke-width="1" fill="none"></path></g><g stroke-linecap="round" transform="translate(530 350) rotate(0 20 20)"><path d="M0 0 L40 0 L40 40 L0 40" stroke="none" stroke-width="0" fill="#7950f2"></path><path d="M0 0 C13.58 0, 27.16 0, 40 0 M0 0 C12.87 0, 25.75 0, 40 0 M40 0 C40 9.98, 40 19.96, 40 40 M40 0 C40 14.85, 40 29.7, 40 40 M40 40 C27.45 40, 14.9 40, 0 40 M40 40 C28.28 40, 16.56 40, 0 40 M0 40 C0 31.95, 0 23.89, 0 0 M0 40 C0 24.72, 0 9.44, 0 0" stroke="#000000" stroke-width="1" fill="none"></path></g><g stroke-linecap="round" transform="translate(570 350) rotate(0 20 20)"><path d="M0 0 L40 0 L40 40 L0 40" stroke="none" stroke-width="0" fill="#7950f2"></path><path d="M0 0 C13.4 0, 26.8 0, 40 0 M0 0 C8.81 0, 17.61 0, 40 0 M40 0 C40 14.33, 40 28.66, 40 40 M40 0 C40 8.36, 40 16.72, 40 40 M40 40 C31.43 40, 22.86 40, 0 40 M40 40 C25.5 40, 11 40, 0 40 M0 40 C0 26.03, 0 12.06, 0 0 M0 40 C0 24.75, 0 9.51, 0 0" stroke="#000000" stroke-width="1" fill="none"></path></g><g stroke-linecap="round" transform="translate(610 350) rotate(0 20 20)"><path d="M0 0 L40 0 L40 40 L0 40" stroke="none" stroke-width="0" fill="#7950f2"></path><path d="M0 0 C8.5 0, 17 0, 40 0 M0 0 C15.37 0, 30.75 0, 40 0 M40 0 C40 8.69, 40 17.38, 40 40 M40 0 C40 8.64, 40 17.28, 40 40 M40 40 C25.69 40, 11.38 40, 0 40 M40 40 C24.28 40, 8.56 40, 0 40 M0 40 C0 24.79, 0 9.58, 0 0 M0 40 C0 28.55, 0 17.1, 0 0" stroke="#000000" stroke-width="1" fill="none"></path></g><g transform="translate(53.64988713460616 10) rotate(0 117 22)"><text x="0" y="35" font-family="Cascadia, Segoe UI Emoji" font-size="36px" fill="#000000" text-anchor="start" style="white-space: pre;" direction="ltr">W_Q and W_K</text></g><g transform="translate(530 10) rotate(0 32.5 22)"><text x="0" y="35" font-family="Cascadia, Segoe UI Emoji" font-size="36px" fill="#000000" text-anchor="start" style="white-space: pre;" direction="ltr">W_V</text></g><g stroke-linecap="round" transform="translate(10 70) rotate(0 20 20)"><path d="M0 0 L40 0 L40 40 L0 40" stroke="none" stroke-width="0" fill="#fab005"></path><path d="M0 0 C9.59 0, 19.18 0, 40 0 M0 0 C10.32 0, 20.64 0, 40 0 M40 0 C40 8.51, 40 17.02, 40 40 M40 0 C40 11.43, 40 22.85, 40 40 M40 40 C25.78 40, 11.57 40, 0 40 M40 40 C29.25 40, 18.5 40, 0 40 M0 40 C0 31.6, 0 23.2, 0 0 M0 40 C0 24.65, 0 9.3, 0 0" stroke="#000000" stroke-width="1" fill="none"></path></g><g stroke-linecap="round" transform="translate(50 70) rotate(0 20 20)"><path d="M0 0 L40 0 L40 40 L0 40" stroke="none" stroke-width="0" fill="#fab005"></path><path d="M0 0 C12.05 0, 24.09 0, 40 0 M0 0 C15.69 0, 31.37 0, 40 0 M40 0 C40 9.85, 40 19.69, 40 40 M40 0 C40 14.38, 40 28.76, 40 40 M40 40 C31.39 40, 22.78 40, 0 40 M40 40 C26.57 40, 13.14 40, 0 40 M0 40 C0 27.04, 0 14.08, 0 0 M0 40 C0 27.97, 0 15.94, 0 0" stroke="#000000" stroke-width="1" fill="none"></path></g><g stroke-opacity="0.7" fill-opacity="0.7" stroke-linecap="round" transform="translate(90 70) rotate(0 20 20)"><path d="M0 0 C14.12 0, 28.24 0, 40 0 M0 0 C15.26 0, 30.53 0, 40 0 M40 0 C40 11.37, 40 22.73, 40 40 M40 0 C40 9.91, 40 19.81, 40 40 M40 40 C27.97 40, 15.95 40, 0 40 M40 40 C26.11 40, 12.21 40, 0 40 M0 40 C0 28.16, 0 16.32, 0 0 M0 40 C0 27.88, 0 15.77, 0 0" stroke="#495057" stroke-width="1" fill="none"></path></g><g stroke-opacity="0.7" fill-opacity="0.7" stroke-linecap="round" transform="translate(130 70) rotate(0 20 20)"><path d="M0 0 C13.06 0, 26.12 0, 40 0 M0 0 C13.16 0, 26.32 0, 40 0 M40 0 C40 12.1, 40 24.19, 40 40 M40 0 C40 9.47, 40 18.95, 40 40 M40 40 C29.07 40, 18.14 40, 0 40 M40 40 C30.76 40, 21.53 40, 0 40 M0 40 C0 26.22, 0 12.45, 0 0 M0 40 C0 29.83, 0 19.65, 0 0" stroke="#495057" stroke-width="1" fill="none"></path></g><g stroke-opacity="0.7" fill-opacity="0.7" stroke-linecap="round" transform="translate(170 70) rotate(0 20 20)"><path d="M0 0 C12.43 0, 24.87 0, 40 0 M0 0 C14.58 0, 29.16 0, 40 0 M40 0 C40 12.5, 40 25, 40 40 M40 0 C40 10.04, 40 20.08, 40 40 M40 40 C26.26 40, 12.52 40, 0 40 M40 40 C31.52 40, 23.04 40, 0 40 M0 40 C0 31.32, 0 22.64, 0 0 M0 40 C0 30.13, 0 20.26, 0 0" stroke="#495057" stroke-width="1" fill="none"></path></g><g stroke-opacity="0.7" fill-opacity="0.7" stroke-linecap="round" transform="translate(210 70) rotate(0 20 20)"><path d="M0 0 C9.95 0, 19.9 0, 40 0 M0 0 C10.01 0, 20.01 0, 40 0 M40 0 C40 13.64, 40 27.27, 40 40 M40 0 C40 9.8, 40 19.61, 40 40 M40 40 C24.28 40, 8.57 40, 0 40 M40 40 C29.24 40, 18.48 40, 0 40 M0 40 C0 30.77, 0 21.53, 0 0 M0 40 C0 24.12, 0 8.23, 0 0" stroke="#495057" stroke-width="1" fill="none"></path></g><g stroke-opacity="0.7" fill-opacity="0.7" stroke-linecap="round" transform="translate(250 70) rotate(0 20 20)"><path d="M0 0 C9.82 0, 19.64 0, 40 0 M0 0 C11.83 0, 23.66 0, 40 0 M40 0 C40 9.57, 40 19.13, 40 40 M40 0 C40 13.91, 40 27.83, 40 40 M40 40 C26.39 40, 12.79 40, 0 40 M40 40 C29.13 40, 18.27 40, 0 40 M0 40 C0 29.99, 0 19.98, 0 0 M0 40 C0 25, 0 10, 0 0" stroke="#495057" stroke-width="1" fill="none"></path></g><g stroke-opacity="0.7" fill-opacity="0.7" stroke-linecap="round" transform="translate(290 70) rotate(0 20 20)"><path d="M0 0 C13.67 0, 27.35 0, 40 0 M0 0 C9.59 0, 19.18 0, 40 0 M40 0 C40 11.7, 40 23.4, 40 40 M40 0 C40 15.59, 40 31.18, 40 40 M40 40 C25.78 40, 11.56 40, 0 40 M40 40 C28.68 40, 17.36 40, 0 40 M0 40 C0 31.64, 0 23.27, 0 0 M0 40 C0 28.16, 0 16.33, 0 0" stroke="#495057" stroke-width="1" fill="none"></path></g><g stroke-linecap="round" transform="translate(90 110) rotate(0 20 20)"><path d="M0 0 L40 0 L40 40 L0 40" stroke="none" stroke-width="0" fill="#15aabf"></path><path d="M0 0 C11.63 0, 23.25 0, 40 0 M0 0 C15.14 0, 30.29 0, 40 0 M40 0 C40 13.01, 40 26.03, 40 40 M40 0 C40 11.43, 40 22.86, 40 40 M40 40 C24.57 40, 9.14 40, 0 40 M40 40 C31.52 40, 23.04 40, 0 40 M0 40 C0 30.76, 0 21.53, 0 0 M0 40 C0 27.8, 0 15.61, 0 0" stroke="#000000" stroke-width="1" fill="none"></path></g><g stroke-linecap="round" transform="translate(130 110) rotate(0 20 20)"><path d="M0 0 L40 0 L40 40 L0 40" stroke="none" stroke-width="0" fill="#15aabf"></path><path d="M0 0 C11.02 0, 22.03 0, 40 0 M0 0 C12.85 0, 25.7 0, 40 0 M40 0 C40 10.59, 40 21.18, 40 40 M40 0 C40 13.37, 40 26.73, 40 40 M40 40 C27.98 40, 15.97 40, 0 40 M40 40 C28.69 40, 17.39 40, 0 40 M0 40 C0 30.24, 0 20.48, 0 0 M0 40 C0 31.49, 0 22.98, 0 0" stroke="#000000" stroke-width="1" fill="none"></path></g><g stroke-opacity="0.7" fill-opacity="0.7" stroke-linecap="round" transform="translate(170 110) rotate(0 20 20)"><path d="M0 0 C13.51 0, 27.03 0, 40 0 M0 0 C10.98 0, 21.95 0, 40 0 M40 0 C40 12.35, 40 24.69, 40 40 M40 0 C40 10.06, 40 20.13, 40 40 M40 40 C25.18 40, 10.37 40, 0 40 M40 40 C26.43 40, 12.85 40, 0 40 M0 40 C0 27.68, 0 15.36, 0 0 M0 40 C0 29.76, 0 19.53, 0 0" stroke="#495057" stroke-width="1" fill="none"></path></g><g stroke-opacity="0.7" fill-opacity="0.7" stroke-linecap="round" transform="translate(210 110) rotate(0 20 20)"><path d="M0 0 C10.32 0, 20.64 0, 40 0 M0 0 C8.51 0, 17.02 0, 40 0 M40 0 C40 11.43, 40 22.85, 40 40 M40 0 C40 14.22, 40 28.43, 40 40 M40 40 C29.25 40, 18.5 40, 0 40 M40 40 C31.6 40, 23.2 40, 0 40 M0 40 C0 24.65, 0 9.3, 0 0 M0 40 C0 29.55, 0 19.1, 0 0" stroke="#495057" stroke-width="1" fill="none"></path></g><g stroke-opacity="0.7" fill-opacity="0.7" stroke-linecap="round" transform="translate(250 110) rotate(0 20 20)"><path d="M0 0 C15.69 0, 31.37 0, 40 0 M0 0 C9.85 0, 19.69 0, 40 0 M40 0 C40 14.38, 40 28.76, 40 40 M40 0 C40 8.61, 40 17.22, 40 40 M40 40 C26.57 40, 13.14 40, 0 40 M40 40 C27.04 40, 14.08 40, 0 40 M0 40 C0 27.97, 0 15.94, 0 0 M0 40 C0 24.29, 0 8.58, 0 0" stroke="#495057" stroke-width="1" fill="none"></path></g><g stroke-opacity="0.7" fill-opacity="0.7" stroke-linecap="round" transform="translate(290 110) rotate(0 20 20)"><path d="M0 0 C15.26 0, 30.53 0, 40 0 M0 0 C11.37 0, 22.73 0, 40 0 M40 0 C40 9.91, 40 19.81, 40 40 M40 0 C40 12.03, 40 24.05, 40 40 M40 40 C26.11 40, 12.21 40, 0 40 M40 40 C28.16 40, 16.32 40, 0 40 M0 40 C0 27.88, 0 15.77, 0 0 M0 40 C0 25.51, 0 11.02, 0 0" stroke="#495057" stroke-width="1" fill="none"></path></g><g stroke-opacity="0.7" fill-opacity="0.7" stroke-linecap="round" transform="translate(10 110) rotate(0 20 20)"><path d="M0 0 C13.16 0, 26.32 0, 40 0 M0 0 C12.1 0, 24.19 0, 40 0 M40 0 C40 9.47, 40 18.95, 40 40 M40 0 C40 10.93, 40 21.86, 40 40 M40 40 C30.76 40, 21.53 40, 0 40 M40 40 C26.22 40, 12.45 40, 0 40 M0 40 C0 29.83, 0 19.65, 0 0 M0 40 C0 25.22, 0 10.44, 0 0" stroke="#495057" stroke-width="1" fill="none"></path></g><g stroke-opacity="0.7" fill-opacity="0.7" stroke-linecap="round" transform="translate(50 110) rotate(0 20 20)"><path d="M0 0 C14.58 0, 29.16 0, 40 0 M0 0 C12.5 0, 25 0, 40 0 M40 0 C40 10.04, 40 20.08, 40 40 M40 0 C40 13.74, 40 27.48, 40 40 M40 40 C31.52 40, 23.04 40, 0 40 M40 40 C31.32 40, 22.64 40, 0 40 M0 40 C0 30.13, 0 20.26, 0 0 M0 40 C0 31.97, 0 23.95, 0 0" stroke="#495057" stroke-width="1" fill="none"></path></g><g stroke-linecap="round" transform="translate(170 150) rotate(0 20 20)"><path d="M0 0 L40 0 L40 40 L0 40" stroke="none" stroke-width="0" fill="#82c91e"></path><path d="M0 0 C10.01 0, 20.01 0, 40 0 M0 0 C13.64 0, 27.27 0, 40 0 M40 0 C40 9.8, 40 19.61, 40 40 M40 0 C40 15.72, 40 31.43, 40 40 M40 40 C29.24 40, 18.48 40, 0 40 M40 40 C30.77 40, 21.53 40, 0 40 M0 40 C0 24.12, 0 8.23, 0 0 M0 40 C0 29.07, 0 18.14, 0 0" stroke="#000000" stroke-width="1" fill="none"></path></g><g stroke-linecap="round" transform="translate(210 150) rotate(0 20 20)"><path d="M0 0 L40 0 L40 40 L0 40" stroke="none" stroke-width="0" fill="#82c91e"></path><path d="M0 0 C11.83 0, 23.66 0, 40 0 M0 0 C9.57 0, 19.13 0, 40 0 M40 0 C40 13.91, 40 27.83, 40 40 M40 0 C40 13.61, 40 27.21, 40 40 M40 40 C29.13 40, 18.27 40, 0 40 M40 40 C29.99 40, 19.98 40, 0 40 M0 40 C0 25, 0 10, 0 0 M0 40 C0 24.73, 0 9.46, 0 0" stroke="#000000" stroke-width="1" fill="none"></path></g><g stroke-opacity="0.7" fill-opacity="0.7" stroke-linecap="round" transform="translate(250 150) rotate(0 20 20)"><path d="M0 0 C9.59 0, 19.18 0, 40 0 M0 0 C11.7 0, 23.4 0, 40 0 M40 0 C40 15.59, 40 31.18, 40 40 M40 0 C40 14.22, 40 28.44, 40 40 M40 40 C28.68 40, 17.36 40, 0 40 M40 40 C31.64 40, 23.27 40, 0 40 M0 40 C0 28.16, 0 16.33, 0 0 M0 40 C0 25.29, 0 10.59, 0 0" stroke="#495057" stroke-width="1" fill="none"></path></g><g stroke-opacity="0.7" fill-opacity="0.7" stroke-linecap="round" transform="translate(290 150) rotate(0 20 20)"><path d="M0 0 C15.14 0, 30.29 0, 40 0 M0 0 C13.01 0, 26.03 0, 40 0 M40 0 C40 11.43, 40 22.86, 40 40 M40 0 C40 15.43, 40 30.86, 40 40 M40 40 C31.52 40, 23.04 40, 0 40 M40 40 C30.76 40, 21.53 40, 0 40 M0 40 C0 27.8, 0 15.61, 0 0 M0 40 C0 24.53, 0 9.06, 0 0" stroke="#495057" stroke-width="1" fill="none"></path></g><g stroke-opacity="0.7" fill-opacity="0.7" stroke-linecap="round" transform="translate(10 150) rotate(0 20 20)"><path d="M0 0 C12.85 0, 25.7 0, 40 0 M0 0 C10.59 0, 21.18 0, 40 0 M40 0 C40 13.37, 40 26.73, 40 40 M40 0 C40 12.02, 40 24.03, 40 40 M40 40 C28.69 40, 17.39 40, 0 40 M40 40 C30.24 40, 20.48 40, 0 40 M0 40 C0 31.49, 0 22.98, 0 0 M0 40 C0 30.51, 0 21.02, 0 0" stroke="#495057" stroke-width="1" fill="none"></path></g><g stroke-opacity="0.7" fill-opacity="0.7" stroke-linecap="round" transform="translate(50 150) rotate(0 20 20)"><path d="M0 0 C10.98 0, 21.95 0, 40 0 M0 0 C12.35 0, 24.69 0, 40 0 M40 0 C40 10.06, 40 20.13, 40 40 M40 0 C40 14.82, 40 29.63, 40 40 M40 40 C26.43 40, 12.85 40, 0 40 M40 40 C27.68 40, 15.36 40, 0 40 M0 40 C0 29.76, 0 19.53, 0 0 M0 40 C0 26.81, 0 13.63, 0 0" stroke="#495057" stroke-width="1" fill="none"></path></g><g stroke-opacity="0.7" fill-opacity="0.7" stroke-linecap="round" transform="translate(90 150) rotate(0 20 20)"><path d="M0 0 C8.51 0, 17.02 0, 40 0 M0 0 C11.43 0, 22.85 0, 40 0 M40 0 C40 14.22, 40 28.43, 40 40 M40 0 C40 10.75, 40 21.5, 40 40 M40 40 C31.6 40, 23.2 40, 0 40 M40 40 C24.65 40, 9.3 40, 0 40 M0 40 C0 29.55, 0 19.1, 0 0 M0 40 C0 26.78, 0 13.57, 0 0" stroke="#495057" stroke-width="1" fill="none"></path></g><g stroke-opacity="0.7" fill-opacity="0.7" stroke-linecap="round" transform="translate(130 150) rotate(0 20 20)"><path d="M0 0 C9.85 0, 19.69 0, 40 0 M0 0 C14.38 0, 28.76 0, 40 0 M40 0 C40 8.61, 40 17.22, 40 40 M40 0 C40 13.43, 40 26.86, 40 40 M40 40 C27.04 40, 14.08 40, 0 40 M40 40 C27.97 40, 15.94 40, 0 40 M0 40 C0 24.29, 0 8.58, 0 0 M0 40 C0 27.46, 0 14.93, 0 0" stroke="#495057" stroke-width="1" fill="none"></path></g><g stroke-linecap="round" transform="translate(250 190) rotate(0 20 20)"><path d="M0 0 L40 0 L40 40 L0 40" stroke="none" stroke-width="0" fill="#7950f2"></path><path d="M0 0 C11.37 0, 22.73 0, 40 0 M0 0 C9.91 0, 19.81 0, 40 0 M40 0 C40 12.03, 40 24.05, 40 40 M40 0 C40 13.89, 40 27.79, 40 40 M40 40 C28.16 40, 16.32 40, 0 40 M40 40 C27.88 40, 15.77 40, 0 40 M0 40 C0 25.51, 0 11.02, 0 0 M0 40 C0 27.85, 0 15.69, 0 0" stroke="#000000" stroke-width="1" fill="none"></path></g><g stroke-linecap="round" transform="translate(290 190) rotate(0 20 20)"><path d="M0 0 L40 0 L40 40 L0 40" stroke="none" stroke-width="0" fill="#7950f2"></path><path d="M0 0 C12.1 0, 24.19 0, 40 0 M0 0 C9.47 0, 18.95 0, 40 0 M40 0 C40 10.93, 40 21.86, 40 40 M40 0 C40 9.24, 40 18.47, 40 40 M40 40 C26.22 40, 12.45 40, 0 40 M40 40 C29.83 40, 19.65 40, 0 40 M0 40 C0 25.22, 0 10.44, 0 0 M0 40 C0 24.56, 0 9.12, 0 0" stroke="#000000" stroke-width="1" fill="none"></path></g><g stroke-opacity="0.7" fill-opacity="0.7" stroke-linecap="round" transform="translate(10 190) rotate(0 20 20)"><path d="M0 0 C12.5 0, 25 0, 40 0 M0 0 C10.04 0, 20.08 0, 40 0 M40 0 C40 13.74, 40 27.48, 40 40 M40 0 C40 8.48, 40 16.96, 40 40 M40 40 C31.32 40, 22.64 40, 0 40 M40 40 C30.13 40, 20.26 40, 0 40 M0 40 C0 31.97, 0 23.95, 0 0 M0 40 C0 25.37, 0 10.73, 0 0" stroke="#495057" stroke-width="1" fill="none"></path></g><g stroke-opacity="0.7" fill-opacity="0.7" stroke-linecap="round" transform="translate(50 190) rotate(0 20 20)"><path d="M0 0 C13.64 0, 27.27 0, 40 0 M0 0 C9.8 0, 19.61 0, 40 0 M40 0 C40 15.72, 40 31.43, 40 40 M40 0 C40 10.76, 40 21.52, 40 40 M40 40 C30.77 40, 21.53 40, 0 40 M40 40 C24.12 40, 8.23 40, 0 40 M0 40 C0 29.07, 0 18.14, 0 0 M0 40 C0 28.12, 0 16.25, 0 0" stroke="#495057" stroke-width="1" fill="none"></path></g><g stroke-opacity="0.7" fill-opacity="0.7" stroke-linecap="round" transform="translate(90 190) rotate(0 20 20)"><path d="M0 0 C9.57 0, 19.13 0, 40 0 M0 0 C13.91 0, 27.83 0, 40 0 M40 0 C40 13.61, 40 27.21, 40 40 M40 0 C40 10.87, 40 21.73, 40 40 M40 40 C29.99 40, 19.98 40, 0 40 M40 40 C25 40, 10 40, 0 40 M0 40 C0 24.73, 0 9.46, 0 0 M0 40 C0 31.19, 0 22.37, 0 0" stroke="#495057" stroke-width="1" fill="none"></path></g><g stroke-opacity="0.7" fill-opacity="0.7" stroke-linecap="round" transform="translate(130 190) rotate(0 20 20)"><path d="M0 0 C11.7 0, 23.4 0, 40 0 M0 0 C15.59 0, 31.18 0, 40 0 M40 0 C40 14.22, 40 28.44, 40 40 M40 0 C40 11.32, 40 22.64, 40 40 M40 40 C31.64 40, 23.27 40, 0 40 M40 40 C28.16 40, 16.33 40, 0 40 M0 40 C0 25.29, 0 10.59, 0 0 M0 40 C0 29.88, 0 19.76, 0 0" stroke="#495057" stroke-width="1" fill="none"></path></g><g stroke-opacity="0.7" fill-opacity="0.7" stroke-linecap="round" transform="translate(170 190) rotate(0 20 20)"><path d="M0 0 C13.01 0, 26.03 0, 40 0 M0 0 C11.43 0, 22.86 0, 40 0 M40 0 C40 15.43, 40 30.86, 40 40 M40 0 C40 8.48, 40 16.96, 40 40 M40 40 C30.76 40, 21.53 40, 0 40 M40 40 C27.8 40, 15.61 40, 0 40 M0 40 C0 24.53, 0 9.06, 0 0 M0 40 C0 31.59, 0 23.17, 0 0" stroke="#495057" stroke-width="1" fill="none"></path></g><g stroke-opacity="0.7" fill-opacity="0.7" stroke-linecap="round" transform="translate(210 190) rotate(0 20 20)"><path d="M0 0 C10.59 0, 21.18 0, 40 0 M0 0 C13.37 0, 26.73 0, 40 0 M40 0 C40 12.02, 40 24.03, 40 40 M40 0 C40 11.31, 40 22.61, 40 40 M40 40 C30.24 40, 20.48 40, 0 40 M40 40 C31.49 40, 22.98 40, 0 40 M0 40 C0 30.51, 0 21.02, 0 0 M0 40 C0 29, 0 17.99, 0 0" stroke="#495057" stroke-width="1" fill="none"></path></g><g stroke-opacity="0.7" fill-opacity="0.7" stroke-linecap="round" transform="translate(10 230) rotate(0 20 20)"><path d="M0 0 C12.35 0, 24.69 0, 40 0 M0 0 C10.06 0, 20.13 0, 40 0 M40 0 C40 14.82, 40 29.63, 40 40 M40 0 C40 13.57, 40 27.15, 40 40 M40 40 C27.68 40, 15.36 40, 0 40 M40 40 C29.76 40, 19.53 40, 0 40 M0 40 C0 26.81, 0 13.63, 0 0 M0 40 C0 29.52, 0 19.04, 0 0" stroke="#495057" stroke-width="1" fill="none"></path></g><g stroke-opacity="0.7" fill-opacity="0.7" stroke-linecap="round" transform="translate(50 230) rotate(0 20 20)"><path d="M0 0 C11.43 0, 22.85 0, 40 0 M0 0 C14.22 0, 28.43 0, 40 0 M40 0 C40 10.75, 40 21.5, 40 40 M40 0 C40 8.4, 40 16.8, 40 40 M40 40 C24.65 40, 9.3 40, 0 40 M40 40 C29.55 40, 19.1 40, 0 40 M0 40 C0 26.78, 0 13.57, 0 0 M0 40 C0 25.83, 0 11.66, 0 0" stroke="#495057" stroke-width="1" fill="none"></path></g><g stroke-opacity="0.7" fill-opacity="0.7" stroke-linecap="round" transform="translate(90 230) rotate(0 20 20)"><path d="M0 0 C14.38 0, 28.76 0, 40 0 M0 0 C8.61 0, 17.22 0, 40 0 M40 0 C40 13.43, 40 26.86, 40 40 M40 0 C40 12.96, 40 25.92, 40 40 M40 40 C27.97 40, 15.94 40, 0 40 M40 40 C24.29 40, 8.58 40, 0 40 M0 40 C0 27.46, 0 14.93, 0 0 M0 40 C0 30.87, 0 21.74, 0 0" stroke="#495057" stroke-width="1" fill="none"></path></g><g stroke-opacity="0.7" fill-opacity="0.7" stroke-linecap="round" transform="translate(130 230) rotate(0 20 20)"><path d="M0 0 C9.91 0, 19.81 0, 40 0 M0 0 C12.03 0, 24.05 0, 40 0 M40 0 C40 13.89, 40 27.79, 40 40 M40 0 C40 11.84, 40 23.68, 40 40 M40 40 C27.88 40, 15.77 40, 0 40 M40 40 C25.51 40, 11.02 40, 0 40 M0 40 C0 27.85, 0 15.69, 0 0 M0 40 C0 31.69, 0 23.38, 0 0" stroke="#495057" stroke-width="1" fill="none"></path></g><g stroke-opacity="0.7" fill-opacity="0.7" stroke-linecap="round" transform="translate(170 230) rotate(0 20 20)"><path d="M0 0 C9.47 0, 18.95 0, 40 0 M0 0 C10.93 0, 21.86 0, 40 0 M40 0 C40 9.24, 40 18.47, 40 40 M40 0 C40 13.78, 40 27.55, 40 40 M40 40 C29.83 40, 19.65 40, 0 40 M40 40 C25.22 40, 10.44 40, 0 40 M0 40 C0 24.56, 0 9.12, 0 0 M0 40 C0 30.7, 0 21.41, 0 0" stroke="#495057" stroke-width="1" fill="none"></path></g><g stroke-opacity="0.7" fill-opacity="0.7" stroke-linecap="round" transform="translate(210 230) rotate(0 20 20)"><path d="M0 0 C10.04 0, 20.08 0, 40 0 M0 0 C13.74 0, 27.48 0, 40 0 M40 0 C40 8.48, 40 16.96, 40 40 M40 0 C40 8.68, 40 17.36, 40 40 M40 40 C30.13 40, 20.26 40, 0 40 M40 40 C31.97 40, 23.95 40, 0 40 M0 40 C0 25.37, 0 10.73, 0 0 M0 40 C0 30.57, 0 21.15, 0 0" stroke="#495057" stroke-width="1" fill="none"></path></g><g stroke-opacity="0.7" fill-opacity="0.7" stroke-linecap="round" transform="translate(250 230) rotate(0 20 20)"><path d="M0 0 C9.8 0, 19.61 0, 40 0 M0 0 C15.72 0, 31.43 0, 40 0 M40 0 C40 10.76, 40 21.52, 40 40 M40 0 C40 9.23, 40 18.47, 40 40 M40 40 C24.12 40, 8.23 40, 0 40 M40 40 C29.07 40, 18.14 40, 0 40 M0 40 C0 28.12, 0 16.25, 0 0 M0 40 C0 31.52, 0 23.03, 0 0" stroke="#495057" stroke-width="1" fill="none"></path></g><g stroke-opacity="0.7" fill-opacity="0.7" stroke-linecap="round" transform="translate(290 230) rotate(0 20 20)"><path d="M0 0 C13.91 0, 27.83 0, 40 0 M0 0 C13.61 0, 27.21 0, 40 0 M40 0 C40 10.87, 40 21.73, 40 40 M40 0 C40 10.01, 40 20.02, 40 40 M40 40 C25 40, 10 40, 0 40 M40 40 C24.73 40, 9.46 40, 0 40 M0 40 C0 31.19, 0 22.37, 0 0 M0 40 C0 28.93, 0 17.86, 0 0" stroke="#495057" stroke-width="1" fill="none"></path></g><g stroke-opacity="0.7" fill-opacity="0.7" stroke-linecap="round" transform="translate(90 270) rotate(0 20 20)"><path d="M0 0 C15.59 0, 31.18 0, 40 0 M0 0 C14.22 0, 28.44 0, 40 0 M40 0 C40 11.32, 40 22.64, 40 40 M40 0 C40 8.36, 40 16.73, 40 40 M40 40 C28.16 40, 16.33 40, 0 40 M40 40 C25.29 40, 10.59 40, 0 40 M0 40 C0 29.88, 0 19.76, 0 0 M0 40 C0 29.48, 0 18.96, 0 0" stroke="#495057" stroke-width="1" fill="none"></path></g><g stroke-opacity="0.7" fill-opacity="0.7" stroke-linecap="round" transform="translate(130 270) rotate(0 20 20)"><path d="M0 0 C11.43 0, 22.86 0, 40 0 M0 0 C15.43 0, 30.86 0, 40 0 M40 0 C40 8.48, 40 16.96, 40 40 M40 0 C40 9.24, 40 18.47, 40 40 M40 40 C27.8 40, 15.61 40, 0 40 M40 40 C24.53 40, 9.06 40, 0 40 M0 40 C0 31.59, 0 23.17, 0 0 M0 40 C0 25.41, 0 10.81, 0 0" stroke="#495057" stroke-width="1" fill="none"></path></g><g stroke-opacity="0.7" fill-opacity="0.7" stroke-linecap="round" transform="translate(170 270) rotate(0 20 20)"><path d="M0 0 C13.37 0, 26.73 0, 40 0 M0 0 C12.02 0, 24.03 0, 40 0 M40 0 C40 11.31, 40 22.61, 40 40 M40 0 C40 9.76, 40 19.52, 40 40 M40 40 C31.49 40, 22.98 40, 0 40 M40 40 C30.51 40, 21.02 40, 0 40 M0 40 C0 29, 0 17.99, 0 0 M0 40 C0 24.7, 0 9.4, 0 0" stroke="#495057" stroke-width="1" fill="none"></path></g><g stroke-opacity="0.7" fill-opacity="0.7" stroke-linecap="round" transform="translate(210 270) rotate(0 20 20)"><path d="M0 0 C10.06 0, 20.13 0, 40 0 M0 0 C14.82 0, 29.63 0, 40 0 M40 0 C40 13.57, 40 27.15, 40 40 M40 0 C40 12.32, 40 24.64, 40 40 M40 40 C29.76 40, 19.53 40, 0 40 M40 40 C26.81 40, 13.63 40, 0 40 M0 40 C0 29.52, 0 19.04, 0 0 M0 40 C0 28.58, 0 17.17, 0 0" stroke="#495057" stroke-width="1" fill="none"></path></g><g stroke-opacity="0.7" fill-opacity="0.7" stroke-linecap="round" transform="translate(250 270) rotate(0 20 20)"><path d="M0 0 C14.22 0, 28.43 0, 40 0 M0 0 C10.75 0, 21.5 0, 40 0 M40 0 C40 8.4, 40 16.8, 40 40 M40 0 C40 15.35, 40 30.7, 40 40 M40 40 C29.55 40, 19.1 40, 0 40 M40 40 C26.78 40, 13.57 40, 0 40 M0 40 C0 25.83, 0 11.66, 0 0 M0 40 C0 31.46, 0 22.91, 0 0" stroke="#495057" stroke-width="1" fill="none"></path></g><g stroke-opacity="0.7" fill-opacity="0.7" stroke-linecap="round" transform="translate(290 270) rotate(0 20 20)"><path d="M0 0 C8.61 0, 17.22 0, 40 0 M0 0 C13.43 0, 26.86 0, 40 0 M40 0 C40 12.96, 40 25.92, 40 40 M40 0 C40 12.03, 40 24.06, 40 40 M40 40 C24.29 40, 8.58 40, 0 40 M40 40 C27.46 40, 14.93 40, 0 40 M0 40 C0 30.87, 0 21.74, 0 0 M0 40 C0 26.75, 0 13.5, 0 0" stroke="#495057" stroke-width="1" fill="none"></path></g><g stroke-opacity="0.7" fill-opacity="0.7" stroke-linecap="round" transform="translate(10 270) rotate(0 20 20)"><path d="M0 0 C12.03 0, 24.05 0, 40 0 M0 0 C13.89 0, 27.79 0, 40 0 M40 0 C40 11.84, 40 23.68, 40 40 M40 0 C40 12.12, 40 24.23, 40 40 M40 40 C25.51 40, 11.02 40, 0 40 M40 40 C27.85 40, 15.69 40, 0 40 M0 40 C0 31.69, 0 23.38, 0 0 M0 40 C0 24.46, 0 8.93, 0 0" stroke="#495057" stroke-width="1" fill="none"></path></g><g stroke-opacity="0.7" fill-opacity="0.7" stroke-linecap="round" transform="translate(50 270) rotate(0 20 20)"><path d="M0 0 C10.93 0, 21.86 0, 40 0 M0 0 C9.24 0, 18.47 0, 40 0 M40 0 C40 13.78, 40 27.55, 40 40 M40 0 C40 10.17, 40 20.35, 40 40 M40 40 C25.22 40, 10.44 40, 0 40 M40 40 C24.56 40, 9.12 40, 0 40 M0 40 C0 30.7, 0 21.41, 0 0 M0 40 C0 29.63, 0 19.26, 0 0" stroke="#495057" stroke-width="1" fill="none"></path></g><g stroke-opacity="0.7" fill-opacity="0.7" stroke-linecap="round" transform="translate(170 310) rotate(0 20 20)"><path d="M0 0 C13.74 0, 27.48 0, 40 0 M0 0 C8.48 0, 16.96 0, 40 0 M40 0 C40 8.68, 40 17.36, 40 40 M40 0 C40 9.87, 40 19.74, 40 40 M40 40 C31.97 40, 23.95 40, 0 40 M40 40 C25.37 40, 10.73 40, 0 40 M0 40 C0 30.57, 0 21.15, 0 0 M0 40 C0 29.12, 0 18.24, 0 0" stroke="#495057" stroke-width="1" fill="none"></path></g><g stroke-opacity="0.7" fill-opacity="0.7" stroke-linecap="round" transform="translate(210 310) rotate(0 20 20)"><path d="M0 0 C15.72 0, 31.43 0, 40 0 M0 0 C10.76 0, 21.52 0, 40 0 M40 0 C40 9.23, 40 18.47, 40 40 M40 0 C40 15.88, 40 31.77, 40 40 M40 40 C29.07 40, 18.14 40, 0 40 M40 40 C28.12 40, 16.25 40, 0 40 M0 40 C0 31.52, 0 23.03, 0 0 M0 40 C0 30.15, 0 20.29, 0 0" stroke="#495057" stroke-width="1" fill="none"></path></g><g stroke-opacity="0.7" fill-opacity="0.7" stroke-linecap="round" transform="translate(250 310) rotate(0 20 20)"><path d="M0 0 C13.61 0, 27.21 0, 40 0 M0 0 C10.87 0, 21.73 0, 40 0 M40 0 C40 10.01, 40 20.02, 40 40 M40 0 C40 15, 40 30, 40 40 M40 40 C24.73 40, 9.46 40, 0 40 M40 40 C31.19 40, 22.37 40, 0 40 M0 40 C0 28.93, 0 17.86, 0 0 M0 40 C0 27.74, 0 15.48, 0 0" stroke="#495057" stroke-width="1" fill="none"></path></g><g stroke-opacity="0.7" fill-opacity="0.7" stroke-linecap="round" transform="translate(290 310) rotate(0 20 20)"><path d="M0 0 C14.22 0, 28.44 0, 40 0 M0 0 C11.32 0, 22.64 0, 40 0 M40 0 C40 8.36, 40 16.73, 40 40 M40 0 C40 11.84, 40 23.67, 40 40 M40 40 C25.29 40, 10.59 40, 0 40 M40 40 C29.88 40, 19.76 40, 0 40 M0 40 C0 29.48, 0 18.96, 0 0 M0 40 C0 30.17, 0 20.34, 0 0" stroke="#495057" stroke-width="1" fill="none"></path></g><g stroke-opacity="0.7" fill-opacity="0.7" stroke-linecap="round" transform="translate(10 310) rotate(0 20 20)"><path d="M0 0 C15.43 0, 30.86 0, 40 0 M0 0 C8.48 0, 16.96 0, 40 0 M40 0 C40 9.24, 40 18.47, 40 40 M40 0 C40 12.2, 40 24.39, 40 40 M40 40 C24.53 40, 9.06 40, 0 40 M40 40 C31.59 40, 23.17 40, 0 40 M0 40 C0 25.41, 0 10.81, 0 0 M0 40 C0 25.83, 0 11.66, 0 0" stroke="#495057" stroke-width="1" fill="none"></path></g><g stroke-opacity="0.7" fill-opacity="0.7" stroke-linecap="round" transform="translate(50 310) rotate(0 20 20)"><path d="M0 0 C12.02 0, 24.03 0, 40 0 M0 0 C11.31 0, 22.61 0, 40 0 M40 0 C40 9.76, 40 19.52, 40 40 M40 0 C40 8.51, 40 17.02, 40 40 M40 40 C30.51 40, 21.02 40, 0 40 M40 40 C29 40, 17.99 40, 0 40 M0 40 C0 24.7, 0 9.4, 0 0 M0 40 C0 26.27, 0 12.53, 0 0" stroke="#495057" stroke-width="1" fill="none"></path></g><g stroke-opacity="0.7" fill-opacity="0.7" stroke-linecap="round" transform="translate(90 310) rotate(0 20 20)"><path d="M0 0 C14.82 0, 29.63 0, 40 0 M0 0 C13.57 0, 27.15 0, 40 0 M40 0 C40 12.32, 40 24.64, 40 40 M40 0 C40 10.24, 40 20.47, 40 40 M40 40 C26.81 40, 13.63 40, 0 40 M40 40 C29.52 40, 19.04 40, 0 40 M0 40 C0 28.58, 0 17.17, 0 0 M0 40 C0 30.32, 0 20.64, 0 0" stroke="#495057" stroke-width="1" fill="none"></path></g><g stroke-opacity="0.7" fill-opacity="0.7" stroke-linecap="round" transform="translate(130 310) rotate(0 20 20)"><path d="M0 0 C10.75 0, 21.5 0, 40 0 M0 0 C8.4 0, 16.8 0, 40 0 M40 0 C40 15.35, 40 30.7, 40 40 M40 0 C40 10.45, 40 20.9, 40 40 M40 40 C26.78 40, 13.57 40, 0 40 M40 40 C25.83 40, 11.66 40, 0 40 M0 40 C0 31.46, 0 22.91, 0 0 M0 40 C0 27.44, 0 14.89, 0 0" stroke="#495057" stroke-width="1" fill="none"></path></g><g stroke-opacity="0.7" fill-opacity="0.7" stroke-linecap="round" transform="translate(250 350) rotate(0 20 20)"><path d="M0 0 C13.43 0, 26.86 0, 40 0 M0 0 C12.96 0, 25.92 0, 40 0 M40 0 C40 12.03, 40 24.06, 40 40 M40 0 C40 15.71, 40 31.42, 40 40 M40 40 C27.46 40, 14.93 40, 0 40 M40 40 C30.87 40, 21.74 40, 0 40 M0 40 C0 26.75, 0 13.5, 0 0 M0 40 C0 27.83, 0 15.65, 0 0" stroke="#495057" stroke-width="1" fill="none"></path></g><g stroke-opacity="0.7" fill-opacity="0.7" stroke-linecap="round" transform="translate(290 350) rotate(0 20 20)"><path d="M0 0 C13.89 0, 27.79 0, 40 0 M0 0 C11.84 0, 23.68 0, 40 0 M40 0 C40 12.12, 40 24.23, 40 40 M40 0 C40 14.49, 40 28.98, 40 40 M40 40 C27.85 40, 15.69 40, 0 40 M40 40 C31.69 40, 23.38 40, 0 40 M0 40 C0 24.46, 0 8.93, 0 0 M0 40 C0 24.91, 0 9.81, 0 0" stroke="#495057" stroke-width="1" fill="none"></path></g><g stroke-opacity="0.7" fill-opacity="0.7" stroke-linecap="round" transform="translate(10 350) rotate(0 20 20)"><path d="M0 0 C9.24 0, 18.47 0, 40 0 M0 0 C13.78 0, 27.55 0, 40 0 M40 0 C40 10.17, 40 20.35, 40 40 M40 0 C40 14.78, 40 29.56, 40 40 M40 40 C24.56 40, 9.12 40, 0 40 M40 40 C30.7 40, 21.41 40, 0 40 M0 40 C0 29.63, 0 19.26, 0 0 M0 40 C0 26.89, 0 13.77, 0 0" stroke="#495057" stroke-width="1" fill="none"></path></g><g stroke-opacity="0.7" fill-opacity="0.7" stroke-linecap="round" transform="translate(50 350) rotate(0 20 20)"><path d="M0 0 C8.48 0, 16.96 0, 40 0 M0 0 C8.68 0, 17.36 0, 40 0 M40 0 C40 9.87, 40 19.74, 40 40 M40 0 C40 8.03, 40 16.05, 40 40 M40 40 C25.37 40, 10.73 40, 0 40 M40 40 C30.57 40, 21.15 40, 0 40 M0 40 C0 29.12, 0 18.24, 0 0 M0 40 C0 25.81, 0 11.61, 0 0" stroke="#495057" stroke-width="1" fill="none"></path></g><g stroke-opacity="0.7" fill-opacity="0.7" stroke-linecap="round" transform="translate(90 350) rotate(0 20 20)"><path d="M0 0 C10.76 0, 21.52 0, 40 0 M0 0 C9.23 0, 18.47 0, 40 0 M40 0 C40 15.88, 40 31.77, 40 40 M40 0 C40 10.93, 40 21.86, 40 40 M40 40 C28.12 40, 16.25 40, 0 40 M40 40 C31.52 40, 23.03 40, 0 40 M0 40 C0 30.15, 0 20.29, 0 0 M0 40 C0 28.22, 0 16.44, 0 0" stroke="#495057" stroke-width="1" fill="none"></path></g><g stroke-opacity="0.7" fill-opacity="0.7" stroke-linecap="round" transform="translate(130 350) rotate(0 20 20)"><path d="M0 0 C10.87 0, 21.73 0, 40 0 M0 0 C10.01 0, 20.02 0, 40 0 M40 0 C40 15, 40 30, 40 40 M40 0 C40 15.27, 40 30.54, 40 40 M40 40 C31.19 40, 22.37 40, 0 40 M40 40 C28.93 40, 17.86 40, 0 40 M0 40 C0 27.74, 0 15.48, 0 0 M0 40 C0 30.99, 0 21.97, 0 0" stroke="#495057" stroke-width="1" fill="none"></path></g><g stroke-opacity="0.7" fill-opacity="0.7" stroke-linecap="round" transform="translate(170 350) rotate(0 20 20)"><path d="M0 0 C11.32 0, 22.64 0, 40 0 M0 0 C8.36 0, 16.73 0, 40 0 M40 0 C40 11.84, 40 23.67, 40 40 M40 0 C40 14.71, 40 29.41, 40 40 M40 40 C29.88 40, 19.76 40, 0 40 M40 40 C29.48 40, 18.96 40, 0 40 M0 40 C0 30.17, 0 20.34, 0 0 M0 40 C0 26.98, 0 13.96, 0 0" stroke="#495057" stroke-width="1" fill="none"></path></g><g stroke-opacity="0.7" fill-opacity="0.7" stroke-linecap="round" transform="translate(210 350) rotate(0 20 20)"><path d="M0 0 C8.48 0, 16.96 0, 40 0 M0 0 C9.24 0, 18.47 0, 40 0 M40 0 C40 12.2, 40 24.39, 40 40 M40 0 C40 15.47, 40 30.94, 40 40 M40 40 C31.59 40, 23.17 40, 0 40 M40 40 C25.41 40, 10.81 40, 0 40 M0 40 C0 25.83, 0 11.66, 0 0 M0 40 C0 28.74, 0 17.48, 0 0" stroke="#495057" stroke-width="1" fill="none"></path></g></svg>